<?xml version="1.0" encoding="UTF-8"?>
<!DOCTYPE svg PUBLIC "-//W3C//DTD SVG 1.1//EN" "http://www.w3.org/Graphics/SVG/1.1/DTD/svg11.dtd">
<!-- Creator: CorelDRAW 2018 (64-Bit) -->
<svg xmlns="http://www.w3.org/2000/svg" xml:space="preserve" width="12in" height="12in" version="1.1" style="shape-rendering:geometricPrecision; text-rendering:geometricPrecision; image-rendering:optimizeQuality; fill-rule:evenodd; clip-rule:evenodd"
viewBox="0 0 12000 12000"
 xmlns:xlink="http://www.w3.org/1999/xlink">
 <defs>
  <style type="text/css">
   <![CDATA[
    .str0 {stroke:black;stroke-width:3;stroke-miterlimit:2.61313}
    .fil0 {fill:none}
   ]]>
  </style>
 </defs>
 <g id="Layer_x0020_1">
  <metadata id="CorelCorpID_0Corel-Layer"/>
  <g id="_2904144420528">
   <path class="fil0 str0" d="M3005.67 2891.22c-49.46,66.08 -82.19,123.21 -112.53,97.06 -1.42,-1.22 -74.22,-19.25 27.2,-64.04 27.54,-12.17 65.89,-24.51 85.33,-33.02zm-75.28 -94.6c9.96,28.15 11.61,14.69 1.69,44.15 -49.51,-12.41 -48.68,-30.76 -1.69,-44.15zm-2296.69 -74.11l22.88 -48.59c57.48,29.07 89.22,88.37 148.45,136.23 52.93,42.77 95.49,99.25 140.33,148.64 -26.45,35.59 -6.8,16.54 -40.28,33.24l-271.38 -269.52zm276.29 -30.69c-41.89,-42.49 26.17,-43.04 44.46,-44.69 -0.88,25.93 -0.63,89.15 -44.46,44.69zm-70.6 97.22c233.02,74.28 241.46,-114.55 208.06,-180.48l77.6 -99.69c126.01,64.33 160.73,164.86 317.71,263.2l-31.41 86.41c-74.07,-20.06 -108.33,-59.01 -170.81,-83.85l-262.73 164.92 -112.65 -105.76c-15.88,-19.11 -7.47,-8.45 -17.48,-24.58l-8.3 -20.17zm1360.35 -651.4c26.61,-18.39 37.98,-27.63 67.63,-46.95l7.33 464.34 -148.51 -362 73.55 -55.39zm-666.36 -58.43c60.59,33.52 78.04,71.87 159.36,99.7l-115.21 275.04 -267.48 -249.74 223.33 -125zm-720.72 682.16c-39.96,-20.06 -96.58,-89.9 -123.59,-124.92l166.77 -262.87c-28.47,-67.59 -68.08,-126.82 -94.22,-204.67l331.89 303.65 -68.24 85.88c-76.59,-18.57 -130.53,-50.09 -193.45,16.47 -49.54,52.4 -42.05,115.88 -19.15,186.46zm2091.83 -591.07c-1.07,-2.23 -22.07,-6.39 0.48,-51.43 80.32,-25.78 78.08,78.61 -0.48,51.43zm-1423.85 -189.3c14.35,34.81 22.2,36.56 34.69,69.57 -62.08,36.06 -186.08,114.16 -252.1,131.63 -15.14,-31.24 -28.27,-41.44 -48.3,-63.51l265.71 -137.69zm916.39 876.22c-33.7,-91.87 -85.45,-170.88 -89.13,-274.89l-12.63 -514.42c12.19,-80.39 134.03,-107.46 108.7,-421.4l112.06 40.09 -27.86 1129.63 -91.14 40.99zm-863.22 -303.08c-25.97,88.08 -25.52,68.97 -42.11,86.45 -53.9,-37.55 -54.64,-47 -102.05,-95.19l-197.15 -177.99c-170.32,-139.98 -315.55,-290.68 -478.53,-438.27 7.93,-38.9 13.85,-65.85 41.62,-96.46l778.22 721.45zm1507.97 -813.63c-12.59,-25.3 -33.36,-39.87 6.97,-73.56 22.94,-19.16 45.15,-7.3 59.4,6.8 36.63,36.22 10.23,102.31 -66.37,66.76zm-2067.86 -245.61c1.9,-1.07 -9.45,-22.6 44.31,-12.22 59.29,11.45 29.42,68.48 20.44,86.82 -70.45,1.38 -98.05,-7.28 -64.76,-74.6zm2045.44 1376.46c23.63,-216.96 -190.11,-180.78 -201.63,-63.42 -8.42,85.82 52.5,51.48 12.38,135.19 -29.85,-11.14 -33.55,-14.54 -60.56,-27.12 -4.72,-133.37 -0.59,-269.78 -1.54,-403.61 -0.69,-98.61 -7.06,-90.43 39.46,-156.16 33.24,-46.98 47.44,-72.47 76,-120.33 68.46,-3.59 127.97,-12.27 133.22,-85.61 9.5,-132.58 -243.7,-140.28 -156.7,64.81 -88.18,126.69 -127.81,158.36 -127.02,269.11 0.46,64.21 21.17,342.2 -19.05,393.46 -42.32,-29.83 -30.26,5.65 -30.82,-72.43l9.51 -291.65c9.19,-374.08 -39.56,-277.2 91.52,-430.57l193.24 -222.74c112.63,25.6 197.67,26.29 247.44,-59.37 109.73,-188.81 -141.25,-360.87 -277.12,-221.4 -88.67,91.01 -32.82,166.91 -7.34,258.64 -69.37,32.47 -108.16,120.35 -162.91,168.53 -48,42.24 -125.94,113.42 -130.94,185.46 -14.1,202.8 -7.89,420.21 -17.43,627.37l-84.75 -40.02 26.33 -1063.78c51.21,-6.22 21.78,13.71 65.81,-15.67l301.8 -240.83c40.38,-32.59 75.65,-65.37 123.36,-90.52l26.56 100.99 430.88 94.64 -1.79 360.59 -422.65 93.48c-58.21,152.51 -74.17,241.41 -156.2,371.74l216.83 330.66 -135.92 150.56zm-2427.96 -1363.15l-167.92 437 -113.26 -21.33 1.4 -388.06 258.57 -51.89m639.16 -142.54c78.02,-33.83 123.96,88.15 2.73,70.59l-2.73 -70.59zm-207.57 -193.36c94.57,24.3 202.68,67.54 294.56,101.11 69.22,25.29 233.02,72.5 277.28,110.55l-151.37 212.11c-51.91,-10.18 -37.07,-6.89 -64.18,-50.87 -18.29,-29.67 -22.32,-35.88 -33.71,-64.01 74.91,-155.13 -55.54,-236.22 -148.48,-163.27 -36.96,29.01 -105.69,216.84 132.27,178.87 78.74,156.17 63.46,91.89 115.8,137.19 -18.5,68.37 -20.25,54.56 -107.08,48.93l-69.89 -150.62 -130.28 -1.87c-32.04,-39.32 -33.24,-76.37 -97.61,-82.28 -58.98,-5.41 -81,27.22 -109.05,56.81 -47.08,101.38 117.41,227.37 188.43,86.06 125.44,-0.06 105.33,-18.26 183.78,152.11l122.31 1.85 22.43 178.44 -298.41 153.64 -252.65 -243.67c-28.59,-29.76 -58.94,-51.7 -91.58,-76.59l217.44 -584.46zm1566.81 410.5c26.66,-56.65 403.8,-367.84 414.46,-370.96 23.77,60.54 18.43,44.04 -20.3,73.18 -87.61,65.92 -333.93,277.27 -394.16,297.78zm-1851.6 -110.88c52.47,-91.53 83.44,-280.68 163.92,-345.9l51.92 23.17 -328.73 855.68 -112.91 -21.74c-27.64,-9.33 -22.11,-10.01 -31.91,-15.84 29.69,-94.68 69.11,-183.78 104.05,-275.54 85.32,-224.07 53.05,-179.25 153.66,-219.83zm1100.74 -231.5l18.9 29.04 -38.25 5.67c-162.8,7.76 -514.07,-178.52 -741.47,-234.31l32 -75.18c133.11,21.43 605.51,259.07 728.82,274.78zm611.17 -250.64c-34.81,21.7 -68.19,7.3 -81.94,-17.39 -29.03,-52.13 20.37,-72.41 23.07,-74.35 73.14,-52.8 119.51,53.95 58.87,91.74zm-1145.55 -268.26c81.55,-34.84 168.2,-97.19 263.89,-103.39l537.32 666.15c-105.49,-20.88 -177.63,-27.93 -274.12,-66.56 -136.93,-54.83 -654.83,-250.65 -710.23,-292.83l99.81 -248.85 83.33 45.47zm-295.15 285.15c-60.52,-6.77 -132.71,-40.43 -195.56,-62.97 -60.88,-21.84 -96.78,-91.3 -120.06,-151.54l343.14 129.99 -27.52 84.52zm1966.87 -131.57c114.38,-115.54 140.81,-177.82 209.52,-150.17 11.15,54.5 -145.4,274.71 -194.39,345.98 -61.8,89.93 -1.01,54.84 -47.78,103.67l-386.74 347.72 -156.67 -55.02 576.06 -592.19zm-2069.26 -249.5c72.08,-4.51 58.69,47.23 3.6,42.84 -1.82,-3.04 -4.33,-7.72 -4.74,-9.5l1.13 -33.34zm-74.33 -21.89c-25.28,191.5 181.47,172.41 190.62,55.97 2.52,-32.04 -6.26,-41.66 -6.55,-57.64 -1.72,-93.38 90.52,-4.89 134.02,17.59 -17.98,77.5 -66.24,222.87 -110.76,280.04l-368.22 -144.88 144.21 -148.26m957.3 -88.14c137.42,-47.42 -0.45,138.51 -8.34,20.17l8.34 -20.17zm-885.51 16.05l55.64 -46.37c35.74,26.86 32.98,11.81 46.99,36.56l-2.18 14.61c-3.12,1.82 -7.12,4.38 -9.55,5.08l-34.5 6.97c-11.82,1.09 -34.86,-1.06 -57.36,1.47m1140.7 -85.8c-1.96,-32.98 -9.95,-49.31 25.03,-46.45 20.21,1.65 21.27,23.51 21.84,35.88 -21.29,11.7 34.97,21.98 -46.87,10.57zm472.89 246.42c-240.32,-4.9 -352.56,82.87 -294.24,339.39l-123.54 78.15 -178.88 -220.8c-22.14,-25.87 -37.59,-45.95 -50.3,-86.19 50.06,-22.11 101.87,-69.15 144.76,-107.36 81.36,-72.5 81.45,-14.92 81.29,-152.06 8.44,-41.5 71.62,-53.49 68.63,-123.87 -4.83,-113.96 -191.42,-134.28 -195.86,-1.11 -2.46,73.65 34.74,78.22 72.84,111.09 4.71,105.91 -35.01,99.39 -88.54,146.06 -29.3,25.56 -36.29,29.08 -60.83,50.09 -45.41,38.88 -10.58,28.49 -74.23,45.11l-43.37 -74.59c42.98,-141.75 46.84,-43.9 107.7,-119.64 46.19,-57.48 2.25,-106.91 -34.07,-141.91 -56.93,-22.7 -105.89,31.13 -125.24,48.43 3.61,126.55 -7.66,46.59 45.82,129.93l-18.62 53.41c-33.87,-28.24 -58.73,-56.01 -81,-95.14l93.3 -416.69c3.18,-1.57 7.25,-3.81 9.63,-4.51 2.44,-0.72 7.02,-3.17 10.19,-3.91l360.5 -5.64 87.31 424.52c112.85,43.11 191.53,58.73 289.7,119.31m48.59 22.5c46.15,6.95 131,-66.31 195.07,-109.88 61.56,-41.86 137.67,-103.47 202.63,-125.99 45.09,56.87 94.65,84.55 141.26,155.76 -39.05,55.89 -132.67,139.51 -188,195.61 -100.82,102.22 -533.93,554.22 -584.83,580.21l-128.08 -161.17c-7.85,-10.22 -18.72,-23.11 -24.57,-31.37 -15.9,-22.42 -1.9,1.18 -17.9,-30.36l115.33 -76.27c148.38,63.61 236,89.53 347.09,-46.28 41.14,-50.3 55.37,-126.74 34.76,-201.8 -21.22,-77.28 -51.2,-95.22 -92.09,-133.74m485.69 391.27c21.84,-65.35 190.87,-301.75 243.5,-393.78l-340.57 -333.53 -369.63 251.73 -302.35 -126.26 -92.16 -436.01 -479.78 2c-74.18,171.99 -35.94,399.44 -136.36,445.6l-256.81 100.23 -379.39 -244.94 -345.61 339.8c23.67,68.33 81.78,131.07 121.88,192.78 29.18,44.91 100.15,138.39 118.06,188.47 -57.38,106.7 -80.26,185.76 -131.97,299.43l-423.48 86.96 11.62 496.27 400.27 80.72c64.07,160.8 32.63,117.22 126.56,315.97l-232.26 363.66c51.42,58.72 290.06,305.48 345.81,335.76l347.22 -220.52c72.02,25.73 128.77,75.72 205.24,89.09l323.24 -791.79c-51.04,-35.17 -90.94,-40.57 -131.46,-77.76 -357.82,-328.38 -77.67,-786.31 283.74,-775.15 348.42,10.76 540.86,411.55 338.37,691.64 -77.15,106.71 -154.07,123.08 -223.06,164.02l331.5 792.33 191.88 -87.96 361.11 226.3 323.5 -350.8 -226.22 -346.51c19.95,-49.21 48.2,-97.15 70.89,-151.3 21.88,-52.22 35.38,-106.79 58.1,-162.91l428.9 -97.92c35.12,-96.54 7.46,-336.5 6.35,-459.23 -98.22,-35.48 -328.53,-81.21 -442.54,-99.46 -27.08,-124.02 -76.97,-204.59 -124.08,-306.95z"/>
   <path class="fil0 str0" d="M3019.37 2871.37l135.92 -150.56 -216.83 -330.66c82.02,-130.33 97.99,-219.23 156.2,-371.74l422.65 -93.48 1.79 -360.59 -430.88 -94.64 -26.56 -100.99c-47.71,25.15 -82.98,57.93 -123.36,90.52l-301.8 240.83c-44.03,29.38 -14.6,9.45 -65.81,15.67l-26.33 1063.78 84.75 40.02c9.54,-207.16 3.33,-424.57 17.43,-627.37 5,-72.04 82.94,-143.21 130.94,-185.46 54.74,-48.18 93.53,-136.06 162.91,-168.53 -25.48,-91.73 -81.33,-167.63 7.34,-258.64 135.87,-139.47 386.85,32.59 277.12,221.4 -49.78,85.66 -134.81,84.96 -247.44,59.37l-193.24 222.74c-131.09,153.37 -82.33,56.5 -91.52,430.57l-9.51 291.65c0.56,78.08 -11.5,42.59 30.82,72.43 40.22,-51.26 19.51,-329.24 19.05,-393.46 -0.8,-110.75 38.83,-142.42 127.02,-269.11 -87,-205.09 166.2,-197.39 156.7,-64.81 -5.26,73.34 -64.76,82.02 -133.22,85.61 -28.55,47.85 -42.75,73.35 -76,120.33 -46.52,65.74 -40.15,57.55 -39.46,156.16 0.94,133.82 -3.19,270.23 1.54,403.61 27.02,12.58 30.72,15.98 60.56,27.12 40.11,-83.7 -20.8,-49.37 -12.38,-135.19 11.52,-117.36 225.26,-153.54 201.63,63.42z"/>
   <path class="fil0 str0" d="M784.36 1732.51c32.65,24.89 62.99,46.83 91.58,76.59l252.65 243.67 298.41 -153.64 -22.43 -178.44 -122.31 -1.85c-78.46,-170.37 -58.35,-152.17 -183.78,-152.11 -71.02,141.31 -235.51,15.31 -188.43,-86.06 28.04,-29.59 50.07,-62.23 109.05,-56.81 64.37,5.91 65.57,42.96 97.61,82.28l130.28 1.87 69.89 150.62c86.83,5.63 88.58,19.44 107.08,-48.93 -52.34,-45.29 -37.06,18.98 -115.8,-137.19 -237.96,37.98 -169.23,-149.86 -132.27,-178.87 92.94,-72.95 223.39,8.14 148.48,163.27 11.39,28.13 15.43,34.35 33.71,64.01 27.11,43.98 12.28,40.69 64.18,50.87l151.37 -212.11c-44.25,-38.05 -208.05,-85.26 -277.28,-110.55 -91.89,-33.57 -199.99,-76.81 -294.56,-101.11l-217.44 584.46z"/>
   <path class="fil0 str0" d="M2479.25 689.12l2.96 -7.92c-98.17,-60.58 -176.85,-76.2 -289.7,-119.31l-87.31 -424.52 -360.5 5.64c-3.17,0.74 -7.74,3.19 -10.19,3.91 -2.38,0.7 -6.45,2.94 -9.63,4.51l-93.3 416.69c22.27,39.13 47.13,66.9 81,95.14l18.62 -53.41c-53.48,-83.34 -42.2,-3.39 -45.82,-129.93 19.35,-17.3 68.31,-71.13 125.24,-48.43 36.32,35 80.26,84.43 34.07,141.91 -60.86,75.74 -64.72,-22.11 -107.7,119.64l43.37 74.59c63.65,-16.62 28.83,-6.23 74.23,-45.11 24.54,-21.01 31.53,-24.53 60.83,-50.09 53.52,-46.67 93.24,-40.15 88.54,-146.06 -38.1,-32.87 -75.3,-37.45 -72.84,-111.09 4.44,-133.17 191.03,-112.85 195.86,1.11 2.99,70.39 -60.19,82.37 -68.63,123.87 0.16,137.14 0.07,79.56 -81.29,152.06 -42.89,38.22 -94.7,85.25 -144.76,107.36 12.7,40.24 28.15,60.31 50.3,86.19l178.88 220.8 123.54 -78.15c-58.32,-256.52 53.92,-344.28 294.24,-339.39z"/>
   <path class="fil0 str0" d="M1283.38 697.27l-83.33 -45.47 -99.81 248.85c55.41,42.18 573.3,238 710.23,292.83 96.48,38.63 168.63,45.67 274.12,66.56l-537.32 -666.15c-95.68,6.2 -182.33,68.55 -263.89,103.39z"/>
   <path class="fil0 str0" d="M2530.81 703.7l0.67 14.73c40.89,38.52 70.87,56.46 92.09,133.74 20.61,75.06 6.39,151.5 -34.76,201.8 -111.09,135.81 -198.72,109.89 -347.09,46.28l-115.33 76.27c16,31.54 2,7.94 17.9,30.36 5.86,8.26 16.72,21.15 24.57,31.37l128.08 161.17c50.89,-25.99 484,-477.99 584.83,-580.21 55.33,-56.09 148.94,-139.72 188,-195.61 -46.61,-71.21 -96.17,-98.89 -141.26,-155.76 -64.95,22.52 -141.07,84.13 -202.63,125.99 -64.07,43.57 -148.92,116.83 -195.07,109.88z"/>
   <path class="fil0 str0" d="M2397.04 2857.22l91.14 -40.99 27.86 -1129.63 -112.06 -40.09c25.33,313.94 -96.51,341.01 -108.7,421.4l12.63 514.42c3.68,104.01 55.42,183.02 89.13,274.89z"/>
   <path class="fil0 str0" d="M2379.06 1443.03l156.67 55.02 386.74 -347.72c46.77,-48.83 -14.02,-13.74 47.78,-103.67 48.98,-71.28 205.54,-291.48 194.39,-345.98 -68.71,-27.65 -95.14,34.63 -209.52,150.17l-576.06 592.19z"/>
   <path class="fil0 str0" d="M717.02 1447.67c-100.61,40.57 -68.33,-4.24 -153.66,219.83 -34.94,91.76 -74.36,180.86 -104.05,275.54 9.8,5.83 4.27,6.52 31.91,15.84l112.91 21.74 328.73 -855.68 -51.92 -23.17c-80.48,65.22 -111.45,254.37 -163.92,345.9z"/>
   <path class="fil0 str0" d="M713.98 1929.15c162.98,147.59 308.2,298.29 478.53,438.27l197.15 177.99c47.41,48.2 48.15,57.65 102.05,95.19 16.59,-17.48 16.14,1.63 42.11,-86.45l-778.22 -721.45c-27.77,30.61 -33.69,57.56 -41.62,96.46z"/>
   <path class="fil0 str0" d="M839.4 2789.04l8.3 20.17c10.01,16.13 1.6,5.47 17.48,24.58l112.65 105.76 262.73 -164.92c62.47,24.84 96.73,63.8 170.81,83.85l31.41 -86.41c-156.98,-98.34 -191.7,-198.87 -317.71,-263.2l-77.6 99.69c33.41,65.93 24.96,254.76 -208.06,180.48z"/>
   <path class="fil0 str0" d="M591.42 1508.22c1.24,-29.97 8.48,-22.03 -21.21,-24.27l-258.57 51.89 -1.4 388.06 113.26 21.33 167.92 -437z"/>
   <path class="fil0 str0" d="M812.66 2761.38c-22.9,-70.59 -30.39,-134.06 19.15,-186.46 62.92,-66.56 116.87,-35.04 193.45,-16.47l68.24 -85.88 -331.89 -303.65c26.14,77.85 65.76,137.07 94.22,204.67l-166.77 262.87c27.02,35.02 83.64,104.86 123.59,124.92z"/>
   <path class="fil0 str0" d="M1310.05 2204.22l267.48 249.74 115.21 -275.04c-81.32,-27.83 -98.77,-66.17 -159.36,-99.7l-223.33 125z"/>
   <path class="fil0 str0" d="M811.53 579.45l-16.69 2.82 -144.21 148.26 368.22 144.88c44.53,-57.17 92.78,-202.54 110.76,-280.04 -43.49,-22.48 -135.74,-110.96 -134.02,-17.59 0.3,15.98 9.07,25.6 6.55,57.64 -9.15,116.43 -215.89,135.53 -190.62,-55.97z"/>
   <path class="fil0 str0" d="M1817.76 1216.17c-123.31,-15.72 -595.72,-253.35 -728.82,-274.78l-32 75.18c227.41,55.78 578.67,242.06 741.47,234.31"/>
   <path class="fil0 str0" d="M2126.2 2193.03l148.51 362 -7.33 -464.34c-29.65,19.32 -41.01,28.56 -67.63,46.95l-73.55 55.39z"/>
   <path class="fil0 str0" d="M988.24 982.41l27.52 -84.52 -343.14 -129.99c23.28,60.24 59.18,129.69 120.06,151.54 62.85,22.55 135.04,56.2 195.56,62.97z"/>
   <path class="fil0 str0" d="M1214.94 2118.69c20.03,22.07 33.16,32.27 48.3,63.51 66.02,-17.47 190.02,-95.57 252.1,-131.63 -12.49,-33.01 -20.34,-34.76 -34.69,-69.57l-265.71 137.69z"/>
   <path class="fil0 str0" d="M805.04 2810.14c-59.24,-47.86 -90.97,-107.16 -148.45,-136.23l-22.88 48.59 271.38 269.52c33.48,-16.71 13.83,2.35 40.28,-33.24 -44.84,-49.39 -87.4,-105.87 -140.33,-148.64z"/>
   <path class="fil0 str0" d="M2568.62 1558.55c60.22,-20.51 306.55,-231.86 394.16,-297.78 38.72,-29.14 44.07,-12.64 20.3,-73.18 -10.66,3.11 -387.8,314.3 -414.46,370.96z"/>
   <path class="fil0 str0" d="M2370.06 873.78c-2.69,1.94 -52.1,22.22 -23.07,74.35 13.75,24.7 47.13,39.09 81.94,17.39 60.63,-37.79 14.27,-144.54 -58.87,-91.74z"/>
   <path class="fil0 str0" d="M3041.8 1740.51c76.59,35.56 103,-30.53 66.37,-66.76 -14.25,-14.1 -36.46,-25.96 -59.4,-6.8 -40.33,33.69 -19.56,48.26 -6.97,73.56z"/>
   <path class="fil0 str0" d="M973.94 1494.91c-33.29,67.32 -5.69,75.98 64.76,74.6 8.98,-18.34 38.85,-75.37 -20.44,-86.82 -53.77,-10.38 -42.42,11.15 -44.31,12.22z"/>
   <path class="fil0 str0" d="M3005.67 2891.22c-19.44,8.5 -57.78,20.85 -85.33,33.02 -101.43,44.79 -28.63,62.82 -27.2,64.04 30.34,26.15 63.07,-30.98 112.53,-97.06z"/>
   <path class="fil0 str0" d="M1209.37 1341.41l2.73 70.59c121.24,17.56 75.29,-104.42 -2.73,-70.59z"/>
   <path class="fil0 str0" d="M866.63 510.18l-0.97 18.31c22.5,-2.53 45.54,-0.38 57.36,-1.47l34.5 -6.97c2.43,-0.7 6.43,-3.26 9.55,-5.08l2.18 -14.61c-14.01,-24.75 -11.25,-9.7 -46.99,-36.56l-55.64 46.37z"/>
   <path class="fil0 str0" d="M1752.14 494.13l-8.34 20.17c7.89,118.34 145.76,-67.59 8.34,-20.17z"/>
   <path class="fil0 str0" d="M2904.97 2118.87c-22.55,45.04 -1.55,49.2 -0.48,51.43 78.56,27.18 80.8,-77.21 0.48,-51.43z"/>
   <path class="fil0 str0" d="M954.45 2647.13c-18.29,1.65 -86.34,2.2 -44.46,44.69 43.82,44.46 43.57,-18.76 44.46,-44.69z"/>
   <path class="fil0 str0" d="M2006.37 442.7c81.85,11.41 25.59,1.13 46.87,-10.57 -0.57,-12.37 -1.63,-34.23 -21.84,-35.88 -34.98,-2.86 -27,13.47 -25.03,46.45z"/>
   <path class="fil0 str0" d="M889.46 644.19c55.09,4.39 68.48,-47.35 -3.6,-42.84l-1.13 33.34c0.41,1.78 2.92,6.46 4.74,9.5z"/>
   <path class="fil0 str0" d="M2932.09 2840.76c9.92,-29.46 8.27,-16 -1.69,-44.15 -46.98,13.38 -47.81,31.73 1.69,44.15z"/>
   <path class="fil0 str0" d="M2531.48 718.43l-0.67 -14.73m-48.59 -22.5l-2.96 7.92"/>
   <polyline class="fil0 str0" points="1798.41,1250.87 1836.66,1245.2 1817.76,1216.17 "/>
   <path class="fil0 str0" d="M570.21 1483.95c29.69,2.24 22.45,-5.7 21.21,24.27"/>
   <line class="fil0 str0" x1="865.67" y1="528.5" x2="866.63" y2= "510.18" />
   <line class="fil0 str0" x1="794.84" y1="582.27" x2="811.53" y2= "579.45" />
  </g>
 </g>
</svg>
