<?xml version="1.0" encoding="UTF-8" standalone="no"?>
<svg
   xmlns:dc="http://purl.org/dc/elements/1.1/"
   xmlns:cc="http://creativecommons.org/ns#"
   xmlns:rdf="http://www.w3.org/1999/02/22-rdf-syntax-ns#"
   xmlns:svg="http://www.w3.org/2000/svg"
   xmlns="http://www.w3.org/2000/svg"
   id="svg8"
   version="1.1"
   viewBox="0 0 85.235626 76.615219"
   height="76.615219mm"
   width="85.235626mm">
  <defs
     id="defs2">
    <style
       type="text/css"
       id="style3713">
   <![CDATA[
    .str0 {stroke:black;stroke-width:3;stroke-miterlimit:2.61313}
    .fil0 {fill:none}
   ]]>
  </style>
  </defs>
  <metadata
     id="metadata5">
    <rdf:RDF>
      <cc:Work
         rdf:about="">
        <dc:format>image/svg+xml</dc:format>
        <dc:type
           rdf:resource="http://purl.org/dc/dcmitype/StillImage" />
        <dc:title></dc:title>
      </cc:Work>
    </rdf:RDF>
  </metadata>
  <g
     transform="translate(-7.2750425,-6.9602461)"
     id="layer1">
    <path
       id="rect5082"
       d="m 10.090013,44.148178 0.236678,10.129612 9.382889,1.892393 0.01551,0.04341 c 1.50677,3.781619 0.767344,2.750738 2.972945,7.417636 l 0.01913,0.04289 -5.447213,8.525579 c 0.616792,0.701161 2.281759,2.455311 3.978569,4.146517 0.857581,0.85475 1.718199,1.687595 2.445329,2.351278 0.71133,0.649259 1.286934,1.119844 1.599904,1.297078 l 8.140586,-5.16971 0.03876,0.01344 c 1.689489,0.60359 3.012109,1.739809 4.746479,2.06654 l 1.641761,-4.022494 z"
       style="fill:#da0000;fill-opacity:1;fill-rule:evenodd;stroke:none;stroke-width:0;stroke-linejoin:round;stroke-miterlimit:2.61313009;stroke-dasharray:none;stroke-opacity:1" />
    <path
       id="rect5082-3"
       d="m 22.789494,34.179794 c -0.01252,0.119518 -0.02961,0.240369 -0.05219,0.363284 -0.347821,1.893112 -1.876393,4.222821 -2.740403,6.139161 l -0.01757,0.03876 -9.921875,2.037085 0.03256,1.390097 29.771308,28.734162 5.892662,-14.438394 c -1.153938,-0.77615 -2.088099,-0.926018 -3.039089,-1.798857 -2.36987,-2.17488 -3.5571,-4.596858 -3.848862,-6.948929 z m 32.345307,31.218248 4.843648,11.577071 4.471035,-2.04897 1.590092,0.996838 z"
       style="fill:#ff6600;fill-opacity:1;fill-rule:evenodd;stroke:none;stroke-width:0;stroke-linejoin:round;stroke-miterlimit:2.61313009;stroke-dasharray:none;stroke-opacity:1" />
    <path
       id="rect5082-3-3"
       d="m 25.511808,16.78189 -8.02535,7.888407 c 0.556292,1.561078 1.887014,3.019083 2.826184,4.462777 l 0.0041,0.0062 c 1.795182,1.926196 2.652387,3.322942 2.472716,5.040522 l 16.076538,15.516365 c -0.22848,-1.841934 0.09195,-3.641061 0.825273,-5.244643 1.66974,-3.651279 5.466453,-6.296181 9.748242,-6.163963 0.229314,0.0071 0.45556,0.0223 0.679027,0.04341 L 32.395102,21.225019 Z m 33.780894,30.403829 c 0.367585,2.500527 -0.162137,5.167222 -1.837611,7.484813 -1.802553,2.49318 -3.610478,2.914526 -5.201259,3.841626 l 2.880969,6.885884 10.904775,10.524939 6.870383,4.306197 7.508055,-8.140588 -5.302515,-8.123536 0.01746,-0.04082 c 0.137318,-0.338703 0.292973,-0.674785 0.454765,-1.011309 z"
       style="fill:#ffbc00;fill-opacity:1;fill-rule:evenodd;stroke:none;stroke-width:0;stroke-linejoin:round;stroke-miterlimit:2.61313009;stroke-dasharray:none;stroke-opacity:1" />
    <path
       id="rect5082-3-31"
       d="m 43.645585,9.8577628 c -0.788887,1.9532602 -1.002231,4.1928942 -1.280541,6.1019532 -0.144341,0.990052 -0.308351,1.8913 -0.58756,2.619478 -0.279213,0.72817 -0.679302,1.286902 -1.295012,1.569932 l -0.0021,0.0016 -6.076114,2.371431 -2.00918,-1.29708 17.723451,17.105934 c 5.006922,0.472766 8.519054,4.39868 9.174136,8.854758 l 16.295115,15.72719 c 0.394256,-0.820147 0.835316,-1.64625 1.211289,-2.543513 0.510673,-1.218822 0.826664,-2.500802 1.363213,-3.826124 l 0.01799,-0.04082 10.062421,-2.297018 c 0.105807,-0.298717 0.18505,-0.661561 0.245983,-1.066601 z"
       style="fill:#008700;fill-opacity:1;fill-rule:evenodd;stroke:none;stroke-width:0;stroke-linejoin:round;stroke-miterlimit:2.61313009;stroke-dasharray:none;stroke-opacity:1" />
    <path
       id="rect5082-3-2"
       d="m 54.85421,9.6433075 -11.141445,0.046508 c -0.02352,0.055393 -0.04461,0.1120722 -0.06718,0.1679469 L 88.488837,53.138844 c 0.165735,-1.10127 0.183833,-2.538042 0.138509,-4.025077 C 88.565593,47.088326 88.40208,45.001102 88.385491,43.554932 86.076181,42.72959 80.718025,41.65901 78.057428,41.23311 l -0.05683,-0.0078 -0.01349,-0.05633 c -0.633174,-2.899799 -1.799166,-4.785397 -2.908353,-7.195425 0,-5.29e-4 -1.32e-4,-2.65e-4 -0.0042,-0.06098 0,-0.0029 0.0053,-0.0089 0.0061,-0.01188 h -0.0026 l 0.08012,-0.160197 0.0026,0.0062 c 0.156131,-0.40183 0.435134,-0.939458 0.857303,-1.640728 0.46482,-0.772089 1.048226,-1.677819 1.654175,-2.603458 1.198272,-1.830448 2.471235,-3.721756 3.093852,-4.802807 l -7.900299,-7.738546 -8.664046,5.900414 -7.187697,-2.999816 z"
       style="fill:#0035ff;fill-opacity:1;fill-rule:evenodd;stroke:none;stroke-width:0;stroke-linejoin:round;stroke-miterlimit:2.61313009;stroke-dasharray:none;stroke-opacity:1" />
    <g
       style="stroke:#000000;stroke-opacity:1;stroke-width:0.2;stroke-miterlimit:4;stroke-dasharray:none;fill:#000000;fill-opacity:1"
       id="g4954">
      <path
         style="clip-rule:evenodd;fill:#000000;fill-rule:evenodd;stroke:#000000;stroke-width:0.2;stroke-miterlimit:4;image-rendering:optimizeQuality;shape-rendering:geometricPrecision;text-rendering:geometricPrecision;stroke-opacity:1;stroke-dasharray:none;fill-opacity:1"
         class="fil0 str0"
         d="m 74.893144,75.713067 c -1.16195,1.552401 -1.93087,2.894543 -2.64364,2.280207 -0.0334,-0.02866 -1.74363,-0.452236 0.63901,-1.504476 0.64699,-0.285907 1.54793,-0.575808 2.00463,-0.775731 z m -1.76853,-2.222415 c 0.23399,0.661321 0.27275,0.345108 0.0397,1.037205 -1.16312,-0.291545 -1.14363,-0.722637 -0.0397,-1.037205 z m -53.95559,-1.741049 0.53752,-1.141513 c 1.35036,0.682934 2.09602,2.076055 3.4875,3.200419 1.24347,1.004785 2.24332,2.331656 3.29674,3.491963 -0.62139,0.836108 -0.15976,0.388571 -0.94629,0.7809 z m 6.49082,-0.720993 c -0.98412,-0.998207 0.6148,-1.011128 1.04448,-1.049891 -0.0207,0.609167 -0.0148,2.094379 -1.04448,1.049891 z m -1.65859,2.283966 c 5.47428,1.745043 5.67256,-2.691095 4.8879,-4.239973 l 1.82304,-2.341993 c 2.96032,1.511289 3.77599,3.873016 7.46388,6.183294 l -0.7379,2.03001 c -1.74011,-0.471265 -2.54497,-1.386308 -4.0128,-1.969868 l -6.17225,3.874426 -2.64646,-2.484595 c -0.37307,-0.448946 -0.17549,-0.198513 -0.41066,-0.577452 l -0.19499,-0.473849 z m 31.95837,-15.303183 c 0.62515,-0.432032 0.89226,-0.649105 1.58882,-1.102985 l 0.1722,10.908628 -3.48891,-8.504379 z m -15.65463,-1.372682 c 1.42342,0.787477 1.83337,1.688424 3.7438,2.342228 l -2.7066,6.461449 -6.28384,-5.867082 z m -16.9317,16.025821 c -0.93877,-0.471265 -2.26893,-2.111999 -2.90347,-2.934716 l 3.91788,-6.175542 c -0.66884,-1.587875 -1.59938,-2.979351 -2.21348,-4.808263 l 7.79701,7.133577 -1.60315,2.017558 c -1.79931,-0.436261 -3.06651,-1.176752 -4.54467,0.386926 -1.16383,1.23102 -0.98787,2.722341 -0.44989,4.38046 z m 49.14286,-13.885866 c -0.0251,-0.05239 -0.51849,-0.150119 0.0113,-1.208233 1.88694,-0.605643 1.83432,1.846766 -0.0113,1.208233 z m -33.45017,-4.447179 c 0.33712,0.817783 0.52154,0.858895 0.81496,1.634391 -1.45843,0.847149 -4.37153,2.681933 -5.92252,3.092352 -0.35568,-0.733914 -0.66414,-0.97354 -1.1347,-1.492025 z m 21.52853,20.584826 c -0.79171,-2.15828 -2.00746,-4.014443 -2.09391,-6.457925 l -0.29671,-12.085146 c 0.28637,-1.888583 3.14873,-2.524532 2.55366,-9.899849 l 2.6326,0.941825 -0.65451,26.538127 z m -20.27942,-7.120186 c -0.61011,2.069242 -0.59954,1.620296 -0.98928,2.030949 -1.26626,-0.882153 -1.28364,-1.104159 -2.39744,-2.236276 l -4.63159,-4.181476 c -4.00129,-3.288516 -7.41314,-6.828875 -11.24199,-10.296172 0.18629,-0.913868 0.32537,-1.546998 0.97776,-2.266112 l 18.28254,16.948852 z m 35.42638,-19.114414 c -0.29578,-0.594367 -0.78372,-0.936657 0.16374,-1.728128 0.53893,-0.450121 1.0607,-0.171497 1.39547,0.159751 0.86054,0.850908 0.24033,2.403544 -1.55921,1.568377 z m -48.57974,-5.770057 c 0.0446,-0.02514 -0.22201,-0.530936 1.04096,-0.287082 1.39289,0.268993 0.69116,1.608785 0.4802,2.039642 -1.65507,0.03242 -2.30347,-0.171027 -1.5214,-1.75256 z M 75.214764,75.2465 c 0.55513,-5.096989 -4.46621,-4.247021 -4.73685,-1.48991 -0.1978,2.016148 1.23337,1.209407 0.29085,3.175986 -0.70126,-0.26171 -0.559611,-0.427302 -1.194151,-0.722841 -0.11088,-3.133229 0.01467,-6.280732 -0.0076,-9.424768 -0.0162,-2.316621 -0.05156,-2.353029 1.041319,-3.897208 0.7809,-1.10369 0.971639,-1.445369 1.642589,-2.569733 1.60831,-0.08434 2.777791,-0.288256 2.901121,-2.011215 0.22319,-3.11467 -5.72518,-3.295564 -3.68131,1.522566 -2.07159,2.976297 -3.00261,3.720313 -2.98405,6.322136 0.0108,1.50847 0.49734,8.039223 -0.44754,9.243462 -0.99421,-0.700789 -0.71089,0.132734 -0.72405,-1.701581 l 0.22344,-6.851663 c 0.2159,-8.788172 -0.92937,-6.512193 2.15006,-10.115278 l 4.53974,-5.232777 c 2.64599,0.601414 4.64381,0.617624 5.81305,-1.394766 2.57786,-4.435668 -3.31835,-8.477832 -6.51032,-5.201297 -2.0831,2.138076 -0.77103,3.921177 -0.17243,6.076168 -1.6297,0.76281 -2.54098,2.827353 -3.82721,3.959235 -1.12765,0.992334 -2.95868,2.664549 -3.07614,4.356967 -0.33125,4.764332 -0.18536,9.871893 -0.40948,14.738653 l -1.99101,-0.94018 0.61856,-24.991129 c 1.20307,-0.146125 0.51168,0.322086 1.54606,-0.368131 l 7.09012,-5.657762 c 0.94863,-0.765629 1.77722,-1.535721 2.89806,-2.126564 l 0.62397,2.372534 10.12256,2.223354 -0.042,8.471255 -9.92922,2.196103 c -1.36751,3.582881 -1.74245,5.671387 -3.66956,8.733198 l 5.09393,7.768117 -3.19313,3.537069 z m -57.03948,-32.024155 -3.94491,10.266336 -2.66079,-0.501101 0.0329,-9.1166 6.07453,-1.21904 m 15.01563,-3.348658 c 1.8329,-0.79476 2.91216,2.070887 0.0641,1.658354 z m -4.87639,-4.54256 c 2.22171,0.570874 4.76151,1.586701 6.92002,2.375353 1.62617,0.594132 5.47429,1.703225 6.51408,2.597125 l -3.076708,4.631218 c -1.21951,-0.239156 -1.309865,0.02834 -1.946755,-1.004875 -0.42968,-0.697031 -0.463749,-0.741902 -0.731329,-1.402753 1.75984,-3.644432 -1.405808,-5.488849 -3.589218,-3.775052 -0.8683,0.681525 -2.64458,5.134577 2.94575,4.242557 1.84982,3.668864 1.65248,2.118343 2.8821,3.182565 -0.43462,1.6062 -0.47573,1.281765 -2.51561,1.149501 l -1.64191,-3.53848 -3.06063,-0.04393 c -0.75271,-0.923736 -0.7809,-1.794143 -2.29313,-1.932985 -1.38561,-0.127096 -1.90292,0.639473 -2.56189,1.334624 -1.10604,2.381696 2.75829,5.341549 4.42674,2.021787 2.94693,-0.0014 2.47449,-0.428978 4.3175,3.573484 l 2.8734,0.04346 0.52694,4.192048 -7.01047,3.609428 -5.93545,-5.724481 c -0.67165,-0.699144 -1.38466,-1.214576 -2.15146,-1.79931 l 5.10826,-13.730579 z m 36.80869,9.643778 c 0.62632,-1.330865 9.48637,-8.641576 9.73681,-8.714874 0.55842,1.422252 0.43297,1.034621 -0.47691,1.7192 -2.0582,1.548643 -7.84493,6.513838 -9.2599,6.995674 z m -43.4992,-2.604877 c 1.23267,-2.150292 1.96024,-6.593948 3.85094,-8.126146 l 1.21974,0.544328 -7.72277,20.102285 -2.65257,-0.510733 c -0.64934,-0.219187 -0.51943,-0.235163 -0.74966,-0.372125 0.6975,-2.224295 1.62359,-4.3175 2.44443,-6.473195 2.0044,-5.264023 1.24629,-4.211078 3.60989,-5.164414 z m 26.30344,-4.756344 v 0 l -0.8986,0.133204 c -3.82462,0.182304 -12.07692,-4.193928 -17.41918,-5.504589 l 0.75177,-1.402519 c 3.12712,0.503449 14.66912,6.404833 17.56601,6.773904 z m 13.91405,-6.570455 c -0.81778,0.509793 -1.60197,0.171497 -1.92499,-0.408539 -0.682,-1.224678 0.47855,-1.701111 0.54198,-1.746687 1.71826,-1.240418 2.80762,1.267434 1.38301,2.155226 z m -26.91213,-6.302168 c 1.91584,-0.818488 3.95149,-2.283261 6.19951,-2.428916 l 12.62313,15.649702 c -2.47825,-0.490529 -4.17302,-0.656153 -6.43984,-1.563678 -3.21686,-1.288109 -15.38376,-5.888461 -16.68526,-6.879385 l 2.34481,-5.846174 1.95765,1.068216 z m -6.93388,6.698961 c -1.42179,-0.159046 -3.11773,-0.949813 -4.59425,-1.47934 -1.43024,-0.513081 -2.394852,-1.82163 -2.941762,-3.236833 l 8.06131,3.336675 z m 46.2072,-3.090943 c 2.6871,-2.714353 3.30802,-4.177482 4.9222,-3.527908 0.26195,1.280356 -3.41584,6.453696 -4.56675,8.128025 -1.45186,2.112704 -0.0237,1.288343 -1.12249,2.435495 l -9.08559,8.168902 -3.68061,-1.292571 13.53324,-13.912178 z M 25.091794,21.91723 c 1.69336,-0.105952 1.37879,1.109564 0.0846,1.00643 -0.0428,-0.07142 -0.10173,-0.181364 -0.11136,-0.223181 l 0.0266,-0.783249 z m -1.74622,-0.514256 c -0.59389,4.498863 4.26324,4.050387 4.47819,1.31489 0.0592,-0.752708 -0.14706,-0.978709 -0.15387,-1.354123 -0.0404,-2.193754 2.12656,-0.11488 3.1485,0.413238 -0.4224,1.820689 -1.55616,5.235831 -2.60206,6.578912 l -8.65051,-3.403631 3.3879,-3.483036 m 22.48961,-2.070652 c 3.22838,-1.114027 -0.0106,3.253982 -0.19592,0.473849 z m -20.80307,0.377058 1.30714,-1.089359 c 0.83963,0.631016 0.77479,0.27745 1.10392,0.858895 l -0.0512,0.34323 c -0.0733,0.04276 -0.16727,0.102898 -0.22436,0.119343 l -0.8105,0.163744 c -0.27768,0.02561 -0.81896,-0.0249 -1.34754,0.03453 m 26.79819,-2.015679 c -0.0461,-0.774791 -0.23375,-1.158428 0.58802,-1.091239 0.47479,0.03876 0.49969,0.552315 0.51308,0.842921 -0.50016,0.274865 0.82155,0.51637 -1.1011,0.248318 z m 11.10949,5.789086 c -5.64578,-0.115115 -8.28261,1.946845 -6.91251,7.973208 l -2.90229,1.835959 -4.20239,-5.187201 c -0.52013,-0.607758 -0.88309,-1.079493 -1.18169,-2.024841 1.17605,-0.519425 2.39321,-1.624525 3.40082,-2.522183 1.91137,-1.703225 1.91348,-0.350512 1.90972,-3.572309 0.19828,-0.97495 1.68255,-1.256628 1.61231,-2.910048 -0.11347,-2.677235 -4.49698,-3.154608 -4.60129,-0.02608 -0.0578,1.730241 0.81614,1.837603 1.71121,2.60981 0.11065,2.488119 -0.82248,2.334946 -2.08005,3.431353 -0.68834,0.600475 -0.85255,0.683169 -1.42906,1.176752 -1.06681,0.913399 -0.24856,0.669309 -1.74387,1.059759 l -1.01888,-1.752325 c 1.00972,-3.330099 1.1004,-1.031333 2.53017,-2.810674 1.08513,-1.350364 0.0529,-2.511611 -0.8004,-3.333858 -1.33744,-0.533285 -2.48765,0.73133 -2.94223,1.137755 0.0848,2.973008 -0.280978,0.831879 0.975422,2.789766 l -0.336422,1.517396 c -0.7957,-0.663435 -1.37973,-1.315829 -1.90291,-2.235101 l 2.19187,-9.789197 c 0.0747,-0.03688 0.17032,-0.08951 0.22624,-0.105952 0.0573,-0.01692 0.16492,-0.07447 0.23939,-0.09186 l 8.46914,-0.132499 2.05115,9.973145 c 2.65116,1.012773 4.49957,1.37973 6.80585,2.802921 m 1.14152,0.528587 c 1.08419,0.163275 3.07755,-1.557804 4.58273,-2.581384 1.44621,-0.983407 3.23425,-2.430796 4.76034,-2.959853 1.05929,1.336033 2.22359,1.986313 3.31859,3.659232 -0.9174,1.313011 -3.11679,3.277475 -4.41664,4.595419 -2.36854,2.40143 -12.54349,13.020158 -13.73927,13.630735 l -3.00896,-3.786329 c -0.18442,-0.240096 -0.43978,-0.542917 -0.57721,-0.736967 -0.37354,-0.526708 -0.0446,0.02772 -0.42052,-0.713241 l 2.70942,-1.791792 c 3.48585,1.494374 5.54429,2.103306 8.1541,-1.087245 0.96649,-1.181686 1.30079,-2.977473 0.81661,-4.740839 -0.49852,-1.815521 -1.20283,-2.236981 -2.16345,-3.141922 m 11.4102,9.192012 c 0.51308,-1.535252 4.48406,-7.08894 5.72048,-9.250979 l -8.00093,-7.83554 -8.68363,5.913832 -7.10303,-2.966196 -2.16509,-10.2430773 -11.27136,0.04699 c -1.74269,4.0405183 -0.84433,9.3839473 -3.20347,10.4683723 l -6.03318,2.35468 -8.91292,-5.754317 -8.11933,7.98284 c 0.55607,1.60526 1.92124,3.079196 2.8633,4.528934 0.68552,1.05506 2.3528,3.251163 2.77355,4.427681 -1.34801,2.506677 -1.88553,4.364015 -3.10034,7.034437 l -9.9487098,2.04293 0.2729898,11.658752 9.40344,1.896336 c 1.50518,3.777636 0.76657,2.753821 2.97325,7.423007 l -5.45643,8.543377 c 1.208,1.379495 6.81431,7.176569 8.12403,7.88793 l 8.15716,-5.180624 c 1.69194,0.604469 3.02516,1.778872 4.82165,2.09297 l 7.5938,-18.601332 c -1.19907,-0.826241 -2.13643,-0.953102 -3.08836,-1.826797 -8.40618,-7.714553 -1.82468,-18.472593 6.66584,-18.210413 8.18534,0.252782 12.70629,9.668445 7.94924,16.248532 -1.81246,2.506913 -3.61953,2.891489 -5.24029,3.853283 l 7.78785,18.614018 4.50779,-2.066423 8.48347,5.316412 7.59991,-8.241261 -5.31454,-8.140476 c 0.46868,-1.156079 1.13235,-2.282321 1.66541,-3.554454 0.51402,-1.226792 0.83117,-2.508792 1.36492,-3.827206 l 10.07605,-2.300411 c 0.82507,-2.267991 0.17526,-7.905314 0.14918,-10.78858 -2.30746,-0.833523 -7.71808,-1.907847 -10.39649,-2.33659 -0.63618,-2.913572 -1.80824,-4.806384 -2.91498,-7.211103 z"
         id="path3718-1" />
      <path
         style="fill:#000000;stroke:#000000;stroke-width:0.2;stroke-linecap:butt;stroke-linejoin:miter;stroke-opacity:1;stroke-miterlimit:4;stroke-dasharray:none;fill-opacity:1"
         d="m 22.953724,21.469224 0.39185,-0.06625"
         id="path4128" />
      <path
         style="fill:#000000;stroke:#000000;stroke-width:0.2;stroke-linecap:butt;stroke-linejoin:miter;stroke-opacity:1;stroke-miterlimit:4;stroke-dasharray:none;fill-opacity:1"
         d="m 24.640264,19.77563 -0.02254,0.430383"
         id="path4935" />
      <path
         style="fill:#000000;stroke:#000000;stroke-width:0.2;stroke-linecap:butt;stroke-linejoin:miter;stroke-opacity:1;stroke-miterlimit:4;stroke-dasharray:none;fill-opacity:1"
         d="m 17.677014,42.651939 0.49827,0.570405"
         id="path4937" />
      <path
         style="fill:#000000;stroke:#000000;stroke-width:0.2;stroke-linecap:butt;stroke-linejoin:miter;stroke-opacity:1;stroke-miterlimit:4;stroke-dasharray:none;fill-opacity:1"
         d="m 62.594705,23.793116 -0.0693,0.186304"
         id="path4939" />
      <path
         style="fill:#000000;stroke:#000000;stroke-width:0.2;stroke-linecap:butt;stroke-linejoin:miter;stroke-opacity:1;stroke-miterlimit:4;stroke-dasharray:none;fill-opacity:1"
         d="m 63.736223,24.321703 0.01574,0.345814"
         id="path4941" />
    </g>
  </g>
</svg>
