<?xml version="1.0" encoding="UTF-8" standalone="no"?>
<!-- Created with Inkscape (http://www.inkscape.org/) -->

<svg
   xmlns:dc="http://purl.org/dc/elements/1.1/"
   xmlns:cc="http://creativecommons.org/ns#"
   xmlns:rdf="http://www.w3.org/1999/02/22-rdf-syntax-ns#"
   xmlns:svg="http://www.w3.org/2000/svg"
   xmlns="http://www.w3.org/2000/svg"
   xmlns:sodipodi="http://sodipodi.sourceforge.net/DTD/sodipodi-0.dtd"
   xmlns:inkscape="http://www.inkscape.org/namespaces/inkscape"
   width="45.001209mm"
   height="44.999397mm"
   viewBox="0 0 45.001209 44.999397"
   version="1.1"
   id="svg8"
   inkscape:version="0.92.4 (5da689c313, 2019-01-14)"
   sodipodi:docname="RaspiLogo.svg">
  <defs
     id="defs2" />
  <sodipodi:namedview
     id="base"
     pagecolor="#ffffff"
     bordercolor="#666666"
     borderopacity="1.0"
     inkscape:pageopacity="0.0"
     inkscape:pageshadow="2"
     inkscape:zoom="2"
     inkscape:cx="-11.667634"
     inkscape:cy="110.44206"
     inkscape:document-units="mm"
     inkscape:current-layer="g4702"
     showgrid="false"
     fit-margin-top="0"
     fit-margin-left="0"
     fit-margin-right="0"
     fit-margin-bottom="0"
     inkscape:window-width="1600"
     inkscape:window-height="837"
     inkscape:window-x="1912"
     inkscape:window-y="163"
     inkscape:window-maximized="1" />
  <metadata
     id="metadata5">
    <rdf:RDF>
      <cc:Work
         rdf:about="">
        <dc:format>image/svg+xml</dc:format>
        <dc:type
           rdf:resource="http://purl.org/dc/dcmitype/StillImage" />
        <dc:title></dc:title>
      </cc:Work>
    </rdf:RDF>
  </metadata>
  <g
     inkscape:label="Layer 1"
     inkscape:groupmode="layer"
     id="layer1"
     transform="translate(-37.9809,-6.9801064)">
    <g
       id="g4702">
      <rect
         style="fill:#e10731;fill-opacity:1;fill-rule:evenodd;stroke:none;stroke-width:0.126;stroke-linejoin:round;stroke-miterlimit:4;stroke-dasharray:none;stroke-opacity:1"
         id="rect5002"
         width="45"
         height="3.75"
         x="37.9809"
         y="10.750874" />
      <rect
         style="fill:#a03c7d;fill-opacity:1;fill-rule:evenodd;stroke:none;stroke-width:0.126;stroke-linejoin:round;stroke-miterlimit:4;stroke-dasharray:none;stroke-opacity:1"
         id="rect4997"
         width="45"
         height="3.75"
         x="37.982109"
         y="44.58403" />
      <rect
         y="6.9801064"
         x="37.982033"
         height="7.5207672"
         width="44.998867"
         id="rect920"
         style="fill:#e10731;fill-opacity:1;fill-rule:evenodd;stroke:none;stroke-width:0.12617275;stroke-linejoin:round;stroke-miterlimit:4;stroke-dasharray:none;stroke-opacity:1"
         ry="3.7603836" />
      <rect
         y="14.500875"
         x="37.982033"
         height="7.5207672"
         width="44.998867"
         id="rect922"
         style="fill:#f08c41;fill-opacity:1;fill-rule:evenodd;stroke:none;stroke-width:0.12617275;stroke-linejoin:round;stroke-miterlimit:4;stroke-dasharray:none;stroke-opacity:1" />
      <rect
         y="22.021641"
         x="37.982033"
         height="7.5207672"
         width="44.998867"
         id="rect924"
         style="fill:#f4dd52;fill-opacity:1;fill-rule:evenodd;stroke:none;stroke-width:0.12617275;stroke-linejoin:round;stroke-miterlimit:4;stroke-dasharray:none;stroke-opacity:1" />
      <rect
         y="29.54241"
         x="37.982033"
         height="7.5207672"
         width="44.998867"
         id="rect926"
         style="fill:#128e59;fill-opacity:1;fill-rule:evenodd;stroke:none;stroke-width:0.12617275;stroke-linejoin:round;stroke-miterlimit:4;stroke-dasharray:none;stroke-opacity:1" />
      <rect
         y="37.063175"
         x="37.982033"
         height="7.5207672"
         width="44.998867"
         id="rect928"
         style="fill:#2d96d2;fill-opacity:1;fill-rule:evenodd;stroke:none;stroke-width:0.12617275;stroke-linejoin:round;stroke-miterlimit:4;stroke-dasharray:none;stroke-opacity:1" />
      <rect
         y="44.58403"
         x="37.982109"
         height="7.3954744"
         width="44.999924"
         id="rect930"
         style="fill:#a03c7d;fill-opacity:1;fill-rule:evenodd;stroke:none;stroke-width:0.12511881;stroke-linejoin:round;stroke-miterlimit:4;stroke-dasharray:none;stroke-opacity:1"
         ry="3.6977372" />
      <path
         style="fill:#73a626;stroke-width:0.17020562"
         d="m 58.868558,47.301707 c -0.951127,-0.314868 -1.689282,-0.718942 -2.338022,-1.279832 -0.305513,-0.264138 -1.129919,-0.78517 -1.832014,-1.157857 -4.150346,-2.20308 -5.405943,-3.386411 -6.020912,-5.674368 -0.448282,-1.667804 -1.102672,-3.403672 -1.44921,-3.844215 -0.523587,-0.665641 -0.930512,-2.093381 -0.917541,-3.219318 0.01714,-1.491881 0.563913,-2.779914 1.653807,-3.896247 0.81942,-0.839301 0.915641,-1.01897 1.027795,-1.918989 0.243676,-1.955452 1.219878,-3.655664 2.582507,-4.497815 0.591792,-0.365745 0.603361,-0.390221 0.246801,-0.522121 -0.769219,-0.284553 -2.910241,-2.546952 -2.910241,-3.075228 0,-0.136956 -0.15319,-0.387641 -0.340414,-0.557078 -0.187224,-0.169439 -0.340413,-0.453186 -0.340413,-0.630551 0,-0.177368 -0.110985,-0.537104 -0.246627,-0.799417 -0.135651,-0.262312 -0.253618,-0.622323 -0.262149,-0.800024 -0.104275,-2.171773 -0.08423,-2.520775 0.161652,-2.815093 0.144114,-0.172488 0.415212,-0.337133 0.602436,-0.365878 0.187224,-0.02875 0.502825,-0.141642 0.701326,-0.250885 0.198501,-0.109243 0.677205,-0.277831 1.063777,-0.374641 0.386582,-0.09681 1.028399,-0.259289 1.426247,-0.361066 1.625722,-0.415884 5.005553,-0.102761 5.940924,0.550395 0.248487,0.173512 0.558459,0.315477 0.688842,0.315477 0.391548,0 1.449639,1.216057 1.891328,2.173715 l 0.4138,0.897173 0.446724,-0.913083 c 0.502806,-1.027692 1.514581,-2.157805 1.931858,-2.157805 0.151943,0 0.414127,-0.124772 0.582634,-0.27727 0.7173,-0.649137 4.331183,-1.004907 6.018038,-0.592446 1.90714,0.466319 2.227625,0.565733 2.465469,0.764759 0.141811,0.118662 0.436281,0.224817 0.654382,0.235902 0.594445,0.03021 0.905112,0.375094 0.866908,0.962391 -0.01864,0.28799 0.02311,0.657825 0.09303,0.821858 0.06992,0.164032 0.06691,0.508698 -0.0068,0.765926 -0.07342,0.257226 -0.15462,0.65164 -0.180345,0.876476 -0.02573,0.224835 -0.12705,0.489078 -0.22518,0.587209 -0.09814,0.09813 -0.178422,0.344252 -0.178422,0.546937 0,0.202685 -0.153183,0.563262 -0.340412,0.801282 -0.18723,0.238019 -0.340413,0.540389 -0.340413,0.671932 0,0.131543 -0.229774,0.45931 -0.510609,0.728371 -0.280844,0.269062 -0.510618,0.583515 -0.510618,0.698786 0,0.11527 -0.260471,0.370563 -0.57883,0.567319 -0.318358,0.196756 -0.619373,0.463367 -0.668909,0.592469 -0.04953,0.129102 -0.365768,0.325719 -0.702733,0.436926 l -0.612653,0.202194 0.745957,0.569587 c 1.227122,0.936967 1.994667,2.371244 2.253021,4.210082 0.09478,0.67417 0.261451,0.959638 0.997017,1.707059 2.042242,2.075134 2.360027,4.663441 0.871842,7.100918 -0.352891,0.577992 -0.648496,1.360612 -0.771458,2.042468 -0.675261,3.744554 -1.550375,5.1398 -3.86005,6.154318 -0.452109,0.198585 -1.146831,0.583135 -1.543839,0.854561 -0.397009,0.27142 -1.102694,0.669942 -1.568185,0.885607 -0.465491,0.215666 -1.096488,0.636684 -1.402232,0.935605 -0.939878,0.918905 -2.206745,1.432224 -3.688101,1.494372 -0.772044,0.03242 -1.576681,-0.03699 -1.980967,-0.170847 z"
         id="path949"
         inkscape:connector-curvature="0" />
      <path
         style="fill:#b80f40;stroke-width:0.17526941"
         d="m 59.235241,48.095123 c -0.93467,-0.234257 -2.055736,-0.824752 -2.670139,-1.406437 -0.289191,-0.273791 -0.959599,-0.6929 -1.489788,-0.931358 -0.530189,-0.238457 -1.59496,-0.828335 -2.366136,-1.31084 -3.461994,-2.166071 -3.489279,-2.202314 -4.809708,-6.388008 -0.297876,-0.944271 -0.734455,-2.009032 -0.970168,-2.366137 -1.538353,-2.330638 -1.255249,-5.082775 0.745114,-7.243404 0.916008,-0.989403 0.991478,-1.137163 1.118139,-2.189207 0.07471,-0.620504 0.289351,-1.475269 0.476991,-1.899475 0.403047,-0.911155 1.625545,-2.2887 2.375062,-2.676292 l 0.531051,-0.274613 -0.434323,-0.159277 c -0.238872,-0.0876 -0.592061,-0.314579 -0.784865,-0.50439 -0.192794,-0.189811 -0.567423,-0.506893 -0.832527,-0.704625 -0.265095,-0.197732 -0.481986,-0.457263 -0.481986,-0.576735 0,-0.119472 -0.236615,-0.392158 -0.525807,-0.605969 -0.289191,-0.21381 -0.525807,-0.5182 -0.525807,-0.67642 0,-0.158221 -0.12278,-0.423336 -0.272836,-0.589147 -0.150056,-0.16581 -0.294265,-0.502557 -0.320468,-0.748326 -0.02617,-0.24577 -0.130702,-0.550109 -0.232203,-0.676309 -0.196575,-0.244376 -0.416645,-1.34447 -0.414058,-2.069786 6.62e-4,-0.240995 10e-4,-0.702514 4.42e-4,-1.025598 -0.001,-0.743147 0.27437,-1.077634 0.888582,-1.077634 0.265586,0 0.58107,-0.118308 0.701083,-0.262904 0.124234,-0.1497 0.506373,-0.262905 0.887459,-0.262905 0.3681,0 0.718019,-0.07887 0.777594,-0.175269 0.05957,-0.0964 0.33562,-0.175269 0.61344,-0.175269 0.27782,0 0.553755,-0.07868 0.613189,-0.174847 0.235272,-0.380692 4.817028,0.03033 5.52125,0.495307 0.240998,0.159122 0.671942,0.369009 0.957654,0.466417 0.612607,0.208857 1.747071,1.637879 2.072783,2.610988 l 0.228002,0.68119 0.565246,-1.148186 c 0.565628,-1.14895 1.564666,-2.229792 2.061041,-2.229792 0.145143,0 0.489613,-0.166882 0.765503,-0.370848 0.27587,-0.203966 0.60788,-0.332932 0.73779,-0.286587 0.12991,0.04635 0.37188,0.01452 0.53773,-0.07072 0.47966,-0.246529 4.10876,-0.385594 4.2465,-0.162723 0.0645,0.104387 0.34459,0.189795 0.62241,0.189795 0.27782,0 0.55387,0.07887 0.61344,0.175269 0.0596,0.0964 0.40951,0.175269 0.7776,0.175269 0.38109,0 0.76322,0.113205 0.88747,0.262905 0.12,0.144596 0.38599,0.264111 0.59109,0.265588 0.65794,0.0047 0.88962,0.292234 0.94438,1.171931 0.0288,0.462541 0.0573,0.919854 0.0634,1.016252 0.0263,0.416491 -0.34935,1.887765 -0.52751,2.065933 -0.10727,0.107273 -0.19504,0.330531 -0.19504,0.496126 0,0.483864 -0.862,2.062565 -1.23526,2.262334 -0.18819,0.100715 -0.34217,0.292926 -0.34217,0.427135 0,0.134209 -0.21689,0.408627 -0.48199,0.609819 -0.2651,0.201191 -0.70025,0.561837 -0.96701,0.801434 -0.26676,0.239596 -0.6414,0.43563 -0.83253,0.43563 -0.53101,0 -0.42566,0.190489 0.60545,1.094729 1.12842,0.989576 1.78686,2.23265 1.99488,3.766147 0.13671,1.007803 0.22539,1.173492 1.14278,2.135278 0.54701,0.573483 1.16223,1.422632 1.36717,1.886998 0.71878,1.628717 0.39793,4.344385 -0.65011,5.502455 -0.32585,0.360054 -0.95175,2.50767 -0.95175,3.265654 0,1.757983 -1.5064,3.831287 -3.531,4.859838 -0.68682,0.348924 -1.45497,0.779792 -1.70701,0.95749 -0.25203,0.177706 -0.89204,0.540607 -1.42223,0.806463 -0.53019,0.265855 -1.27,0.75825 -1.64402,1.094224 -1.366959,1.22787 -3.742031,1.860298 -5.413292,1.441433 z m -3.592946,-27.27446 c 1.577993,-0.442765 2.654436,-1.714424 2.058785,-2.432149 -0.435587,-0.524838 -2.765654,-2.172867 -4.3414,-3.070607 -0.88797,-0.505896 -1.614494,-0.94229 -1.614494,-0.969762 0,-0.07992 2.108312,0.799033 3.066909,1.278599 0.482166,0.241217 1.519821,0.863595 2.305909,1.383064 0.786089,0.519468 1.508631,0.944488 1.60567,0.944488 0.09707,0 0.380594,-0.242666 0.630166,-0.539256 0.565397,-0.671949 0.597195,-1.668268 0.08905,-2.790863 -0.458982,-1.013954 -1.223631,-1.839966 -1.420075,-1.53404 -0.101431,0.157945 -0.267752,0.05974 -0.592943,-0.350107 -0.486438,-0.613064 -0.777114,-0.727789 -0.777114,-0.306721 0,0.358708 -0.07992,0.334778 -0.648226,-0.193983 -0.478456,-0.445197 -0.492455,-0.447448 -0.546986,-0.08797 -0.05525,0.364366 -0.06297,0.363517 -0.629975,-0.06892 -0.659207,-0.502798 -0.834814,-0.54719 -0.691958,-0.174926 0.127253,0.331621 -0.07992,0.331621 -0.87357,0 -0.792797,-0.331253 -0.914725,-0.330441 -0.636965,0.0042 0.307351,0.37034 0.133349,0.477299 -0.428789,0.263573 -0.648677,-0.246626 -0.8084,-0.226519 -0.688227,0.08664 0.08754,0.228153 -0.04653,0.249406 -0.925665,0.146674 -0.945359,-0.110478 -1.008695,-0.0967 -0.787502,0.171358 0.218816,0.265168 0.159683,0.291499 -0.654684,0.291499 H 48.24498 l 0.347303,0.569626 c 0.439668,0.721098 0.435747,0.795313 -0.04573,0.86625 -0.376473,0.05546 -0.366746,0.08384 0.214324,0.625634 l 0.608686,0.567531 h -0.511607 -0.511618 l 0.560182,0.57797 c 0.624411,0.644229 0.715102,0.914855 0.253473,0.756418 -0.168698,-0.0579 -0.006,0.163476 0.362264,0.491947 0.555549,0.495949 0.614984,0.608878 0.350541,0.665981 -0.240486,0.05192 -0.106234,0.205806 0.5484,0.628551 0.497438,0.32124 0.735778,0.559791 0.559279,0.559791 -0.502452,0 -0.149253,0.325187 0.595571,0.548344 0.537268,0.160967 0.650141,0.258468 0.503635,0.435002 -0.149053,0.179599 -5.21e-4,0.252508 0.704783,0.346076 0.729682,0.0968 0.857075,0.162573 0.694434,0.358542 -0.286965,0.345775 0.849023,0.320317 2.163415,-0.04848 z m 12.271502,0.172404 c -0.4508,-0.181901 -0.1914,-0.368243 0.67208,-0.482787 0.74136,-0.09834 0.85662,-0.159854 0.6856,-0.365898 -0.16695,-0.201171 -0.11213,-0.270046 0.29191,-0.366782 0.2736,-0.06551 0.65344,-0.199448 0.84409,-0.297649 0.34533,-0.177878 0.34533,-0.179008 0,-0.300252 -0.29894,-0.104956 -0.24577,-0.173178 0.38638,-0.495779 0.83685,-0.427076 1.09897,-0.728728 0.63567,-0.731567 -0.23857,-0.0015 -0.1716,-0.116567 0.27055,-0.464957 0.49949,-0.393573 0.54521,-0.486744 0.30486,-0.621249 -0.24311,-0.136053 -0.20877,-0.220485 0.24492,-0.602241 0.62546,-0.526294 0.6698,-0.763382 0.14274,-0.763382 -0.35644,0 -0.34093,-0.04538 0.20966,-0.613443 0.55059,-0.568065 0.5661,-0.613442 0.20964,-0.613442 -0.44655,0 -0.46434,-0.102219 -0.122,-0.701079 0.37293,-0.652374 0.3349,-0.701078 -0.54728,-0.701078 -0.73505,0 -0.78786,-0.02702 -0.56962,-0.291499 0.22119,-0.268053 0.15785,-0.281836 -0.78751,-0.171358 -0.90742,0.106045 -1.01515,0.08655 -0.91818,-0.166172 0.11109,-0.289495 -0.0965,-0.282369 -1.17983,0.04049 -0.2783,0.08294 -0.2954,0.04662 -0.12663,-0.268725 0.18227,-0.340573 0.16514,-0.353217 -0.25966,-0.191706 -0.25015,0.0951 -0.61878,0.260669 -0.81918,0.367926 -0.3234,0.173075 -0.35349,0.153342 -0.26753,-0.175417 0.12459,-0.476396 0.0257,-0.466373 -0.67551,0.06844 -0.54629,0.416674 -0.95323,0.346348 -0.66785,-0.115415 0.16228,-0.262582 -0.23564,-0.03904 -0.74471,0.418355 -0.34718,0.311936 -0.39057,0.315655 -0.54127,0.04638 -0.14303,-0.255563 -0.22493,-0.220134 -0.64487,0.278931 -0.36976,0.439447 -0.515136,0.516511 -0.62844,0.333173 -0.22406,-0.362542 -0.597826,0.02755 -1.220682,1.274009 -0.687435,1.375683 -0.723274,2.500246 -0.10106,3.171626 0.236395,0.255072 0.53764,0.463767 0.669425,0.463767 0.131795,0 0.667931,-0.32217 1.191437,-0.715932 1.00121,-0.753085 5.18892,-2.904876 5.34655,-2.747247 0.0505,0.05054 -0.48781,0.410067 -1.19636,0.798936 -1.32926,0.729547 -3.84846,2.528588 -4.37128,3.121676 -0.273155,0.309879 -0.274679,0.381599 -0.0192,0.909052 0.34691,0.716289 0.95041,1.152158 2.0713,1.495994 0.77822,0.238717 2.77805,0.396681 2.23187,0.176292 z"
         id="path947"
         inkscape:connector-curvature="0" />
      <path
         style="fill:#0f0504;stroke-width:0.17526941"
         d="m 59.235241,48.095123 c -0.93467,-0.234257 -2.055736,-0.824752 -2.670139,-1.406437 -0.289191,-0.273791 -0.959599,-0.6929 -1.489788,-0.931358 -0.530189,-0.238457 -1.59496,-0.828335 -2.366136,-1.31084 -3.461994,-2.166071 -3.489279,-2.202314 -4.809708,-6.388008 -0.297876,-0.944271 -0.734455,-2.009032 -0.970168,-2.366137 -1.538353,-2.330638 -1.255249,-5.082775 0.745114,-7.243404 0.916008,-0.989403 0.991478,-1.137163 1.118139,-2.189207 0.07471,-0.620504 0.289351,-1.475269 0.476991,-1.899475 0.403047,-0.911155 1.625545,-2.2887 2.375062,-2.676292 l 0.531051,-0.274613 -0.434323,-0.159277 c -0.238872,-0.0876 -0.592061,-0.314579 -0.784865,-0.50439 -0.192794,-0.189811 -0.567423,-0.506893 -0.832527,-0.704625 -0.265095,-0.197732 -0.481986,-0.457263 -0.481986,-0.576735 0,-0.119472 -0.236615,-0.392158 -0.525807,-0.605969 -0.289191,-0.21381 -0.525807,-0.5182 -0.525807,-0.67642 0,-0.158221 -0.12278,-0.423336 -0.272836,-0.589147 -0.150056,-0.16581 -0.294265,-0.502557 -0.320468,-0.748326 -0.02617,-0.24577 -0.130702,-0.550109 -0.232203,-0.676309 -0.196575,-0.244376 -0.416645,-1.34447 -0.414058,-2.069786 6.62e-4,-0.240995 10e-4,-0.702514 4.42e-4,-1.025598 -0.001,-0.743147 0.27437,-1.077634 0.888582,-1.077634 0.265586,0 0.58107,-0.118308 0.701083,-0.262904 0.124234,-0.1497 0.506373,-0.262905 0.887459,-0.262905 0.3681,0 0.718019,-0.07887 0.777594,-0.175269 0.05957,-0.0964 0.33562,-0.175269 0.61344,-0.175269 0.27782,0 0.553755,-0.07868 0.613189,-0.174847 0.235272,-0.380692 4.817028,0.03033 5.52125,0.495307 0.240998,0.159122 0.671942,0.369009 0.957654,0.466417 0.612607,0.208857 1.747071,1.637879 2.072783,2.610988 l 0.228002,0.68119 0.565246,-1.148186 c 0.565628,-1.14895 1.564666,-2.229792 2.061041,-2.229792 0.145143,0 0.489613,-0.166882 0.765503,-0.370848 0.27587,-0.203966 0.60788,-0.332932 0.73779,-0.286587 0.12991,0.04635 0.37188,0.01452 0.53773,-0.07072 0.47966,-0.246529 4.10876,-0.385594 4.2465,-0.162723 0.0645,0.104387 0.34459,0.189795 0.62241,0.189795 0.27782,0 0.55387,0.07887 0.61344,0.175269 0.0596,0.0964 0.40951,0.175269 0.7776,0.175269 0.38109,0 0.76322,0.113205 0.88747,0.262905 0.12,0.144596 0.38599,0.264111 0.59109,0.265588 0.65794,0.0047 0.88962,0.292234 0.94438,1.171931 0.0288,0.462541 0.0573,0.919854 0.0634,1.016252 0.0263,0.416491 -0.34935,1.887765 -0.52751,2.065933 -0.10727,0.107273 -0.19504,0.330531 -0.19504,0.496126 0,0.483864 -0.862,2.062565 -1.23526,2.262334 -0.18819,0.100715 -0.34217,0.292926 -0.34217,0.427135 0,0.134209 -0.21689,0.408627 -0.48199,0.609819 -0.2651,0.201191 -0.70025,0.561837 -0.96701,0.801434 -0.26676,0.239596 -0.6414,0.43563 -0.83253,0.43563 -0.53101,0 -0.42566,0.190489 0.60545,1.094729 1.12842,0.989576 1.78686,2.23265 1.99488,3.766147 0.13671,1.007803 0.22539,1.173492 1.14278,2.135278 0.54701,0.573483 1.16223,1.422632 1.36717,1.886998 0.71878,1.628717 0.39793,4.344385 -0.65011,5.502455 -0.32585,0.360054 -0.95175,2.50767 -0.95175,3.265654 0,1.757983 -1.5064,3.831287 -3.531,4.859838 -0.68682,0.348924 -1.45497,0.779792 -1.70701,0.95749 -0.25203,0.177706 -0.89204,0.540607 -1.42223,0.806463 -0.53019,0.265855 -1.27,0.75825 -1.64402,1.094224 -1.366959,1.22787 -3.742031,1.860298 -5.413292,1.441433 z m 3.716228,-1.670497 c 1.130148,-0.615104 1.845488,-1.479523 1.700938,-2.055444 -0.40168,-1.600398 -6.664221,-1.64596 -7.982053,-0.05803 -0.322253,0.388294 -0.09456,0.892063 0.717448,1.587077 1.012265,0.866466 1.913583,1.155353 3.395539,1.088328 0.963831,-0.04359 1.444894,-0.168259 2.168128,-0.561898 z m -7.814454,-3.364802 c 0.08213,-0.04664 0.264844,-0.361232 0.406005,-0.699087 1.139588,-2.727416 -3.73166,-7.837953 -5.646125,-5.923486 -0.835195,0.83519 -0.608366,3.190823 0.457517,4.751525 1.034327,1.514493 3.625386,2.528165 4.782603,1.871048 z m 13.265502,-0.06472 c 2.35462,-0.705461 3.98292,-3.673976 3.33344,-6.077135 -0.26957,-0.9975 -0.73024,-1.436727 -1.50682,-1.436727 -2.80295,0 -6.18713,5.636573 -4.43572,7.387979 0.37742,0.377423 1.57644,0.435273 2.6091,0.125883 z M 62.1109,41.587529 c 0.871234,-0.261027 1.994737,-1.223929 2.435007,-2.086939 0.45717,-0.896126 0.45913,-2.406451 0.004,-3.298029 -0.76122,-1.492105 -2.653713,-2.450191 -4.372817,-2.213753 -1.169872,0.160896 -2.546426,0.992181 -3.130334,1.890372 -0.419151,0.644742 -0.481925,0.916021 -0.481925,2.082404 0,1.224397 0.04783,1.407406 0.549933,2.103233 1.064761,1.475626 3.091347,2.093321 4.995864,1.522712 z M 49.205038,35.416293 c 1.168457,-1.783303 1.520242,-6.500368 0.513573,-6.886662 -0.368893,-0.141559 -1.400321,0.708219 -1.903184,1.568011 -0.953893,1.63095 -0.925866,3.340834 0.08082,4.928177 0.572165,0.902225 0.907866,1.002378 1.308807,0.390474 z m 23.627399,-0.278674 c 1.07078,-1.272541 1.28047,-3.327561 0.49639,-4.864505 -0.37691,-0.738779 -1.67152,-1.977922 -2.06647,-1.977922 -0.94723,0 -0.75367,4.617852 0.27836,6.640786 0.43666,0.855936 0.70582,0.897949 1.29172,0.201641 z m -15.57646,-0.955654 c 1.477233,-0.865717 2.387395,-2.368222 2.504269,-4.13408 0.06568,-0.992222 0.01143,-1.263661 -0.420615,-2.103233 -0.65666,-1.276164 -1.614434,-1.836897 -3.12507,-1.829581 -3.74229,0.01812 -6.045773,5.1833 -3.429423,7.689922 1.110237,1.063676 3.023759,1.225018 4.470839,0.376972 z m 10.03252,0.190504 c 1.30197,-0.480277 2.14839,-1.814821 2.15506,-3.397845 0.0111,-2.640046 -2.18486,-5.015845 -4.64792,-5.028508 -1.05389,-0.0054 -1.827131,0.397215 -2.600574,1.35414 -0.474114,0.58658 -0.549743,0.830848 -0.606731,1.959369 -0.05595,1.107927 5.21e-4,1.432657 0.401723,2.308941 0.256761,0.560831 0.639733,1.205096 0.851058,1.4317 1.277974,1.370364 3.006554,1.903705 4.447384,1.372203 z m 3.65101,-7.982147 c -0.26165,-1.786263 -1.12707,-3.065464 -2.57304,-3.803343 -1.35678,-0.692349 -3.47607,-0.793168 -3.47607,-0.165361 0,0.664267 3.90754,4.132444 5.34398,4.743105 0.71905,0.305683 0.84335,0.169186 0.70513,-0.774401 z m -19.73553,0.384525 c 1.777896,-1.036362 4.747685,-3.757199 4.747685,-4.349695 0,-0.490444 -1.50515,-0.577187 -2.754372,-0.158736 -1.667119,0.558432 -2.839679,1.903907 -3.208812,3.682 -0.297875,1.434844 -0.08112,1.582236 1.215499,0.826431 z m 12.010049,-1.554073 c 1.453421,-0.723448 1.662891,-1.737065 0.570901,-2.762568 -1.35368,-1.271262 -3.624572,-1.577305 -5.344438,-0.720259 -2.16177,1.077257 -2.155764,2.710393 0.01314,3.568007 1.21247,0.479429 3.716108,0.43463 4.760412,-0.08518 z m -7.571731,-4.400111 c 1.577993,-0.442764 2.654436,-1.714423 2.058785,-2.432148 -0.435587,-0.524838 -2.765654,-2.172867 -4.3414,-3.070607 -0.88797,-0.505896 -1.614494,-0.94229 -1.614494,-0.969762 0,-0.07992 2.108312,0.799033 3.066909,1.278599 0.482166,0.241217 1.519821,0.863595 2.305909,1.383064 0.786089,0.519467 1.508631,0.944487 1.60567,0.944487 0.09707,0 0.380594,-0.242666 0.630166,-0.539255 0.565397,-0.671949 0.597195,-1.668268 0.08905,-2.790864 -0.458982,-1.013952 -1.223631,-1.839965 -1.420075,-1.53404 -0.101431,0.157945 -0.267752,0.05974 -0.592943,-0.350106 -0.486438,-0.613064 -0.777114,-0.727789 -0.777114,-0.306722 0,0.358709 -0.07992,0.334778 -0.648226,-0.193983 -0.478456,-0.445196 -0.492455,-0.447447 -0.546986,-0.08797 -0.05525,0.364366 -0.06297,0.363516 -0.629975,-0.06892 -0.659207,-0.502798 -0.834814,-0.54719 -0.691958,-0.174927 0.127253,0.331621 -0.07992,0.331621 -0.87357,0 -0.792797,-0.331252 -0.914725,-0.330441 -0.636965,0.0042 0.307351,0.37034 0.133349,0.477299 -0.428789,0.263572 -0.648677,-0.246625 -0.8084,-0.226518 -0.688227,0.08664 0.08754,0.228153 -0.04653,0.249405 -0.925665,0.146673 -0.945359,-0.110477 -1.008695,-0.0967 -0.787502,0.171359 0.218816,0.265168 0.159683,0.291498 -0.654684,0.291498 H 48.24498 l 0.347303,0.569627 c 0.439668,0.721098 0.435747,0.795313 -0.04573,0.86625 -0.376473,0.05546 -0.366746,0.08384 0.214324,0.625633 l 0.608686,0.567531 h -0.511607 -0.511618 l 0.560182,0.57797 c 0.624411,0.64423 0.715102,0.914856 0.253473,0.756418 -0.168698,-0.0579 -0.006,0.163477 0.362264,0.491947 0.555549,0.495949 0.614984,0.608879 0.350541,0.665982 -0.240486,0.05192 -0.106234,0.205806 0.5484,0.628551 0.497438,0.32124 0.735778,0.559791 0.559279,0.559791 -0.502452,0 -0.149253,0.325187 0.595571,0.548344 0.537268,0.160967 0.650141,0.258468 0.503635,0.435002 -0.149053,0.179599 -5.21e-4,0.252507 0.704783,0.346076 0.729682,0.0968 0.857075,0.162572 0.694434,0.358542 -0.286965,0.345774 0.849023,0.320317 2.163415,-0.04848 z m 12.271502,0.172404 c -0.4508,-0.181901 -0.1914,-0.368243 0.67208,-0.482787 0.74136,-0.09834 0.85662,-0.159853 0.6856,-0.365897 -0.16695,-0.201171 -0.11213,-0.270046 0.29191,-0.366782 0.2736,-0.06551 0.65344,-0.199448 0.84409,-0.29765 0.34533,-0.177878 0.34533,-0.179007 0,-0.300252 -0.29894,-0.104956 -0.24577,-0.173177 0.38638,-0.495779 0.83685,-0.427076 1.09897,-0.728728 0.63567,-0.731567 -0.23857,-0.0015 -0.1716,-0.116566 0.27055,-0.464957 0.49949,-0.393572 0.54521,-0.486743 0.30486,-0.621248 -0.24311,-0.136053 -0.20877,-0.220485 0.24492,-0.602241 0.62546,-0.526295 0.6698,-0.763382 0.14274,-0.763382 -0.35644,0 -0.34093,-0.04538 0.20966,-0.613443 0.55059,-0.568066 0.5661,-0.613443 0.20964,-0.613443 -0.44655,0 -0.46434,-0.102219 -0.122,-0.701078 0.37293,-0.652374 0.3349,-0.701078 -0.54728,-0.701078 -0.73505,0 -0.78786,-0.02702 -0.56962,-0.291499 0.22119,-0.268053 0.15785,-0.281836 -0.78751,-0.171359 -0.90742,0.106046 -1.01515,0.08655 -0.91818,-0.166171 0.11109,-0.289496 -0.0965,-0.282369 -1.17983,0.04049 -0.2783,0.08294 -0.2954,0.04662 -0.12663,-0.268725 0.18227,-0.340574 0.16514,-0.353218 -0.25966,-0.191707 -0.25015,0.0951 -0.61878,0.26067 -0.81918,0.367926 -0.3234,0.173075 -0.35349,0.153342 -0.26753,-0.175417 0.12459,-0.476395 0.0257,-0.466372 -0.67551,0.06844 -0.54629,0.416675 -0.95323,0.346349 -0.66785,-0.115415 0.16228,-0.262582 -0.23564,-0.03904 -0.74471,0.418355 -0.34718,0.311937 -0.39057,0.315656 -0.54127,0.04638 -0.14303,-0.255564 -0.22493,-0.220135 -0.64487,0.278931 -0.36976,0.439446 -0.515136,0.516511 -0.62844,0.333172 -0.22406,-0.362541 -0.597826,0.02755 -1.220682,1.274009 -0.687435,1.375683 -0.723274,2.500246 -0.10106,3.171627 0.236395,0.255072 0.53764,0.463767 0.669425,0.463767 0.131795,0 0.667931,-0.32217 1.191437,-0.715932 1.00121,-0.753086 5.18892,-2.904876 5.34655,-2.747247 0.0505,0.05054 -0.48781,0.410067 -1.19636,0.798936 -1.32926,0.729546 -3.84846,2.528588 -4.37128,3.121676 -0.273155,0.309878 -0.274679,0.381599 -0.0192,0.909052 0.34691,0.716289 0.95041,1.152158 2.0713,1.495994 0.77822,0.238716 2.77805,0.396681 2.23187,0.176292 z"
         id="path945"
         inkscape:connector-curvature="0" />
    </g>
  </g>
</svg>
