<?xml version="1.0" encoding="UTF-8" standalone="no"?>
<svg
   xmlns:dc="http://purl.org/dc/elements/1.1/"
   xmlns:cc="http://creativecommons.org/ns#"
   xmlns:rdf="http://www.w3.org/1999/02/22-rdf-syntax-ns#"
   xmlns:svg="http://www.w3.org/2000/svg"
   xmlns="http://www.w3.org/2000/svg"
   id="svg8"
   version="1.1"
   viewBox="0 0 64.205246 39.641186"
   height="39.641186mm"
   width="64.205246mm">
  <defs
     id="defs2" />
  <metadata
     id="metadata5">
    <rdf:RDF>
      <cc:Work
         rdf:about="">
        <dc:format>image/svg+xml</dc:format>
        <dc:type
           rdf:resource="http://purl.org/dc/dcmitype/StillImage" />
        <dc:title></dc:title>
      </cc:Work>
    </rdf:RDF>
  </metadata>
  <g
     transform="translate(-24.966306,-42.953966)"
     id="layer1">
    <path
       style="fill:#000000;stroke:#000000;stroke-width:7.599;stroke-miterlimit:4;stroke-dasharray:none;stroke-opacity:1"
       d="m 37.202149,77.666795 c -0.58166,-0.58166 -0.63514,-1.122249 -0.22581,-2.282415 0.40579,-1.15014 1.63956,-3.013096 1.99547,-3.013096 0.16518,0 0.30033,0.08936 0.30033,0.198578 0,0.109219 0.11836,0.198578 0.26301,0.198578 0.33323,0 1.62215,-2.347075 4.79661,-8.734453 1.38332,-2.783408 2.61076,-5.175973 2.72765,-5.316811 0.42088,-0.507139 -0.0717,-0.503911 -1.58259,0.01036 -2.86006,0.973492 -4.03551,1.200057 -6.31175,1.216576 -2.55691,0.01854 -3.16575,-0.225807 -3.37772,-1.35575 -0.18685,-0.995971 0.24403,-1.724848 1.34156,-2.269386 1.03629,-0.514149 1.47689,-0.444273 1.14218,0.181143 -0.30406,0.568134 0.26444,0.70871 2.23465,0.552553 2.27494,-0.180317 4.65475,-0.62883 7.05716,-1.330051 1.66512,-0.486018 2.2071,-0.745352 2.97869,-1.425294 1.35169,-1.191141 2.44986,-1.781499 3.55406,-1.910599 0.79638,-0.09311 1.05835,-0.03776 1.50969,0.319234 1.40567,1.111704 0.0814,2.62021 -3.22693,3.675804 -0.6007,0.191672 -1.19721,0.449662 -1.32556,0.573321 -0.37417,0.360468 -4.15007,7.641272 -5.5567,10.714574 -3.85092,8.413832 -5.00537,10.136182 -6.97078,10.3998 -0.6884,0.09233 -0.88936,0.03114 -1.32322,-0.40268 z m 15.85445,-2.201921 c -0.94253,-0.410379 -1.47251,-1.215578 -1.47251,-2.237211 0,-2.976265 2.25069,-8.122591 6.00535,-13.731571 0.7557,-1.128929 1.33694,-2.089663 1.29164,-2.134958 -0.0453,-0.04533 -0.47694,0.221079 -0.9592,0.591957 -1.20701,0.928235 -1.96981,1.065861 -2.65251,0.478588 -0.72781,-0.626069 -0.75046,-1.596004 -0.0536,-2.292908 0.3975,-0.397501 0.57727,-0.464614 0.7843,-0.292793 0.21002,0.174298 0.72139,-0.133468 2.34469,-1.411138 3.13358,-2.466374 3.34919,-2.599647 4.12179,-2.547612 0.90934,0.06125 1.82672,0.552884 1.82616,0.978686 -5.3e-4,0.364162 -0.5175,1.298709 -4.35853,7.878443 -2.91129,4.987084 -3.93306,6.987005 -4.74467,9.286826 -0.78558,2.226028 -0.54507,2.420289 0.98331,0.794242 1.04765,-1.11461 5.42913,-6.565872 7.49079,-9.319745 2.63274,-3.516699 4.19306,-5.644811 4.8948,-6.675983 0.90004,-1.322553 1.04549,-1.421571 2.33537,-1.589759 1.03417,-0.134849 1.93831,0.108295 1.93831,0.521248 0,0.145657 -0.32618,0.795736 -0.72485,1.444621 -1.7433,2.837446 -2.31588,3.920818 -3.43308,6.495778 -1.23428,2.844817 -2.45592,6.400573 -2.68654,7.819554 -0.227,1.396759 0.19689,1.296 1.86646,-0.443642 3.29255,-3.430739 6.82847,-8.50683 9.30173,-13.353331 1.41376,-2.770363 1.64616,-3.363634 1.59467,-4.070888 -0.0601,-0.825531 -0.0624,-0.827739 -0.80496,-0.769669 -1.19893,0.09376 -0.84264,-0.50692 0.78641,-1.325871 1.09378,-0.549859 2.22742,-0.545791 2.93467,0.01051 0.51563,0.405591 0.54199,0.502133 0.45003,1.647732 -0.34831,4.339227 -7.20049,15.126356 -13.15766,20.7136 -2.75158,2.58071 -4.50626,3.213315 -5.67398,2.045592 -0.52921,-0.52922 -0.58047,-0.70125 -0.58047,-1.948405 0,-1.467106 0.52413,-3.76439 1.28746,-5.642941 0.53861,-1.325518 0.42266,-1.500821 -0.27404,-0.414312 -2.08486,3.251398 -5.99559,7.637474 -8.00784,8.981198 -1.27675,0.852583 -1.69161,0.932966 -2.65354,0.514136 z"
       id="path3790-8" />
    <g
       id="g3821">
      <path
         id="path3790"
         d="m 38.068549,78.012758 c -0.581661,-0.581659 -0.635143,-1.122249 -0.225813,-2.282416 0.405795,-1.150139 1.639565,-3.013095 1.99547,-3.013095 0.165185,0 0.300336,0.08936 0.300336,0.198578 0,0.109219 0.118354,0.198578 0.263008,0.198578 0.333232,0 1.622149,-2.347075 4.796606,-8.734453 1.383319,-2.783408 2.610759,-5.175973 2.727648,-5.316811 0.420886,-0.507139 -0.07168,-0.503911 -1.582587,0.01036 -2.860054,0.973493 -4.035513,1.200058 -6.311749,1.216577 -2.556907,0.01854 -3.165747,-0.225807 -3.377724,-1.35575 -0.186847,-0.995971 0.244032,-1.724848 1.341566,-2.269386 1.036285,-0.514149 1.476892,-0.444273 1.142179,0.181143 -0.304059,0.568134 0.264441,0.70871 2.234654,0.552553 2.274937,-0.180317 4.654746,-0.62883 7.057151,-1.330051 1.665121,-0.486018 2.207107,-0.745352 2.978698,-1.425294 1.351689,-1.191141 2.449853,-1.781499 3.554052,-1.910599 0.796381,-0.09311 1.058356,-0.03776 1.509692,0.319234 1.405668,1.111704 0.08138,2.62021 -3.226923,3.675804 -0.600708,0.191672 -1.197213,0.449662 -1.325562,0.573321 -0.374173,0.360468 -4.150077,7.641272 -5.556699,10.714574 -3.850922,8.413831 -5.005377,10.136181 -6.970782,10.399799 -0.6884,0.09233 -0.889366,0.03114 -1.323221,-0.402679 z m 15.85445,-2.201921 c -0.942533,-0.410378 -1.47251,-1.215578 -1.47251,-2.237211 0,-2.976265 2.250691,-8.122591 6.005347,-13.731571 0.755701,-1.128929 1.336941,-2.089663 1.291638,-2.134958 -0.04526,-0.04533 -0.476937,0.221079 -0.959195,0.591957 -1.207007,0.928235 -1.969809,1.065861 -2.652514,0.478588 -0.727804,-0.626069 -0.750455,-1.596004 -0.05359,-2.292908 0.397501,-0.397501 0.577277,-0.464614 0.784305,-0.292793 0.210015,0.174298 0.721387,-0.133468 2.344689,-1.411138 3.133578,-2.466374 3.349192,-2.599647 4.121789,-2.547612 0.909344,0.06125 1.826719,0.552884 1.826156,0.978686 -3.98e-4,0.364162 -0.517496,1.298709 -4.358524,7.878443 -2.911291,4.987084 -3.933059,6.987005 -4.744669,9.286826 -0.785579,2.226028 -0.54507,2.420289 0.983303,0.794242 1.047654,-1.11461 5.429137,-6.565872 7.490797,-9.319745 2.632737,-3.516699 4.19306,-5.644811 4.894797,-6.675983 0.900038,-1.322553 1.045492,-1.421571 2.335375,-1.589759 1.034166,-0.134849 1.938309,0.108295 1.938309,0.521248 0,0.145657 -0.326184,0.795736 -0.724854,1.444621 -1.743305,2.837446 -2.315876,3.920818 -3.433082,6.495778 -1.234282,2.844817 -2.455917,6.400573 -2.686535,7.819554 -0.227,1.396759 0.196882,1.296 1.86646,-0.443642 3.292543,-3.430739 6.828469,-8.50683 9.301725,-13.353331 1.413758,-2.770363 1.646162,-3.363634 1.594667,-4.070888 -0.06012,-0.825531 -0.06244,-0.827739 -0.804951,-0.769669 -1.198932,0.09376 -0.842644,-0.50692 0.786406,-1.325871 1.093782,-0.549859 2.227416,-0.545791 2.934671,0.01051 0.515627,0.405591 0.541993,0.502133 0.45003,1.647732 -0.34831,4.339227 -7.200488,15.126356 -13.157658,20.7136 -2.751577,2.58071 -4.50626,3.213316 -5.673985,2.045592 -0.529212,-0.52922 -0.580466,-0.70125 -0.580466,-1.948405 0,-1.467106 0.524132,-3.76439 1.287459,-5.642941 0.538608,-1.325518 0.422657,-1.500821 -0.274037,-0.414312 -2.084867,3.251398 -5.995598,7.637474 -8.007842,8.981199 -1.276748,0.852581 -1.691608,0.932964 -2.653542,0.514134 z"
         style="fill:#f3f4f5;stroke-width:0.19857982" />
      <path
         id="path3788"
         d="m 36.257209,77.194311 c -0.788601,-0.788597 -0.542752,-2.088303 0.788742,-4.169763 0.626606,-0.979542 1.305373,-1.449108 1.305373,-0.903047 0,0.109226 0.121286,0.198584 0.269524,0.198584 0.3197,0 1.91341,-2.910788 4.729586,-8.638226 1.12776,-2.293591 2.112322,-4.216934 2.187911,-4.274073 0.07559,-0.05711 0.634379,-0.272828 1.241755,-0.479278 1.118654,-0.380238 1.532636,-0.331596 1.145704,0.134631 -0.116889,0.140838 -1.344329,2.533403 -2.727648,5.316811 -3.174457,6.387378 -4.463374,8.734453 -4.796606,8.734453 -0.144654,0 -0.263008,-0.08936 -0.263008,-0.198578 0,-0.548073 -0.679933,-0.07468 -1.312072,0.913518 -0.852756,1.333067 -1.346904,2.696607 -1.219252,3.364376 0.07818,0.408968 0.01587,0.488022 -0.384647,0.488022 -0.262866,0 -0.697279,-0.219345 -0.965362,-0.48743 z m 15.670365,-2.276419 c -0.909262,-0.554437 -1.264701,-1.173022 -1.261361,-2.195188 0.0084,-2.583825 1.476878,-6.285942 4.447004,-11.211386 0.719879,-1.193798 1.309276,-2.221449 1.309764,-2.283668 3.98e-4,-0.06222 0.321147,-0.129663 0.712576,-0.149875 0.475293,-0.02454 1.013594,-0.271965 1.620622,-0.744895 0.499918,-0.389483 0.946,-0.671085 0.991295,-0.625783 0.04533,0.04533 -0.535937,1.006029 -1.291638,2.13495 -4.509818,6.737099 -6.963746,13.20573 -5.696215,15.01539 0.397545,0.567572 0.04196,0.593405 -0.832047,0.0605 z M 62.36421,73.526838 c -0.530788,-0.530788 -0.580466,-0.699193 -0.580466,-1.96785 v -1.387385 l 1.30884,-1.755523 c 0.719864,-0.965537 1.454017,-2.001265 1.631452,-2.301615 0.555481,-0.940273 0.627044,-0.59709 0.130376,0.625214 -0.870947,2.143415 -1.330614,4.314587 -1.250276,5.905502 0.06642,1.315835 0.03715,1.462123 -0.292815,1.462123 -0.201654,0 -0.627855,-0.26121 -0.947111,-0.580466 z m -6.78987,-1.326381 c -0.13605,-0.136042 1.009331,-3.501289 1.243446,-3.653393 0.164001,-0.106539 4.502853,-5.591658 5.925047,-7.490346 2.586669,-3.453338 4.191897,-5.642491 4.894799,-6.675375 0.926703,-1.361745 1.045747,-1.438481 2.515772,-1.62162 1.012477,-0.126143 1.1669,-0.09431 1.588635,0.327423 l 0.467149,0.467143 -0.794324,0.106253 c -1.037821,0.138827 -1.070252,0.163535 -1.991252,1.51692 -0.700642,1.02958 -2.261582,3.158496 -4.89356,6.674181 -1.971918,2.633998 -6.36183,8.107221 -7.414707,9.244451 -1.116673,1.206144 -1.30457,1.340798 -1.541005,1.104363 z m 5.216502,-0.948252 c 0,-0.04121 0.156382,-0.197616 0.347522,-0.347506 0.314955,-0.24701 0.32198,-0.239984 0.07498,0.07498 -0.259424,0.330785 -0.422493,0.43598 -0.422493,0.272542 z m 6.054919,-0.52362 c -0.288041,-0.466061 0.323708,-2.350062 0.993773,-3.060536 2.540308,-2.693508 6.211182,-8.111941 8.395494,-12.392245 1.413766,-2.770355 1.646163,-3.363633 1.594669,-4.07088 -0.06012,-0.825532 -0.06244,-0.827746 -0.804953,-0.769669 -1.198924,0.09376 -0.842643,-0.506921 0.786407,-1.32587 1.062619,-0.534196 2.245069,-0.546474 2.865321,-0.02972 0.401793,0.334725 0.417997,0.391495 0.113377,0.397154 -0.418996,0.0078 -1.878402,0.716104 -2.37504,1.152715 -0.53984,0.474587 -0.41477,0.663565 0.397154,0.600062 0.742537,-0.0581 0.744849,-0.05584 0.804952,0.769669 0.05148,0.707255 -0.180902,1.300524 -1.594668,4.070887 -2.454657,4.810063 -5.97122,9.866625 -9.263942,13.320901 -1.484842,1.557689 -1.688478,1.700103 -1.912544,1.337556 z M 35.973543,59.351541 c -0.828874,-0.284777 -1.245028,-0.992046 -1.113845,-1.893014 0.12105,-0.831379 0.384057,-1.149592 1.362861,-1.64894 0.938953,-0.479016 1.458168,-0.375276 1.135866,0.226955 -0.169198,0.316149 -0.151668,0.427619 0.0813,0.517024 0.23435,0.08993 0.183787,0.211419 -0.239661,0.575849 -0.457362,0.393628 -0.534528,0.611118 -0.522167,1.471723 0.0079,0.555413 0.0079,1.00479 0,0.998628 -0.0079,-0.006 -0.324938,-0.117864 -0.704357,-0.248225 z m 18.423849,-1.317179 c -0.279861,-0.220133 -0.551766,-0.624853 -0.604243,-0.89937 -0.08487,-0.443958 0.02769,-0.555435 1.01854,-1.008595 1.18251,-0.540831 2.206138,-1.382942 2.206138,-1.814936 0,-0.143398 0.08117,-0.260722 0.180378,-0.260722 0.0992,0 0.657711,-0.384268 1.241126,-0.853932 2.449284,-1.971738 2.995968,-2.132969 4.510853,-1.330328 0.647032,0.342823 0.668482,0.378226 0.211457,0.349074 -0.570821,-0.0364 -0.99459,0.238762 -3.950441,2.56525 -1.623302,1.27767 -2.134673,1.585436 -2.344688,1.411138 -0.410912,-0.341029 -1.262375,0.606329 -1.304525,1.451451 -0.04068,0.816509 -0.44925,0.953655 -1.164595,0.39097 z M 39.340009,57.386175 c -0.698198,-0.258283 -0.229087,-0.700733 0.860377,-0.811475 1.859358,-0.189008 4.371257,-0.696101 6.44169,-1.300419 1.665121,-0.486019 2.207107,-0.745359 2.978698,-1.425301 2.033281,-1.791767 4.014192,-2.435061 5.011529,-1.627467 l 0.492571,0.398858 -0.810139,0.218152 c -0.844468,0.22739 -2.124015,1.049807 -3.172223,2.038918 -1.016889,0.959564 -5.870979,2.212136 -9.770369,2.5212 -0.905191,0.07175 -1.819652,0.06612 -2.032134,-0.01245 z"
         style="fill:#0763ec;stroke-width:0.19857982" />
    </g>
  </g>
</svg>
