0
SECTION
2
HEADER
9
$INSUNITS
70
4
9
$ACADVER
1
AC1014
9
$HANDSEED
5
FFFF
0
ENDSEC
0
SECTION
2
TABLES
0
TABLE
2
VPORT
5
8
100
AcDbSymbolTable
0
ENDTAB
0
TABLE
2
LTYPE
5
5
100
AcDbSymbolTable
0
LTYPE
5
14
100
AcDbSymbolTableRecord
100
AcDbLinetypeTableRecord
2
BYBLOCK
70
0
0
LTYPE
5
15
100
AcDbSymbolTableRecord
100
AcDbLinetypeTableRecord
2
BYLAYER
70
0
0
ENDTAB
0
TABLE
2
LAYER
5
2
100
AcDbSymbolTable
70
2
0
LAYER
5
50
100
AcDbSymbolTableRecord
100
AcDbLayerTableRecord
2
0
70
0
6
CONTINUOUS
0
ENDTAB
0
TABLE
2
STYLE
5
3
100
AcDbSymbolTable
70
1
0
STYLE
5
11
100
AcDbSymbolTableRecord
100
AcDbTextStyleTableRecord
2
STANDARD
70
0
0
ENDTAB
0
TABLE
2
VIEW
5
6
100
AcDbSymbolTable
70
0
0
ENDTAB
0
TABLE
2
UCS
5
7
100
AcDbSymbolTable
70
0
0
ENDTAB
0
TABLE
2
APPID
5
9
100
AcDbSymbolTable
70
2
0
APPID
5
12
100
AcDbSymbolTableRecord
100
AcDbRegAppTableRecord
2
ACAD
70
0
0
ENDTAB
0
TABLE
2
DIMSTYLE
5
A
100
AcDbSymbolTable
70
1
0
ENDTAB
0
TABLE
2
BLOCK_RECORD
5
1
100
AcDbSymbolTable
70
1
0
BLOCK_RECORD
5
1F
100
AcDbSymbolTableRecord
100
AcDbBlockTableRecord
2
*MODEL_SPACE
0
BLOCK_RECORD
5
1B
100
AcDbSymbolTableRecord
100
AcDbBlockTableRecord
2
*PAPER_SPACE
0
ENDTAB
0
ENDSEC
0
SECTION
2
BLOCKS
0
BLOCK
5
20
100
AcDbEntity
100
AcDbBlockBegin
2
*MODEL_SPACE
0
ENDBLK
5
21
100
AcDbEntity
100
AcDbBlockEnd
0
BLOCK
5
1C
100
AcDbEntity
100
AcDbBlockBegin
2
*PAPER_SPACE
0
ENDBLK
5
1D
100
AcDbEntity
100
AcDbBlockEnd
0
ENDSEC
0
SECTION
2
ENTITIES
0
SPLINE
5
100
100
AcDbEntity
8
0
100
AcDbSpline
70
0
71
3
72
10
73
6
74
0
42
0.000000001
43
0.0000000001
44
0.0000000001
40
0
40
0
40
0
40
0
40
0.1640682997890843
40
0.1640682997890843
40
0.33810093668058228
40
0.33810093668058228
40
0.33810093668058228
40
0.33810093668058228
10
8.5212715936094199
20
72.958721441002098
30
0
10
8.2572008673384616
20
72.479805934268555
30
0
10
7.9073649955378142
20
71.846968130634053
30
0
10
7.2839404556934584
20
70.670248981608395
30
0
10
6.980727679275609
20
70.070964770542972
30
0
10
6.69317721116676
20
69.452537421661901
30
0
0
SPLINE
5
101
100
AcDbEntity
8
0
100
AcDbSpline
70
0
71
3
72
10
73
6
74
0
42
0.000000001
43
0.0000000001
44
0.0000000001
40
0
40
0
40
0
40
0
40
0.22640535819749452
40
0.22640535819749452
40
0.4540515032627076
40
0.4540515032627076
40
0.4540515032627076
40
0.4540515032627076
10
10.700639421081439
20
76.942567245415134
30
0
10
10.342135090571761
20
76.278471333073
30
0
10
9.9806296522856037
20
75.615019161414793
30
0
10
9.2537328949808444
20
74.287983037344333
30
0
10
8.5945478034068898
20
73.091612054149536
30
0
10
8.5212715931604617
20
72.958721440750011
30
0
0
SPLINE
5
102
100
AcDbEntity
8
0
100
AcDbSpline
70
0
71
3
72
10
73
6
74
0
42
0.000000001
43
0.0000000001
44
0.0000000001
40
0
40
0
40
0
40
0
40
0.28983804709611305
40
0.28983804709611305
40
0.58782681529847336
40
0.58782681529847336
40
0.58782681529847336
40
0.58782681529847336
10
13.363639052014452
20
82.191131387907816
30
0
10
12.962581016290493
20
81.312181166698196
30
0
10
12.533763228840272
20
80.439856479374043
30
0
10
11.64221873573069
20
78.697975898996532
30
0
10
11.169135193865964
20
77.810407750000067
30
0
10
10.700642880394778
20
76.942573653455241
30
0
0
SPLINE
5
103
100
AcDbEntity
8
0
100
AcDbSpline
70
0
71
3
72
10
73
6
74
0
42
0.000000001
43
0.0000000001
44
0.0000000001
40
0
40
0
40
0
40
0
40
0.17413915701575944
40
0.17413915701575944
40
0.31498226937234503
40
0.31498226937234503
40
0.31498226937234503
40
0.31498226937234503
10
14.717283469775829
20
85.251295043074947
30
0
10
14.478267791494146
20
84.722324538705493
30
0
10
14.171612942631715
20
84.019630159695993
30
0
10
13.898736793087956
20
83.394608267077231
30
0
10
13.585711322173159
20
82.677822364981466
30
0
10
13.363639052018595
20
82.191131387906069
30
0
0
SPLINE
5
104
100
AcDbEntity
8
0
100
AcDbSpline
70
0
71
3
72
10
73
6
74
0
42
0.000000001
43
0.0000000001
44
0.0000000001
40
0.14322070379194032
40
0.14322070379194032
40
0.14322070379194032
40
0.14322070379194032
40
0.2895953372279686
40
0.2895953372279686
40
0.5908566609827004
40
0.5908566609827004
40
0.5908566609827004
40
0.5908566609827004
10
16.689155428152038
20
89.390524929349681
30
0
10
16.477076871727533
20
88.950938354801465
30
0
10
16.259679236879407
20
88.504750035341303
30
0
10
15.563998486629306
20
87.070481364795981
30
0
10
15.142473187968864
20
86.192296193214474
30
0
10
14.717283469782263
20
85.251295043071053
30
0
0
SPLINE
5
105
100
AcDbEntity
8
0
100
AcDbSpline
70
0
71
3
72
8
73
4
74
0
42
0.000000001
43
0.0000000001
44
0.0000000001
40
0
40
0
40
0
40
0
40
0.14322070379194032
40
0.14322070379194032
40
0.14322070379194032
40
0.14322070379194032
10
17.30086847706913
20
90.677092636233823
30
0
10
17.099187410515498
20
90.244382863598105
30
0
10
16.896664334560821
20
89.820639745738262
30
0
10
16.689155428152038
20
89.390524929349681
30
0
0
SPLINE
5
106
100
AcDbEntity
8
0
100
AcDbSpline
70
0
71
3
72
8
73
4
74
0
42
0.000000001
43
0.0000000001
44
0.0000000001
40
0
40
0
40
0
40
0
40
0.35802029091355503
40
0.35802029091355503
40
0.35802029091355503
40
0.35802029091355503
10
20.321514197318812
20
97.419086175688847
30
0
10
19.816586168312305
20
96.337765890096833
30
0
10
19.433218886322877
20
95.470869888634553
30
0
10
18.879927653286028
20
94.210872650146484
30
0
0
SPLINE
5
107
100
AcDbEntity
8
0
100
AcDbSpline
70
0
71
3
72
8
73
4
74
0
42
0.000000001
43
0.0000000001
44
0.0000000001
40
0.42489354756819764
40
0.42489354756819764
40
0.42489354756819764
40
0.42489354756819764
40
0.75253739497277439
40
0.75253739497277439
40
0.75253739497277439
40
0.75253739497277439
10
18.568959683864207
20
93.502445220947266
30
0
10
18.085953667146178
20
92.402684909174795
30
0
10
17.744667801769655
20
91.629270822842997
30
0
10
17.300868477069137
20
90.677092636233837
30
0
0
SPLINE
5
108
100
AcDbEntity
8
0
100
AcDbSpline
70
0
71
3
72
8
73
4
74
0
42
0.000000001
43
0.0000000001
44
0.0000000001
40
0
40
0
40
0
40
0
40
0.057867265664333437
40
0.057867265664333437
40
0.057867265664333437
40
0.057867265664333437
10
23.808188300819509
20
104.47574089857429
30
0
10
23.723518457449781
20
104.30242641172697
30
0
10
23.11630743194759
20
103.07634567250815
30
0
10
22.575772034601425
20
102.00366973876953
30
0
0
SPLINE
5
109
100
AcDbEntity
8
0
100
AcDbSpline
70
0
71
3
72
10
73
6
74
0
42
0.000000001
43
0.0000000001
44
0.0000000001
40
0.069977846166798655
40
0.069977846166798655
40
0.069977846166798655
40
0.069977846166798655
40
0.077312243104746284
40
0.077312243104746284
40
0.16162388456446275
40
0.16162388456446275
40
0.16162388456446275
40
0.16162388456446275
10
22.25184370981291
20
101.3607610241296
30
0
10
22.190714485958488
20
101.23935097688708
30
0
10
22.132858215896025
20
101.12434922119888
30
0
10
21.466228964526458
20
99.797915012180894
30
0
10
20.888719874003222
20
98.633775391618869
30
0
10
20.321514542244174
20
97.419086914357834
30
0
0
SPLINE
5
110
100
AcDbEntity
8
0
100
AcDbSpline
70
0
71
3
72
8
73
4
74
0
42
0.000000001
43
0.0000000001
44
0.0000000001
40
0.055987811968097871
40
0.055987811968097871
40
0.055987811968097871
40
0.055987811968097871
40
0.44250658939841142
40
0.44250658939841142
40
0.44250658939841142
40
0.44250658939841142
10
25.43924905436052
20
107.84641265869141
30
0
10
24.871440909434046
20
106.69702434394841
30
0
10
24.336957567889748
20
105.5580891187475
30
0
10
23.808188300940216
20
104.47574089851577
30
0
0
SPLINE
5
111
100
AcDbEntity
8
0
100
AcDbSpline
70
0
71
3
72
8
73
4
74
0
42
0.000000001
43
0.0000000001
44
0.0000000001
40
0
40
0
40
0
40
0
40
0.22244894697867632
40
0.22244894697867632
40
0.22244894697867632
40
0.22244894697867632
10
26.448293353063967
20
109.81655083978796
30
0
10
26.098722451433723
20
109.16262635690764
30
0
10
25.76734392092709
20
108.51056023939864
30
0
10
25.43924905436052
20
107.84641265869141
30
0
0
SPLINE
5
112
100
AcDbEntity
8
0
100
AcDbSpline
70
0
71
3
72
10
73
6
74
0
42
0.000000001
43
0.0000000001
44
0.0000000001
40
0
40
0
40
0
40
0
40
0.26946067948923413
40
0.26946067948923413
40
0.54172066358590687
40
0.54172066358590687
40
0.54172066358590687
40
0.54172066358590687
10
29.257900766537396
20
114.86776429381381
30
0
10
28.842439760558438
20
114.0714229968201
30
0
10
28.320129388016554
20
113.15387400231943
30
0
10
27.500496615056637
20
111.71658747386529
30
0
10
26.931921309005538
20
110.72124708854489
30
0
10
26.448294822955788
20
109.81655358943681
30
0
0
SPLINE
5
113
100
AcDbEntity
8
0
100
AcDbSpline
70
0
71
3
72
10
73
6
74
0
42
0.000000001
43
0.0000000001
44
0.0000000001
40
0
40
0
40
0
40
0
40
0.2884496933390101
40
0.2884496933390101
40
0.56295371901465696
40
0.56295371901465696
40
0.56295371901465696
40
0.56295371901465696
10
31.586601330730563
20
119.80799098181238
30
0
10
31.186792447752417
20
118.93355794183969
30
0
10
30.807692597069366
20
118.08869005356985
30
0
10
30.055180088423018
20
116.46504874725103
30
0
10
29.665594579365312
20
115.64921984216124
30
0
10
29.257900766539251
20
114.86776429381308
30
0
0
SPLINE
5
114
100
AcDbEntity
8
0
100
AcDbSpline
70
0
71
3
72
10
73
6
74
0
42
0.000000001
43
0.0000000001
44
0.0000000001
40
0
40
0
40
0
40
0
40
0.36556752175114016
40
0.36556752175114016
40
0.74062639251157703
40
0.74062639251157703
40
0.74062639251157703
40
0.74062639251157703
10
34.693582084390712
20
126.55946411644763
30
0
10
34.202019907147218
20
125.44445236120019
30
0
10
33.677826196426864
20
124.3099995038144
30
0
10
32.651877200406751
20
122.10701893732929
30
0
10
32.111990234539071
20
120.95707922002072
30
0
10
31.586603404864331
20
119.80799551819902
30
0
0
SPLINE
5
115
100
AcDbEntity
8
0
100
AcDbSpline
70
0
71
3
72
10
73
6
74
0
42
0.000000001
43
0.0000000001
44
0.0000000001
40
0
40
0
40
0
40
0
40
0.37499378528162808
40
0.37499378528162808
40
0.7260476045875206
40
0.7260476045875206
40
0.7260476045875206
40
0.7260476045875206
10
37.757284293798413
20
133.02882983047519
30
0
10
37.13279080080396
20
131.94602971581094
30
0
10
36.595146842048855
20
130.85597733598516
30
0
10
35.582505410568523
20
128.62809749811686
30
0
10
35.13382638740211
20
127.55807453055866
30
0
10
34.693582084392801
20
126.55946411644676
30
0
0
SPLINE
5
116
100
AcDbEntity
8
0
100
AcDbSpline
70
0
71
3
72
8
73
4
74
0
42
0.000000001
43
0.0000000001
44
0.0000000001
40
0
40
0
40
0
40
0
40
0.049948959243670085
40
0.049948959243670085
40
0.049948959243670085
40
0.049948959243670085
10
42.750867085103408
20
139.94699993561355
30
0
10
42.647447037626101
20
139.81651856317941
30
0
10
42.542367216595039
20
139.68435927232386
30
0
10
42.4359678012909
20
139.55072402954102
30
0
0
SPLINE
5
117
100
AcDbEntity
8
0
100
AcDbSpline
70
0
71
3
72
10
73
6
74
0
42
0.000000001
43
0.0000000001
44
0.0000000001
40
0.12735920157318642
40
0.12735920157318642
40
0.12735920157318642
40
0.12735920157318642
40
0.38651343378825409
40
0.38651343378825409
40
0.79937286490317128
40
0.79937286490317128
40
0.79937286490317128
40
0.79937286490317128
10
41.933078765869141
20
138.91948862161584
30
0
10
41.36420082850394
20
138.20480348205874
30
0
10
40.774960056153795
20
137.45804226875765
30
0
10
39.318508723365362
20
135.51069855380132
30
0
10
38.498136089621802
20
134.3133839525394
30
0
10
37.757284293799174
20
133.02882983047465
30
0
0
SPLINE
5
118
100
AcDbEntity
8
0
100
AcDbSpline
70
0
71
3
72
10
73
6
74
0
42
0.000000001
43
0.0000000001
44
0.0000000001
40
0
40
0
40
0
40
0
40
0.38444948433534365
40
0.38444948433534365
40
0.7623503417072115
40
0.7623503417072115
40
0.7623503417072115
40
0.7623503417072115
10
47.455707693209334
20
145.91276017978569
30
0
10
46.650579187567757
20
144.91576171744421
30
0
10
45.872259892806582
20
143.92674774917592
30
0
10
44.28832279383245
20
141.90361080527313
30
0
10
43.525814249580279
20
140.92472354048505
30
0
10
42.750867085103508
20
139.94699993561349
30
0
0
SPLINE
5
119
100
AcDbEntity
8
0
100
AcDbSpline
70
0
71
3
72
12
73
8
74
0
42
0.000000001
43
0.0000000001
44
0.0000000001
40
0
40
0
40
0
40
0
40
0.37617152228480155
40
0.37617152228480155
40
0.5795221327743747
40
0.5795221327743747
40
0.92338794876845087
40
0.92338794876845087
40
0.92338794876845087
40
0.92338794876845087
10
52.306438872075987
20
151.83094841715078
30
0
10
51.522770286092594
20
150.85210140016872
30
0
10
50.658704446714886
20
149.80638868419419
30
0
10
49.512977938855542
20
148.42174661465071
30
0
10
49.09759956942122
20
147.92017861175057
30
0
10
47.997120431767158
20
146.58319236683485
30
0
10
47.626758353463359
20
146.12457246293698
30
0
10
47.455707692615469
20
145.9127601791335
30
0
0
SPLINE
5
120
100
AcDbEntity
8
0
100
AcDbSpline
70
0
71
3
72
10
73
6
74
0
42
0.000000001
43
0.0000000001
44
0.0000000001
40
0
40
0
40
0
40
0
40
0.41174595142300818
40
0.41174595142300818
40
0.81722745237261307
40
0.81722745237261307
40
0.81722745237261307
40
0.81722745237261307
10
57.244513907083174
20
158.23736124421939
30
0
10
56.4114880717962
20
157.14658759059225
30
0
10
55.591596598028175
20
156.06293470774094
30
0
10
53.963627533997986
20
153.93603601413841
30
0
10
53.140051068774483
20
152.87218826291144
30
0
10
52.306438872044481
20
151.83094841717593
30
0
0
SPLINE
5
121
100
AcDbEntity
8
0
100
AcDbSpline
70
0
71
3
72
10
73
6
74
0
42
0.000000001
43
0.0000000001
44
0.0000000001
40
0
40
0
40
0
40
0
40
0.30607091253143576
40
0.30607091253143576
40
0.608134069367533
40
0.608134069367533
40
0.608134069367533
40
0.608134069367533
10
61.002521655744346
20
163.01347557860635
30
0
10
60.354237236189462
20
162.22568780740818
30
0
10
59.719112849885789
20
161.43041420914105
30
0
10
58.468084046005316
20
159.83396099890999
30
0
10
57.857515203922375
20
159.04003244338239
30
0
10
57.244513907083174
20
158.23736124421936
30
0
0
SPLINE
5
122
100
AcDbEntity
8
0
100
AcDbSpline
70
0
71
3
72
8
73
4
74
0
42
0.000000001
43
0.0000000001
44
0.0000000001
40
0.074154974177149363
40
0.074154974177149363
40
0.074154974177149363
40
0.074154974177149363
40
0.43669283621003169
40
0.43669283621003169
40
0.43669283621003169
40
0.43669283621003169
10
63.361225128173828
20
165.75922332353895
30
0
10
62.552429270674132
20
164.86407397372511
30
0
10
61.771877794285373
20
163.94839131187661
30
0
10
61.002521655747763
20
163.01347557860342
30
0
0
SPLINE
5
123
100
AcDbEntity
8
0
100
AcDbSpline
70
0
71
3
72
8
73
4
74
0
42
0.000000001
43
0.0000000001
44
0.0000000001
40
0
40
0
40
0
40
0
40
0.34584206326327377
40
0.34584206326327377
40
0.34584206326327377
40
0.34584206326327377
10
66.020242216221277
20
168.50612337289195
30
0
10
65.187414050235887
20
167.70902805685083
30
0
10
64.545633086090646
20
167.07008811545467
30
0
10
63.361225128173828
20
165.75922332353895
30
0
0
SPLINE
5
124
100
AcDbEntity
8
0
100
AcDbSpline
70
0
71
3
72
10
73
6
74
0
42
0.000000001
43
0.0000000001
44
0.0000000001
40
0
40
0
40
0
40
0
40
0.2837966962372791
40
0.2837966962372791
40
0.57943320249449493
40
0.57943320249449493
40
0.57943320249449493
40
0.57943320249449493
10
70.504851777508307
20
172.46668758065607
30
0
10
69.788191303971644
20
171.84919836612576
30
0
10
69.041004819988061
20
171.2173645427734
30
0
10
67.511710871008205
20
169.88735160540614
30
0
10
66.76158943459582
20
169.2156498758377
30
0
10
66.020242216465334
20
168.50612337264056
30
0
0
SPLINE
5
125
100
AcDbEntity
8
0
100
AcDbSpline
70
0
71
3
72
8
73
4
74
0
42
0.000000001
43
0.0000000001
44
0.0000000001
40
0.54879565509968919
40
0.54879565509968919
40
0.54879565509968919
40
0.54879565509968919
40
0.80062113521065592
40
0.80062113521065592
40
0.80062113521065592
40
0.80062113521065592
10
72.372453596569429
20
174.09106327100073
30
0
10
71.743580027669282
20
173.54239035774333
30
0
10
71.123062031209315
20
172.99935128381316
30
0
10
70.504851777509742
20
172.46668758065454
30
0
0
SPLINE
5
126
100
AcDbEntity
8
0
100
AcDbSpline
70
0
71
3
72
10
73
6
74
0
42
0.000000001
43
0.0000000001
44
0.0000000001
40
0
40
0
40
0
40
0
40
0.4062488174760529
40
0.4062488174760529
40
0.54879565509968919
40
0.54879565509968919
40
0.54879565509968919
40
0.54879565509968919
10
76.557051248153755
20
177.62278031724961
30
0
10
75.497636300989967
20
176.77933698466038
30
0
10
74.482379527895887
20
175.92035154102061
30
0
10
73.087081487560596
20
174.71402811371848
30
0
10
72.728430038954443
20
174.40164180594533
30
0
10
72.372453596569429
20
174.09106327100073
30
0
0
SPLINE
5
127
100
AcDbEntity
8
0
100
AcDbSpline
70
0
71
3
72
10
73
6
74
0
42
0.000000001
43
0.0000000001
44
0.0000000001
40
0
40
0
40
0
40
0
40
0.16567860019064523
40
0.16567860019064523
40
0.28281152132332177
40
0.28281152132332177
40
0.28281152132332177
40
0.28281152132332177
10
83.25045399193823
20
182.38938799569723
30
0
10
82.78647474357453
20
182.0898607441261
30
0
10
81.452157138489525
20
181.2284763473377
30
0
10
78.737909667934304
20
179.30478409706299
30
0
10
77.634918030358676
20
178.48091621584953
30
0
10
76.557051248155602
20
177.62278031724705
30
0
0
SPLINE
5
128
100
AcDbEntity
8
0
100
AcDbSpline
70
0
71
3
72
8
73
4
74
0
42
0.000000001
43
0.0000000001
44
0.0000000001
40
0.10957234307532426
40
0.10957234307532426
40
0.10957234307532426
40
0.10957234307532426
40
0.72729461630716852
40
0.72729461630716852
40
0.72729461630716852
40
0.72729461630716852
10
88.546343339417717
20
185.52562713623047
30
0
10
86.732750341263056
20
184.56823570941685
30
0
10
84.990880850064798
20
183.51291740634889
30
0
10
83.250453992175849
20
182.38938799532932
30
0
0
SPLINE
5
129
100
AcDbEntity
8
0
100
AcDbSpline
70
0
71
3
72
8
73
4
74
0
42
0.000000001
43
0.0000000001
44
0.0000000001
40
0
40
0
40
0
40
0
40
0.15516866364895027
40
0.15516866364895027
40
0.15516866364895027
40
0.15516866364895027
10
89.928732115875349
20
186.22839737403851
30
0
10
89.463980769023777
20
186.00139098933704
30
0
10
89.003430635162474
20
185.76692243164501
30
0
10
88.546343339417717
20
185.52562713623047
30
0
0
SPLINE
5
130
100
AcDbEntity
8
0
100
AcDbSpline
70
0
71
3
72
10
73
6
74
0
42
0.000000001
43
0.0000000001
44
0.0000000001
40
0
40
0
40
0
40
0
40
0.45338847247117214
40
0.45338847247117214
40
1.1762735004005938
40
1.1762735004005938
40
1.1762735004005938
40
1.1762735004005938
10
98.438704470667631
20
189.55232403927431
30
0
10
96.998057855428044
20
189.09565169539692
30
0
10
95.573092497731778
20
188.60625285718055
30
0
10
91.916681547825917
20
187.19860087344779
30
0
10
90.466639431075961
20
186.49113208184093
30
0
10
89.928732114831604
20
186.22839737374397
30
0
0
SPLINE
5
131
100
AcDbEntity
8
0
100
AcDbSpline
70
0
71
3
72
10
73
6
74
0
42
0.000000001
43
0.0000000001
44
0.0000000001
40
0
40
0
40
0
40
0
40
0.4297096171948912
40
0.4297096171948912
40
0.86515545372773361
40
0.86515545372773361
40
0.86515545372773361
40
0.86515545372773361
10
106.7500853850928
20
191.86848255188841
30
0
10
105.36125731731916
20
191.51801542005569
30
0
10
103.98286952399906
20
191.16019838964999
30
0
10
101.20705091484824
20
190.39516113516032
30
0
10
99.819549888907346
20
189.99003905712871
30
0
10
98.438706382959879
20
189.55232464545361
30
0
0
LINE
5
132
100
AcDbEntity
8
0
100
AcDbLine
10
3.1272963795209634
20
68.974714032198236
30
0
11
3.1272963795209634
21
191.90184408231048
31
0
0
LINE
5
133
100
AcDbEntity
8
0
100
AcDbLine
10
6.3022963795209641
20
195.07684408231046
30
0
11
107.02539376362341
21
195.07684408231046
31
0
0
LINE
5
134
100
AcDbEntity
8
0
100
AcDbLine
10
6.6931752399678413
20
69.452533182248018
30
0
11
6.6950003179954365
21
69.452533182248018
31
0
0
LINE
5
135
100
AcDbEntity
8
0
100
AcDbLine
10
107.02539376362341
20
195.07684408231046
30
0
11
107.02539376362341
21
192.87904833001278
31
0
0
LINE
5
136
100
AcDbEntity
8
0
100
AcDbLine
10
3.1272963795209634
20
68.974714032198236
30
0
11
3.3037749364754858
21
68.974714032198236
31
0
0
LINE
5
137
100
AcDbEntity
8
0
100
AcDbLine
10
3.3037749364754858
20
68.974714032198236
30
0
11
6.4654280739276686
21
68.974714032197951
31
0
0
LINE
5
138
100
AcDbEntity
8
0
100
AcDbLine
10
12.63708490666858
20
68.979641812033393
30
0
11
12.92629976761722
21
69.597509924060034
31
0
0
SPLINE
5
139
100
AcDbEntity
8
0
100
AcDbSpline
70
4
71
5
72
166
73
160
74
0
42
0.000000001
43
0.0000000001
44
0.0000000001
40
0
40
0
40
0
40
0
40
0
40
0
40
0.0064516129032258064
40
0.012903225806451613
40
0.01935483870967742
40
0.025806451612903226
40
0.032258064516129031
40
0.03870967741935484
40
0.045161290322580649
40
0.051612903225806459
40
0.058064516129032268
40
0.064516129032258077
40
0.070967741935483886
40
0.077419354838709695
40
0.083870967741935504
40
0.090322580645161313
40
0.096774193548387122
40
0.10322580645161293
40
0.10967741935483874
40
0.11612903225806455
40
0.12258064516129036
40
0.12903225806451615
40
0.13548387096774195
40
0.14193548387096774
40
0.14838709677419354
40
0.15483870967741933
40
0.16129032258064513
40
0.16774193548387092
40
0.17419354838709672
40
0.18064516129032251
40
0.18709677419354831
40
0.1935483870967741
40
0.1999999999999999
40
0.2064516129032257
40
0.21290322580645149
40
0.21935483870967729
40
0.22580645161290308
40
0.23225806451612888
40
0.23870967741935467
40
0.24516129032258047
40
0.25161290322580626
40
0.25806451612903208
40
0.26451612903225791
40
0.27096774193548373
40
0.27741935483870955
40
0.28387096774193538
40
0.2903225806451612
40
0.29677419354838702
40
0.30322580645161284
40
0.30967741935483867
40
0.31612903225806449
40
0.32258064516129031
40
0.32903225806451614
40
0.33548387096774196
40
0.34193548387096778
40
0.34838709677419361
40
0.35483870967741943
40
0.36129032258064525
40
0.36774193548387107
40
0.3741935483870969
40
0.38064516129032272
40
0.38709677419354854
40
0.39354838709677437
40
0.40000000000000019
40
0.40645161290322601
40
0.41290322580645183
40
0.41935483870967766
40
0.42580645161290348
40
0.4322580645161293
40
0.43870967741935513
40
0.44516129032258095
40
0.45161290322580677
40
0.4580645161290326
40
0.46451612903225842
40
0.47096774193548424
40
0.47741935483871006
40
0.48387096774193589
40
0.49032258064516171
40
0.49677419354838753
40
0.5032258064516133
40
0.50967741935483912
40
0.51612903225806495
40
0.52258064516129077
40
0.52903225806451659
40
0.53548387096774241
40
0.54193548387096824
40
0.54838709677419406
40
0.55483870967741988
40
0.56129032258064571
40
0.56774193548387153
40
0.57419354838709735
40
0.58064516129032318
40
0.587096774193549
40
0.59354838709677482
40
0.60000000000000064
40
0.60645161290322647
40
0.61290322580645229
40
0.61935483870967811
40
0.62580645161290394
40
0.63225806451612976
40
0.63870967741935558
40
0.6451612903225814
40
0.65161290322580723
40
0.65806451612903305
40
0.66451612903225887
40
0.6709677419354847
40
0.67741935483871052
40
0.68387096774193634
40
0.69032258064516216
40
0.69677419354838799
40
0.70322580645161381
40
0.70967741935483963
40
0.71612903225806546
40
0.72258064516129128
40
0.7290322580645171
40
0.73548387096774293
40
0.74193548387096875
40
0.74838709677419457
40
0.75483870967742039
40
0.76129032258064622
40
0.76774193548387204
40
0.77419354838709786
40
0.78064516129032369
40
0.78709677419354951
40
0.79354838709677533
40
0.80000000000000115
40
0.80645161290322698
40
0.8129032258064528
40
0.81935483870967862
40
0.82580645161290445
40
0.83225806451613027
40
0.83870967741935609
40
0.84516129032258192
40
0.85161290322580774
40
0.85806451612903356
40
0.86451612903225938
40
0.87096774193548521
40
0.87741935483871103
40
0.88387096774193685
40
0.89032258064516268
40
0.8967741935483885
40
0.90322580645161432
40
0.90967741935484014
40
0.91612903225806597
40
0.92258064516129179
40
0.92903225806451761
40
0.93548387096774344
40
0.94193548387096926
40
0.94838709677419508
40
0.9548387096774209
40
0.96129032258064673
40
0.96774193548387255
40
0.97419354838709837
40
0.9806451612903242
40
0.98709677419355002
40
0.99354838709677584
40
1
40
1
40
1
40
1
40
1
40
1
41
1
41
1
41
1
41
1
41
1
41
1
41
1
41
1
41
1
41
1
41
1
41
1
41
1
41
1
41
1
41
1
41
1
41
1
41
1
41
1
41
1
41
1
41
1
41
1
41
1
41
1
41
1
41
1
41
1
41
1
41
1
41
1
41
1
41
1
41
1
41
1
41
1
41
1
41
1
41
1
41
1
41
1
41
1
41
1
41
1
41
1
41
1
41
1
41
1
41
1
41
1
41
1
41
1
41
1
41
1
41
1
41
1
41
1
41
1
41
1
41
1
41
1
41
1
41
1
41
1
41
1
41
1
41
1
41
1
41
1
41
1
41
1
41
1
41
1
41
1
41
1
41
1
41
1
41
1
41
1
41
1
41
1
41
1
41
1
41
1
41
1
41
1
41
1
41
1
41
1
41
1
41
1
41
1
41
1
41
1
41
1
41
1
41
1
41
1
41
1
41
1
41
1
41
1
41
1
41
1
41
1
41
1
41
1
41
1
41
1
41
1
41
1
41
1
41
1
41
1
41
1
41
1
41
1
41
1
41
1
41
1
41
1
41
1
41
1
41
1
41
1
41
1
41
1
41
1
41
1
41
1
41
1
41
1
41
1
41
1
41
1
41
1
41
1
41
1
41
1
41
1
41
1
41
1
41
1
41
1
41
1
41
1
41
1
41
1
41
1
41
1
41
1
41
1
41
1
41
1
41
1
41
1
41
1
41
1
41
1
10
6.4654280739276686
20
68.974714032197951
30
0
10
6.4693806405781924
20
68.987806100340777
30
0
10
6.4904053981589414
20
69.038723765088278
30
0
10
6.5612744514916956
20
69.189246432888609
30
0
10
6.7346742420594232
20
69.538727273703429
30
0
10
7.0700525538695027
20
70.197688383368373
30
0
10
7.4916202702812953
20
71.013720147784994
30
0
10
7.9595966449661946
20
71.907407010711125
30
0
10
8.436288114610857
20
72.804141658992663
30
0
10
8.8957797163142089
20
73.653828556570772
30
0
10
9.3356516942208945
20
74.454704032313771
30
0
10
9.7704646751607012
20
75.240151730364616
30
0
10
10.221015256235006
20
76.056936517303967
30
0
10
10.70511129785543
20
76.94651917159392
30
0
10
11.227580080371187
20
77.924822146200398
30
0
10
11.770972787391189
20
78.963386273296521
30
0
10
12.305747278493913
20
80.008827894176619
30
0
10
12.799684953621384
20
81.000818221334129
30
0
10
13.228260328103829
20
81.891874403902534
30
0
10
13.583077929478272
20
82.663490949289837
30
0
10
13.884982862059612
20
83.351112024486298
30
0
10
14.177345442272735
20
84.031579725530406
30
0
10
14.504636822830694
20
84.782648162711567
30
0
10
14.897660394941036
20
85.655273741516069
30
0
10
15.350749252995289
20
86.63027582842733
30
0
10
15.822441390250939
20
87.620914627939598
30
0
10
16.25972553475934
20
88.521462170838433
30
0
10
16.617501352545599
20
89.246682065258966
30
0
10
16.876942048033474
20
89.768525320450564
30
0
10
17.071989519261599
20
90.170335734791948
30
0
10
17.271828155654575
20
90.607263236696525
30
0
10
17.543237055922781
20
91.223962975189835
30
0
10
17.917884838499845
20
92.082606709433065
30
0
10
18.398227851125618
20
93.177804262084138
30
0
10
18.966487679659508
20
94.458302920316953
30
0
10
19.592357752021549
20
95.845873312866303
30
0
10
20.241390958949705
20
97.25574914702554
30
0
10
20.882754143127521
20
98.615536844273223
30
0
10
21.49815706569288
20
99.887072568550991
30
0
10
22.079764802866322
20
101.06036164846594
30
0
10
22.626588923069448
20
102.14366378857383
30
0
10
23.141520415488369
20
103.15518956512545
30
0
10
23.627862715167737
20
104.11357128516582
30
0
10
24.086618665114393
20
105.03014539218746
30
0
10
24.512096861735834
20
105.89722492681746
30
0
10
24.894568933477068
20
106.69310262433893
30
0
10
25.227997275023032
20
107.39884216400894
30
0
10
25.515531768871348
20
108.01022606281039
30
0
10
25.777559967891879
20
108.55471236798098
30
0
10
26.05354488124544
20
109.09681794938992
30
0
10
26.384273745994289
20
109.70767767623758
30
0
10
26.798216697046371
20
110.44192670476284
30
0
10
27.29437201571362
20
111.30866243298648
30
0
10
27.849946015231826
20
112.28242592136183
30
0
10
28.43048643139257
20
113.31812152220634
30
0
10
28.999572872812557
20
114.36513939562913
30
0
10
29.527752472357808
20
115.38050508074683
30
0
10
30.004112356005493
20
116.34565848777306
30
0
10
30.437604011722961
20
117.26900804224856
30
0
10
30.8481382349885
20
118.17424157710431
30
0
10
31.260282274439103
20
119.09229700545021
30
0
10
31.696281826516902
20
120.05230063636047
30
0
10
32.168450250329442
20
121.07184901585671
30
0
10
32.674748321446543
20
122.15105126133487
30
0
10
33.204471841646154
20
123.27862340191858
30
0
10
33.742083562681778
20
124.43577724501174
30
0
10
34.271852739224954
20
125.60104430073352
30
0
10
34.781977124997674
20
126.75455094715694
30
0
10
35.26933991450462
20
127.88288412148464
30
0
10
35.742765478873039
20
128.98264550387151
30
0
10
36.218433637494371
20
130.05727799580762
30
0
10
36.716288338837288
20
131.11473354087909
30
0
10
37.255994942520516
20
132.16477791079063
30
0
10
37.853245647959127
20
133.2165405436599
30
0
10
38.515542616269279
20
134.27574476094898
30
0
10
39.23932109857931
20
135.342718948357
30
0
10
40.013424684099803
20
136.41407215877337
30
0
10
40.821768951100509
20
137.48389880254268
30
0
10
41.646268629541737
20
138.54514453047284
30
0
10
42.469765285443152
20
139.59095017678197
30
0
10
43.278689175349847
20
140.61589481698076
30
0
10
44.066508873602011
20
141.61756170075378
30
0
10
44.833442887483521
20
142.59655606076993
30
0
10
45.584189658483638
20
143.55570519285646
30
0
10
46.326304048960232
20
144.4995179528627
30
0
10
47.068245971455767
20
145.43352878389231
30
0
10
47.817710674229488
20
146.3637110521224
30
0
10
48.579491086228003
20
147.29581288597262
30
0
10
49.354887064156884
20
148.23491144120507
30
0
10
50.142738721142891
20
149.18518351363181
30
0
10
50.940021519836606
20
150.14962448921716
30
0
10
51.742634031476157
20
151.1297760237394
30
0
10
52.546069187510362
20
152.12547724968533
30
0
10
53.346216653711807
20
153.13453861369806
30
0
10
54.139845244874763
20
154.1526652335524
30
0
10
54.924339561289173
20
155.17399874361882
30
0
10
55.697580058653003
20
156.19153895309981
30
0
10
56.457766353771206
20
157.1976120809762
30
0
10
57.203264947465897
20
158.18432072840545
30
0
10
57.932446374031088
20
159.14399723556852
30
0
10
58.643526364011549
20
160.06966714399692
30
0
10
59.334529116736206
20
160.95528753431424
30
0
10
60.003295915474339
20
161.79598478195499
30
0
10
60.647406235502189
20
162.58826708244553
30
0
10
61.264296442230687
20
163.330306490449
30
0
10
61.850900694514877
20
164.02204827997818
30
0
10
62.404941574338395
20
164.66593016329182
30
0
10
62.928787882598527
20
165.26861888927186
30
0
10
63.432383879671363
20
165.84229999176404
30
0
10
63.937225156678508
20
166.40658934705857
30
0
10
64.477969222086557
20
166.98892165310502
30
0
10
65.090417414509133
20
167.61609755029551
30
0
10
65.800293457273369
20
168.30628335989104
30
0
10
66.613077506890775
20
169.06185856486218
30
0
10
67.499944545576597
20
169.85931525882873
30
0
10
68.407486877999474
20
170.6570104034729
30
0
10
69.274776457862032
20
171.40840062014621
30
0
10
70.048587532220822
20
172.07393946632206
30
0
10
70.698034374821376
20
172.63244229806219
30
0
10
71.232717934458236
20
173.09530690013628
30
0
10
71.708890531691296
20
173.51105798409947
30
0
10
72.198875819220817
20
173.94021094985871
30
0
10
72.769338593607941
20
174.43732578513482
30
0
10
73.451041427960206
20
175.02606809411486
30
0
10
74.241434976843721
20
175.70142810860986
30
0
10
75.11842656184605
20
176.44121854632294
30
0
10
76.051004763123245
20
177.21493382331786
30
0
10
77.010140490681806
20
177.99291192808752
30
0
10
77.982088181658966
20
178.75730677679016
30
0
10
78.970996433430486
20
179.50484114708286
30
0
10
79.989177902466764
20
180.24004953063059
30
0
10
81.050681974235744
20
180.97106176774736
30
0
10
82.163447400064996
20
181.70430758920088
30
0
10
83.32223272319473
20
182.43978514127372
30
0
10
84.500802016130137
20
183.16584259318284
30
0
10
85.645610607079533
20
183.8548740268715
30
0
10
86.693875865257709
20
184.47361210087675
30
0
10
87.589547171288189
20
184.9921545492717
30
0
10
88.301627126800781
20
185.39442409104919
30
0
10
88.837947163291545
20
185.6858436405204
30
0
10
89.269646859428946
20
185.90757200138376
30
0
10
89.71688090059672
20
186.12703560109765
30
0
10
90.302353376744051
20
186.40916490629343
30
0
10
91.106017367323844
20
186.78764561257992
30
0
10
92.157532808061234
20
187.26250108221217
30
0
10
93.449763714436443
20
187.81202200968951
30
0
10
94.945408007591709
20
188.40004177917245
30
0
10
96.586455631986354
20
188.98509893380816
30
0
10
98.302491370608195
20
189.52890220569861
30
0
10
100.0193359788186
20
190.00482492370875
30
0
10
101.66795652739114
20
190.40712218994639
30
0
10
103.18589261604914
20
190.74668039613627
30
0
10
104.51806769999691
20
191.04562531969094
30
0
10
105.61777735196594
20
191.33243194793471
30
0
10
106.44771704488733
20
191.63663420075511
30
0
10
106.98073535869474
20
191.98414999794903
30
0
10
107.15722025293276
20
192.30984137562544
30
0
10
107.14683089236388
20
192.58313626819711
30
0
10
107.07644829703752
20
192.77825778618418
30
0
10
107.02539376362341
20
192.87904833001278
30
0
0
ARC
5
140
100
AcDbEntity
8
0
100
AcDbCircle
10
3.1272963795209634
20
195.07684408231046
30
0
40
3.1749999999999901
210
0
220
0
230
1
100
AcDbArc
50
-90
51
0
0
ENDSEC
0
SECTION
2
OBJECTS
0
DICTIONARY
5
C
100
AcDbDictionary
3
ACAD_GROUP
350
D
3
ACAD_MLINESTYLE
350
17
0
DICTIONARY
5
D
100
AcDbDictionary
0
DICTIONARY
5
1A
330
C
100
AcDbDictionary
0
DICTIONARY
5
17
100
AcDbDictionary
0
ENDSEC
0
EOF
