  0
SECTION
  2
HEADER
  9
$ACADVER
  1
AC1014
  9
$HANDSEED
  5
FFFF
  9
$MEASUREMENT
 70
     1
  0
ENDSEC
  0
SECTION
  2
TABLES
  0
TABLE
  2
VPORT
  5
8
330
0
100
AcDbSymbolTable
 70
     4
  0
VPORT
  5
2E
330
8
100
AcDbSymbolTableRecord
100
AcDbViewportTableRecord
  2
*ACTIVE
 70
     0
 10
0.0
 20
0.0
 11
1.0
 21
1.0
 12
210.0
 22
148.5
 13
0.0
 23
0.0
 14
10.0
 24
10.0
 15
10.0
 25
10.0
 16
0.0
 26
0.0
 36
1.0
 17
0.0
 27
0.0
 37
0.0
 40
341.0
 41
1.24
 42
50.0
 43
0.0
 44
0.0
 50
0.0
 51
0.0
 71
     0
 72
   100
 73
     1
 74
     3
 75
     0
 76
     0
 77
     0
 78
     0
  0
ENDTAB
  0
TABLE
  2
LTYPE
  5
5
330
0
100
AcDbSymbolTable
 70
     1
  0
LTYPE
  5
14
330
5
100
AcDbSymbolTableRecord
100
AcDbLinetypeTableRecord
  2
BYBLOCK
 70
     0
  3

 72
    65
 73
     0
 40
0.0
  0
LTYPE
  5
15
330
5
100
AcDbSymbolTableRecord
100
AcDbLinetypeTableRecord
  2
BYLAYER
 70
     0
  3

 72
    65
 73
     0
 40
0.0
  0
LTYPE
  5
16
330
5
100
AcDbSymbolTableRecord
100
AcDbLinetypeTableRecord
  2
CONTINUOUS
 70
     0
  3
Solid line
 72
    65
 73
     0
 40
0.0
  0
ENDTAB
  0
TABLE
  2
LAYER
  5
2
100
AcDbSymbolTable
 70
2
  0
LAYER
  5
50
100
AcDbSymbolTableRecord
100
AcDbLayerTableRecord
  2
0
 70
0
  6
CONTINUOUS
  0
LAYER
  5
51
100
AcDbSymbolTableRecord
100
AcDbLayerTableRecord
  2
Layer_1
 70
0
  6
CONTINUOUS
  0
ENDTAB
  0
TABLE
  2
STYLE
  5
3
330
0
100
AcDbSymbolTable
 70
     1
  0
STYLE
  5
11
330
3
100
AcDbSymbolTableRecord
100
AcDbTextStyleTableRecord
  2
STANDARD
 70
     0
 40
0.0
 41
1.0
 50
0.0
 71
     0
 42
2.5
  3
txt
  4

  0
ENDTAB
  0
TABLE
  2
VIEW
  5
6
330
0
100
AcDbSymbolTable
 70
     0
  0
ENDTAB
  0
TABLE
  2
UCS
  5
7
330
0
100
AcDbSymbolTable
 70
     0
  0
ENDTAB
  0
TABLE
  2
APPID
  5
9
330
0
100
AcDbSymbolTable
 70
     2
  0
APPID
  5
12
330
9
100
AcDbSymbolTableRecord
100
AcDbRegAppTableRecord
  2
ACAD
 70
     0
  0
ENDTAB
  0
TABLE
  2
DIMSTYLE
  5
A
330
0
100
AcDbSymbolTable
 70
     1
  0
DIMSTYLE
105
27
330
A
100
AcDbSymbolTableRecord
100
AcDbDimStyleTableRecord
  2
ISO-25
 70
     0
  3

  4

  5

  6

  7

 40
1.0
 41
2.5
 42
0.625
 43
3.75
 44
1.25
 45
0.0
 46
0.0
 47
0.0
 48
0.0
140
2.5
141
2.5
142
0.0
143
0.03937007874016
144
1.0
145
0.0
146
1.0
147
0.625
 71
     0
 72
     0
 73
     0
 74
     0
 75
     0
 76
     0
 77
     1
 78
     8
170
     0
171
     3
172
     1
173
     0
174
     0
175
     0
176
     0
177
     0
178
     0
270
     2
271
     2
272
     2
273
     2
274
     3
340
11
275
     0
280
     0
281
     0
282
     0
283
     0
284
     8
285
     0
286
     0
287
     3
288
     0
  0
ENDTAB
  0
TABLE
  2
BLOCK_RECORD
  5
1
330
0
100
AcDbSymbolTable
 70
     1
  0
BLOCK_RECORD
  5
1F
330
1
100
AcDbSymbolTableRecord
100
AcDbBlockTableRecord
  2
*MODEL_SPACE
  0
BLOCK_RECORD
  5
1B
330
1
100
AcDbSymbolTableRecord
100
AcDbBlockTableRecord
  2
*PAPER_SPACE
  0
ENDTAB
  0
ENDSEC
  0
SECTION
  2
BLOCKS
  0
BLOCK
  5
20
330
1F
100
AcDbEntity
  8
0
100
AcDbBlockBegin
  2
*MODEL_SPACE
 70
     0
 10
0.0
 20
0.0
 30
0.0
  3
*MODEL_SPACE
  1

  0
ENDBLK
  5
21
330
1F
100
AcDbEntity
  8
0
100
AcDbBlockEnd
  0
BLOCK
  5
1C
330
1B
100
AcDbEntity
 67
     1
  8
0
100
AcDbBlockBegin
  2
*PAPER_SPACE
  1

  0
ENDBLK
  5
1D
330
1B
100
AcDbEntity
 67
     1
  8
0
100
AcDbBlockEnd
  0
ENDSEC
  0
SECTION
  2
ENTITIES
  0
LWPOLYLINE
  5
100
100
AcDbEntity
  8
Layer_1
 62
7
100
AcDbPolyline
 90
24
 70
1
 10
0.106101
 20
0.341614
 30
0.0
 10
0.390735
 20
1.706207
 30
0.0
 10
0.617270
 20
2.772957
 30
0.0
 10
1.527558
 20
2.772957
 30
0.0
 10
2.303830
 20
2.748615
 30
0.0
 10
2.415878
 20
2.699799
 30
0.0
 10
2.437601
 20
2.611931
 30
0.0
 10
2.358509
 20
2.477655
 30
0.0
 10
1.965980
 20
2.450826
 30
0.0
 10
1.494602
 20
2.450826
 30
0.0
 10
1.415020
 20
2.048023
 30
0.0
 10
1.335684
 20
1.647681
 30
0.0
 10
1.685740
 20
1.647681
 30
0.0
 10
1.972081
 20
1.618391
 30
0.0
 10
2.035795
 20
1.486575
 30
0.0
 10
1.966712
 20
1.354759
 30
0.0
 10
1.644486
 20
1.325470
 30
0.0
 10
1.253177
 20
1.325470
 30
0.0
 10
1.157728
 20
0.822601
 30
0.0
 10
1.064234
 20
0.351456
 30
0.0
 10
0.972937
 20
0.122009
 30
0.0
 10
0.813043
 20
0.046311
 30
0.0
 10
0.514251
 20
0.038903
 30
0.0
 10
0.048490
 20
0.038903
 30
0.0
  0
LWPOLYLINE
  5
101
100
AcDbEntity
  8
Layer_1
 62
7
100
AcDbPolyline
 90
19
 70
1
 10
2.678783
 20
0.121903
 30
0.0
 10
3.121845
 20
2.270062
 30
0.0
 10
3.105970
 20
2.421404
 30
0.0
 10
2.840867
 20
2.450720
 30
0.0
 10
2.578447
 20
2.480009
 30
0.0
 10
2.517907
 20
2.611825
 30
0.0
 10
2.543784
 20
2.702154
 30
0.0
 10
2.683659
 20
2.750970
 30
0.0
 10
3.683049
 20
2.772931
 30
0.0
 10
4.678531
 20
2.748589
 30
0.0
 10
4.821094
 20
2.702234
 30
0.0
 10
4.848434
 20
2.616773
 30
0.0
 10
4.776422
 20
2.484957
 30
0.0
 10
4.469329
 20
2.436141
 30
0.0
 10
4.090469
 20
2.411800
 30
0.0
 10
3.847334
 20
1.225431
 30
0.0
 10
3.604446
 20
0.039062
 30
0.0
 10
3.141612
 20
0.039062
 30
0.0
 10
2.678777
 20
0.122062
 30
0.0
  0
LWPOLYLINE
  5
102
100
AcDbEntity
  8
Layer_1
 62
7
100
AcDbPolyline
 90
15
 70
1
 10
4.736874
 20
0.903194
 30
0.0
 10
5.021752
 20
2.270221
 30
0.0
 10
5.117198
 20
2.773089
 30
0.0
 10
5.869305
 20
2.773089
 30
0.0
 10
6.845991
 20
2.670563
 30
0.0
 10
7.114269
 20
2.531418
 30
0.0
 10
7.259759
 20
2.328800
 30
0.0
 10
7.337142
 20
1.586720
 30
0.0
 10
7.288564
 20
1.179049
 30
0.0
 10
7.187257
 20
0.861707
 30
0.0
 10
6.918736
 20
0.471128
 30
0.0
 10
6.555745
 20
0.219693
 30
0.0
 10
6.041647
 20
0.085443
 30
0.0
 10
5.320788
 20
0.043930
 30
0.0
 10
4.547445
 20
0.039167
 30
0.0
  0
LWPOLYLINE
  5
103
100
AcDbEntity
  8
Layer_1
 62
7
100
AcDbPolyline
 90
12
 70
1
 10
6.043600
 20
0.568865
 30
0.0
 10
6.326279
 20
1.330497
 30
0.0
 10
6.441744
 20
2.179997
 30
0.0
 10
6.380961
 20
2.365524
 30
0.0
 10
6.216429
 20
2.411905
 30
0.0
 10
6.102674
 20
2.392326
 30
0.0
 10
6.021872
 20
2.297129
 30
0.0
 10
5.848310
 20
1.647786
 30
0.0
 10
5.612989
 20
0.502904
 30
0.0
 10
5.633256
 20
0.373549
 30
0.0
 10
5.728459
 20
0.361378
 30
0.0
 10
6.043608
 20
0.568865
 30
0.0
  0
LWPOLYLINE
  5
104
100
AcDbEntity
  8
Layer_1
 62
7
100
AcDbPolyline
 90
11
 70
1
 10
7.419903
 20
0.109944
 30
0.0
 10
7.701119
 20
1.452550
 30
0.0
 10
7.982335
 20
2.748774
 30
0.0
 10
8.470067
 20
2.773116
 30
0.0
 10
8.866748
 20
2.748774
 30
0.0
 10
8.922649
 20
2.704853
 30
0.0
 10
8.918257
 20
2.631616
 30
0.0
 10
8.616782
 20
1.264589
 30
0.0
 10
8.354851
 20
0.039167
 30
0.0
 10
7.887379
 20
0.039167
 30
0.0
 10
7.419906
 20
0.107510
 30
0.0
  0
LWPOLYLINE
  5
105
100
AcDbEntity
  8
Layer_1
 62
7
100
AcDbPolyline
 90
37
 70
1
 10
8.817686
 20
0.166300
 30
0.0
 10
8.866263
 20
0.368919
 30
0.0
 10
9.306883
 20
0.652077
 30
0.0
 10
9.686231
 20
0.876682
 30
0.0
 10
10.006748
 20
1.159840
 30
0.0
 10
10.248663
 20
1.477182
 30
0.0
 10
10.393663
 20
1.809183
 30
0.0
 10
10.450541
 20
2.270538
 30
0.0
 10
10.391223
 20
2.377959
 30
0.0
 10
10.271608
 20
2.412117
 30
0.0
 10
10.121480
 20
2.334012
 30
0.0
 10
9.993810
 20
2.070380
 30
0.0
 10
9.840753
 20
1.772564
 30
0.0
 10
9.482641
 20
1.728617
 30
0.0
 10
9.089623
 20
1.728617
 30
0.0
 10
9.145770
 20
2.028867
 30
0.0
 10
9.279054
 20
2.424341
 30
0.0
 10
9.718452
 20
2.675775
 30
0.0
 10
10.391467
 20
2.773407
 30
0.0
 10
10.844049
 20
2.734354
 30
0.0
 10
11.122579
 20
2.536630
 30
0.0
 10
11.333979
 20
2.182670
 30
0.0
 10
11.322496
 20
1.784762
 30
0.0
 10
11.097428
 20
1.374656
 30
0.0
 10
10.667060
 20
0.984077
 30
0.0
 10
10.297719
 20
0.722879
 30
0.0
 10
10.707095
 20
0.698538
 30
0.0
 10
10.960968
 20
0.671682
 30
0.0
 10
11.089371
 20
0.603340
 30
0.0
 10
11.116467
 20
0.464195
 30
0.0
 10
11.065694
 20
0.220090
 30
0.0
 10
11.016870
 20
0.117564
 30
0.0
 10
10.873333
 20
0.063853
 30
0.0
 10
9.892985
 20
0.039511
 30
0.0
 10
8.967073
 20
0.061472
 30
0.0
 10
8.827931
 20
0.098090
 30
0.0
 10
8.817691
 20
0.166432
 30
0.0
  0
LWPOLYLINE
  5
106
100
AcDbEntity
  8
Layer_1
 62
7
100
AcDbPolyline
 90
31
 70
1
 10
11.841002
 20
0.144472
 30
0.0
 10
11.638635
 20
0.305577
 30
0.0
 10
11.547824
 20
0.564341
 30
0.0
 10
11.561741
 20
0.986643
 30
0.0
 10
11.672811
 20
1.633552
 30
0.0
 10
11.899591
 20
2.673447
 30
0.0
 10
12.072664
 20
2.744250
 30
0.0
 10
12.409051
 20
2.773539
 30
0.0
 10
12.736889
 20
2.756341
 30
0.0
 10
12.884334
 20
2.692867
 30
0.0
 10
12.676350
 20
1.645643
 30
0.0
 10
12.552588
 20
0.998761
 30
0.0
 10
12.542348
 20
0.635037
 30
0.0
 10
12.662938
 20
0.476366
 30
0.0
 10
12.931459
 20
0.442182
 30
0.0
 10
13.149696
 20
0.481235
 30
0.0
 10
13.304705
 20
0.656998
 30
0.0
 10
13.603984
 20
1.767696
 30
0.0
 10
13.811966
 20
2.607433
 30
0.0
 10
13.903510
 20
2.727052
 30
0.0
 10
14.037037
 20
2.758802
 30
0.0
 10
14.213528
 20
2.751393
 30
0.0
 10
14.220355
 20
2.639104
 30
0.0
 10
13.982835
 20
1.589419
 30
0.0
 10
13.688924
 20
0.571484
 30
0.0
 10
13.509991
 20
0.329813
 30
0.0
 10
13.260022
 20
0.173576
 30
0.0
 10
12.938529
 20
0.080813
 30
0.0
 10
12.533305
 20
0.046629
 30
0.0
 10
12.136868
 20
0.066208
 30
0.0
 10
11.841007
 20
0.144313
 30
0.0
  0
LWPOLYLINE
  5
107
100
AcDbEntity
  8
Layer_1
 62
7
100
AcDbPolyline
 90
17
 70
1
 10
14.089756
 20
0.075971
 30
0.0
 10
14.370969
 20
1.406353
 30
0.0
 10
14.652185
 20
2.746525
 30
0.0
 10
15.535134
 20
2.761077
 30
0.0
 10
16.175925
 20
2.714696
 30
0.0
 10
16.550148
 20
2.602406
 30
0.0
 10
16.724930
 20
2.385130
 30
0.0
 10
16.768382
 20
2.018971
 30
0.0
 10
16.697347
 20
1.599103
 30
0.0
 10
16.482771
 20
1.284195
 30
0.0
 10
16.122709
 20
1.066945
 30
0.0
 10
15.615692
 20
0.949760
 30
0.0
 10
15.221697
 20
0.903379
 30
0.0
 10
15.132106
 20
0.471313
 30
0.0
 10
15.042764
 20
0.041681
 30
0.0
 10
14.566259
 20
0.041681
 30
0.0
 10
14.089756
 20
0.075865
 30
0.0
  0
LWPOLYLINE
  5
108
100
AcDbEntity
  8
Layer_1
 62
7
100
AcDbPolyline
 90
11
 70
1
 10
15.750929
 20
1.457524
 30
0.0
 10
15.893490
 20
2.038498
 30
0.0
 10
15.866880
 20
2.348538
 30
0.0
 10
15.730667
 20
2.433972
 30
0.0
 10
15.575412
 20
2.372932
 30
0.0
 10
15.463855
 20
1.992116
 30
0.0
 10
15.324224
 20
1.386721
 30
0.0
 10
15.341316
 20
1.267103
 30
0.0
 10
15.453851
 20
1.245142
 30
0.0
 10
15.608128
 20
1.311050
 30
0.0
 10
15.750934
 20
1.457524
 30
0.0
  0
LWPOLYLINE
  5
109
100
AcDbEntity
  8
Layer_1
 62
7
100
AcDbPolyline
 90
17
 70
1
 10
16.701744
 20
0.222313
 30
0.0
 10
16.971974
 20
1.467287
 30
0.0
 10
17.223898
 20
2.719564
 30
0.0
 10
18.114414
 20
2.758643
 30
0.0
 10
19.005174
 20
2.731788
 30
0.0
 10
19.239519
 20
2.470590
 30
0.0
 10
19.433832
 20
2.167879
 30
0.0
 10
19.472157
 20
1.706524
 30
0.0
 10
19.345707
 20
0.952221
 30
0.0
 10
19.199974
 20
0.647076
 30
0.0
 10
19.008347
 20
0.415168
 30
0.0
 10
18.755936
 20
0.249168
 30
0.0
 10
18.422970
 20
0.134444
 30
0.0
 10
17.443352
 20
0.044115
 30
0.0
 10
16.766191
 20
0.063694
 30
0.0
 10
16.690515
 20
0.117405
 30
0.0
 10
16.701733
 20
0.222366
 30
0.0
  0
LWPOLYLINE
  5
10a
100
AcDbEntity
  8
Layer_1
 62
7
100
AcDbPolyline
 90
12
 70
1
 10
18.241584
 20
0.747221
 30
0.0
 10
18.498876
 20
1.606485
 30
0.0
 10
18.559905
 20
2.333932
 30
0.0
 10
18.324582
 20
2.451117
 30
0.0
 10
18.215708
 20
2.429156
 30
0.0
 10
18.135885
 20
2.319301
 30
0.0
 10
17.953534
 20
1.586985
 30
0.0
 10
17.728709
 20
0.534866
 30
0.0
 10
17.726857
 20
0.385958
 30
0.0
 10
17.876495
 20
0.376168
 30
0.0
 10
18.063485
 20
0.478695
 30
0.0
 10
18.241685
 20
0.747221
 30
0.0
  0
LWPOLYLINE
  5
10b
100
AcDbEntity
  8
Layer_1
 62
7
100
AcDbPolyline
 90
10
 70
1
 10
19.554268
 20
0.119839
 30
0.0
 10
20.044442
 20
2.470643
 30
0.0
 10
20.123048
 20
2.773327
 30
0.0
 10
20.561958
 20
2.773327
 30
0.0
 10
20.918115
 20
2.746472
 30
0.0
 10
21.001359
 20
2.631748
 30
0.0
 10
20.740158
 20
1.267156
 30
0.0
 10
20.478471
 20
0.041734
 30
0.0
 10
20.016370
 20
0.041734
 30
0.0
 10
19.554268
 20
0.119839
 30
0.0
  0
ENDSEC
  0
SECTION
  2
OBJECTS
  0
DICTIONARY
  5
C
330
0
100
AcDbDictionary
  3
ACAD_GROUP
350
D
  3
ACAD_MLINESTYLE
350
17
  0
DICTIONARY
  5
D
330
C
100
AcDbDictionary
  0
DICTIONARY
  5
1A
330
C
100
AcDbDictionary
  0
DICTIONARY
  5
17
330
C
100
AcDbDictionary
  3
STANDARD
350
18
  0
DICTIONARY
  5
19
330
C
100
AcDbDictionary
  0
ENDSEC
  0
EOF
