999
"DXF R12 Output" (www.mydxf.blogspot.com)
 0 
SECTION
 2 
HEADER
 9 
$ACADVER
 1 
AC1009
 9 
$EXTMIN
 10 
 0 
 20 
 0 
 9 
$EXTMAX
 10 
 8.5 
 20 
 11 
 0 
ENDSEC
 0 
SECTION
 2 
ENTITIES
0
LINE
8
Image
10
33.305700
20
-9.832260
11
33.648318
21
-8.999112
0
LINE
8
Image
10
33.648318
20
-8.999112
11
33.433970
21
-7.394402
0
LINE
8
Image
10
33.433970
20
-7.394402
11
33.223291
21
-6.446588
0
LINE
8
Image
10
33.223291
20
-6.446588
11
32.681961
21
-6.411056
0
LINE
8
Image
10
32.681961
20
-6.411056
11
32.140659
21
-6.375525
0
LINE
8
Image
10
32.140659
20
-6.375525
11
32.380068
21
-7.490955
0
LINE
8
Image
10
32.380068
20
-7.490955
11
32.542600
21
-8.818645
0
LINE
8
Image
10
32.542600
20
-8.818645
11
32.236643
21
-9.230774
0
LINE
8
Image
10
32.236643
20
-9.230774
11
31.732566
21
-8.842154
0
LINE
8
Image
10
31.732566
20
-8.842154
11
31.345160
21
-7.719024
0
LINE
8
Image
10
31.345160
20
-7.719024
11
31.030285
21
-6.520684
0
LINE
8
Image
10
31.030285
20
-6.520684
11
30.491749
21
-6.387362
0
LINE
8
Image
10
30.491749
20
-6.387362
11
30.017221
21
-6.552377
0
LINE
8
Image
10
30.017221
20
-6.552377
11
30.280365
21
-7.723567
0
LINE
8
Image
10
30.280365
20
-7.723567
11
30.874245
21
-9.388427
0
LINE
8
Image
10
30.874245
20
-9.388427
11
31.512264
21
-9.987895
0
LINE
8
Image
10
31.512264
20
-9.987895
11
32.375412
21
-10.178592
0
LINE
8
Image
10
32.375412
20
-10.178592
11
32.914964
21
-10.113850
0
LINE
8
Image
10
32.914964
20
-10.113850
11
33.305700
21
-9.832277
0
LINE
8
Image
10
33.305700
20
-9.832277
11
33.305700
21
-9.832260
0
LINE
8
Image
10
31.405810
20
-9.631318
11
30.851695
21
-8.930702
0
LINE
8
Image
10
30.851695
20
-8.930702
11
30.475408
21
-7.643292
0
LINE
8
Image
10
30.475408
20
-7.643292
11
30.254428
21
-6.624302
0
LINE
8
Image
10
30.254428
20
-6.624302
11
30.573600
21
-6.624300
0
LINE
8
Image
10
30.573600
20
-6.624300
11
30.877073
21
-6.764056
0
LINE
8
Image
10
30.877073
20
-6.764056
11
31.102117
21
-7.601719
0
LINE
8
Image
10
31.102117
20
-7.601719
11
31.451762
21
-8.825209
0
LINE
8
Image
10
31.451762
20
-8.825209
11
31.868293
21
-9.345739
0
LINE
8
Image
10
31.868293
20
-9.345739
11
32.319989
21
-9.450048
0
LINE
8
Image
10
32.319989
20
-9.450048
11
32.659615
21
-9.165794
0
LINE
8
Image
10
32.659615
20
-9.165794
11
32.798299
21
-8.759846
0
LINE
8
Image
10
32.798299
20
-8.759846
11
32.662353
21
-7.870903
0
LINE
8
Image
10
32.662353
20
-7.870903
11
32.487488
21
-6.774523
0
LINE
8
Image
10
32.487488
20
-6.774523
11
32.753934
21
-6.624296
0
LINE
8
Image
10
32.753934
20
-6.624296
11
33.024444
21
-6.758295
0
LINE
8
Image
10
33.024444
20
-6.758295
11
33.227841
21
-7.447396
0
LINE
8
Image
10
33.227841
20
-7.447396
11
33.413600
21
-8.901176
0
LINE
8
Image
10
33.413600
20
-8.901176
11
33.178114
21
-9.704662
0
LINE
8
Image
10
33.178114
20
-9.704662
11
32.333452
21
-9.956235
0
LINE
8
Image
10
32.333452
20
-9.956235
11
31.405788
21
-9.631313
0
LINE
8
Image
10
31.405788
20
-9.631313
11
31.405800
21
-9.631320
0
LINE
8
Image
10
29.949620
20
-10.008369
11
30.334684
21
-9.754002
0
LINE
8
Image
10
30.334684
20
-9.754002
11
29.699600
21
-8.921362
0
LINE
8
Image
10
29.699600
20
-8.921362
11
28.543420
21
-9.145587
0
LINE
8
Image
10
28.543420
20
-9.145587
11
29.073151
21
-8.720899
0
LINE
8
Image
10
29.073151
20
-8.720899
11
29.627350
21
-8.401960
0
LINE
8
Image
10
29.627350
20
-8.401960
11
29.804811
21
-8.011026
0
LINE
8
Image
10
29.804811
20
-8.011026
11
29.730135
21
-7.324041
0
LINE
8
Image
10
29.730135
20
-7.324041
11
29.281712
21
-6.695589
0
LINE
8
Image
10
29.281712
20
-6.695589
11
28.461180
21
-6.421890
0
LINE
8
Image
10
28.461180
20
-6.421890
11
27.445800
21
-6.501251
0
LINE
8
Image
10
27.445800
20
-6.501251
11
27.045271
21
-6.769080
0
LINE
8
Image
10
27.045271
20
-6.769080
11
27.310447
21
-7.268641
0
LINE
8
Image
10
27.310447
20
-7.268641
11
27.598991
21
-7.538276
0
LINE
8
Image
10
27.598991
20
-7.538276
11
27.904129
21
-7.475989
0
LINE
8
Image
10
27.904129
20
-7.475989
11
28.676006
21
-7.451351
0
LINE
8
Image
10
28.676006
20
-7.451351
11
28.113228
21
-7.836386
0
LINE
8
Image
10
28.113228
20
-7.836386
11
27.427146
21
-8.384800
0
LINE
8
Image
10
27.427146
20
-8.384800
11
27.376290
21
-9.129499
0
LINE
8
Image
10
27.376290
20
-9.129499
11
27.853245
21
-9.879250
0
LINE
8
Image
10
27.853245
20
-9.879250
11
28.827926
21
-10.145385
0
LINE
8
Image
10
28.827926
20
-10.145385
11
29.949616
21
-10.008366
0
LINE
8
Image
10
29.949616
20
-10.008366
11
29.949600
21
-10.008400
0
LINE
8
Image
10
28.032180
20
-9.758182
11
27.616157
21
-9.227605
0
LINE
8
Image
10
27.616157
20
-9.227605
11
27.538631
21
-8.584082
0
LINE
8
Image
10
27.538631
20
-8.584082
11
28.195192
21
-8.037700
0
LINE
8
Image
10
28.195192
20
-8.037700
11
28.812552
21
-7.632373
0
LINE
8
Image
10
28.812552
20
-7.632373
11
28.740303
21
-7.230235
0
LINE
8
Image
10
28.740303
20
-7.230235
11
28.080271
21
-7.176669
0
LINE
8
Image
10
28.080271
20
-7.176669
11
27.650701
21
-7.243302
0
LINE
8
Image
10
27.650701
20
-7.243302
11
27.426419
21
-7.054326
0
LINE
8
Image
10
27.426419
20
-7.054326
11
27.333822
21
-6.820420
0
LINE
8
Image
10
27.333822
20
-6.820420
11
27.637803
21
-6.664069
0
LINE
8
Image
10
27.637803
20
-6.664069
11
28.278729
21
-6.525046
0
LINE
8
Image
10
28.278729
20
-6.525046
11
28.870633
21
-6.699544
0
LINE
8
Image
10
28.870633
20
-6.699544
11
29.431577
21
-7.212511
0
LINE
8
Image
10
29.431577
20
-7.212511
11
29.601277
21
-7.905818
0
LINE
8
Image
10
29.601277
20
-7.905818
11
28.972176
21
-8.527186
0
LINE
8
Image
10
28.972176
20
-8.527186
11
28.342482
21
-9.085760
0
LINE
8
Image
10
28.342482
20
-9.085760
11
28.621684
21
-9.426797
0
LINE
8
Image
10
28.621684
20
-9.426797
11
29.336073
21
-9.309872
0
LINE
8
Image
10
29.336073
20
-9.309872
11
29.704429
21
-9.182929
0
LINE
8
Image
10
29.704429
20
-9.182929
11
29.918212
21
-9.382686
0
LINE
8
Image
10
29.918212
20
-9.382686
11
30.041091
21
-9.627260
0
LINE
8
Image
10
30.041091
20
-9.627260
11
29.899585
21
-9.793517
0
LINE
8
Image
10
29.899585
20
-9.793517
11
28.985327
21
-9.939256
0
LINE
8
Image
10
28.985327
20
-9.939256
11
28.032179
21
-9.758182
0
LINE
8
Image
10
28.032179
20
-9.758182
11
28.032200
21
-9.758150
0
LINE
8
Image
10
27.135355
20
-10.089733
11
26.779925
21
-8.238783
0
LINE
8
Image
10
26.779925
20
-8.238783
11
26.424946
21
-6.431993
0
LINE
8
Image
10
26.424946
20
-6.431993
11
25.248646
21
-6.387346
0
LINE
8
Image
10
25.248646
20
-6.387346
11
23.886166
21
-6.573528
0
LINE
8
Image
10
23.886166
20
-6.573528
11
23.705967
21
-7.193824
0
LINE
8
Image
10
23.705967
20
-7.193824
11
23.995188
21
-7.904741
0
LINE
8
Image
10
23.995188
20
-7.904741
11
24.208632
21
-8.220209
0
LINE
8
Image
10
24.208632
20
-8.220209
11
24.113664
21
-8.402270
0
LINE
8
Image
10
24.113664
20
-8.402270
11
23.943258
21
-8.958925
0
LINE
8
Image
10
23.943258
20
-8.958925
11
24.122469
21
-9.640745
0
LINE
8
Image
10
24.122469
20
-9.640745
11
24.673310
21
-10.051236
0
LINE
8
Image
10
24.673310
20
-10.051236
11
27.135360
21
-10.089732
0
LINE
8
Image
10
27.135360
20
-10.089732
11
27.135300
21
-10.089700
0
LINE
8
Image
10
24.647740
20
-9.788287
11
24.210352
21
-9.327870
0
LINE
8
Image
10
24.210352
20
-9.327870
11
24.109514
21
-8.772909
0
LINE
8
Image
10
24.109514
20
-8.772909
11
24.501915
21
-8.405766
0
LINE
8
Image
10
24.501915
20
-8.405766
11
24.745247
21
-8.257966
0
LINE
8
Image
10
24.745247
20
-8.257966
11
24.598915
21
-8.121201
0
LINE
8
Image
10
24.598915
20
-8.121201
11
24.071583
21
-7.672694
0
LINE
8
Image
10
24.071583
20
-7.672694
11
23.959767
21
-7.121035
0
LINE
8
Image
10
23.959767
20
-7.121035
11
23.996117
21
-6.683506
0
LINE
8
Image
10
23.996117
20
-6.683506
11
25.123477
21
-6.649922
0
LINE
8
Image
10
25.123477
20
-6.649922
11
26.250867
21
-6.616337
0
LINE
8
Image
10
26.250867
20
-6.616337
11
26.527106
21
-8.012407
0
LINE
8
Image
10
26.527106
20
-8.012407
11
26.863910
21
-9.675037
0
LINE
8
Image
10
26.863910
20
-9.675037
11
26.783562
21
-9.905641
0
LINE
8
Image
10
26.783562
20
-9.905641
11
25.934215
21
-9.939846
0
LINE
8
Image
10
25.934215
20
-9.939846
11
24.647735
21
-9.788293
0
LINE
8
Image
10
24.647735
20
-9.788293
11
24.647800
21
-9.788320
0
LINE
8
Image
10
26.109120
20
-9.082680
11
25.903013
21
-8.556985
0
LINE
8
Image
10
25.903013
20
-8.556985
11
25.446067
21
-8.476382
0
LINE
8
Image
10
25.446067
20
-8.476382
11
24.888961
21
-8.603410
0
LINE
8
Image
10
24.888961
20
-8.603410
11
24.766279
21
-8.907166
0
LINE
8
Image
10
24.766279
20
-8.907166
11
24.956102
21
-9.342550
0
LINE
8
Image
10
24.956102
20
-9.342550
11
25.616360
21
-9.467715
0
LINE
8
Image
10
25.616360
20
-9.467715
11
26.182000
21
-9.467720
0
LINE
8
Image
10
26.182000
20
-9.467720
11
26.109046
21
-9.082685
0
LINE
8
Image
10
25.024556
20
-8.904970
11
25.065562
21
-8.684018
0
LINE
8
Image
10
25.065562
20
-8.684018
11
25.409591
21
-8.638383
0
LINE
8
Image
10
25.409591
20
-8.638383
11
25.832501
21
-8.747180
0
LINE
8
Image
10
25.832501
20
-8.747180
11
25.907516
21
-9.051472
0
LINE
8
Image
10
25.907516
20
-9.051472
11
25.883781
21
-9.203928
0
LINE
8
Image
10
25.883781
20
-9.203928
11
25.522480
21
-9.209262
0
LINE
8
Image
10
25.522480
20
-9.209262
11
25.024556
21
-8.904970
0
LINE
8
Image
10
25.024556
20
-8.904970
11
25.024600
21
-8.904970
0
LINE
8
Image
10
25.788123
20
-7.675780
11
25.714068
21
-7.201873
0
LINE
8
Image
10
25.714068
20
-7.201873
11
24.660248
21
-7.260914
0
LINE
8
Image
10
24.660248
20
-7.260914
11
24.604791
21
-7.617473
0
LINE
8
Image
10
24.604791
20
-7.617473
11
24.816853
21
-7.955349
0
LINE
8
Image
10
24.816853
20
-7.955349
11
25.403056
21
-8.044192
0
LINE
8
Image
10
25.403056
20
-8.044192
11
25.792099
21
-7.997118
0
LINE
8
Image
10
25.792099
20
-7.997118
11
25.788120
21
-7.675780
0
LINE
8
Image
10
25.788120
20
-7.675780
11
25.788100
21
-7.675780
0
LINE
8
Image
10
24.788131
20
-7.542487
11
25.172207
21
-7.335167
0
LINE
8
Image
10
25.172207
20
-7.335167
11
25.514655
21
-7.381875
0
LINE
8
Image
10
25.514655
20
-7.381875
11
25.595568
21
-7.579628
0
LINE
8
Image
10
25.595568
20
-7.579628
11
25.523912
21
-7.771539
0
LINE
8
Image
10
25.523912
20
-7.771539
11
25.211492
21
-7.786948
0
LINE
8
Image
10
25.211492
20
-7.786948
11
24.788131
21
-7.542487
0
LINE
8
Image
10
24.788131
20
-7.542487
11
24.788100
21
-7.542480
0
LINE
8
Image
10
20.874950
20
-9.911420
11
21.324586
21
-9.348556
0
LINE
8
Image
10
21.324586
20
-9.348556
11
21.448877
21
-8.582210
0
LINE
8
Image
10
21.448877
20
-8.582210
11
21.207605
21
-7.584837
0
LINE
8
Image
10
21.207605
20
-7.584837
11
20.547149
21
-6.783947
0
LINE
8
Image
10
20.547149
20
-6.783947
11
19.397769
21
-6.389034
0
LINE
8
Image
10
19.397769
20
-6.389034
11
18.338839
21
-6.621416
0
LINE
8
Image
10
18.338839
20
-6.621416
11
18.030737
21
-7.101335
0
LINE
8
Image
10
18.030737
20
-7.101335
11
18.435274
21
-7.523821
0
LINE
8
Image
10
18.435274
20
-7.523821
11
18.813226
21
-7.686974
0
LINE
8
Image
10
18.813226
20
-7.686974
11
18.974290
21
-7.542476
0
LINE
8
Image
10
18.974290
20
-7.542476
11
19.577483
21
-7.336256
0
LINE
8
Image
10
19.577483
20
-7.336256
11
20.209237
21
-7.817529
0
LINE
8
Image
10
20.209237
20
-7.817529
11
20.371035
21
-8.493225
0
LINE
8
Image
10
20.371035
20
-8.493225
11
20.204693
21
-9.017029
0
LINE
8
Image
10
20.204693
20
-9.017029
11
19.820984
21
-9.238743
0
LINE
8
Image
10
19.820984
20
-9.238743
11
19.330708
21
-9.008224
0
LINE
8
Image
10
19.330708
20
-9.008224
11
19.088759
21
-8.846341
0
LINE
8
Image
10
19.088759
20
-8.846341
11
18.739848
21
-9.018892
0
LINE
8
Image
10
18.739848
20
-9.018892
11
18.463440
21
-9.250737
0
LINE
8
Image
10
18.463440
20
-9.250737
11
18.492452
21
-9.478010
0
LINE
8
Image
10
18.492452
20
-9.478010
11
18.930856
21
-9.886272
0
LINE
8
Image
10
18.930856
20
-9.886272
11
19.600343
21
-10.117581
0
LINE
8
Image
10
19.600343
20
-10.117581
11
20.311514
21
-10.137449
0
LINE
8
Image
10
20.311514
20
-10.137449
11
20.874942
21
-9.911417
0
LINE
8
Image
10
20.874942
20
-9.911417
11
20.875000
21
-9.911430
0
LINE
8
Image
10
19.109000
20
-9.705972
11
18.723965
21
-9.363665
0
LINE
8
Image
10
18.723965
20
-9.363665
11
18.943675
21
-9.183438
0
LINE
8
Image
10
18.943675
20
-9.183438
11
19.352332
21
-9.290033
0
LINE
8
Image
10
19.352332
20
-9.290033
11
19.901395
21
-9.453411
0
LINE
8
Image
10
19.901395
20
-9.453411
11
20.374032
21
-9.155554
0
LINE
8
Image
10
20.374032
20
-9.155554
11
20.596677
21
-8.391551
0
LINE
8
Image
10
20.596677
20
-8.391551
11
20.325377
21
-7.634349
0
LINE
8
Image
10
20.325377
20
-7.634349
11
19.686201
21
-7.117629
0
LINE
8
Image
10
19.686201
20
-7.117629
11
18.951972
21
-7.283999
0
LINE
8
Image
10
18.951972
20
-7.283999
11
18.498357
21
-7.314733
0
LINE
8
Image
10
18.498357
20
-7.314733
11
18.266145
21
-7.087177
0
LINE
8
Image
10
18.266145
20
-7.087177
11
18.487435
21
-6.801625
0
LINE
8
Image
10
18.487435
20
-6.801625
11
19.224119
21
-6.596591
0
LINE
8
Image
10
19.224119
20
-6.596591
11
20.116307
21
-6.786809
0
LINE
8
Image
10
20.116307
20
-6.786809
11
21.067762
21
-7.794459
0
LINE
8
Image
10
21.067762
20
-7.794459
11
21.217199
21
-9.029719
0
LINE
8
Image
10
21.217199
20
-9.029719
11
20.833490
21
-9.669968
0
LINE
8
Image
10
20.833490
20
-9.669968
11
20.053033
21
-9.946884
0
LINE
8
Image
10
20.053033
20
-9.946884
11
19.109000
21
-9.705979
0
LINE
8
Image
10
19.109000
20
-9.705979
11
19.109000
21
-9.705970
0
LINE
8
Image
10
16.319010
20
-10.000497
11
16.700856
21
-9.504012
0
LINE
8
Image
10
16.700856
20
-9.504012
11
16.770000
21
-8.657148
0
LINE
8
Image
10
16.770000
20
-8.657148
11
16.516903
21
-7.187058
0
LINE
8
Image
10
16.516903
20
-7.187058
11
16.335434
21
-6.387354
0
LINE
8
Image
10
16.335434
20
-6.387354
11
15.798900
21
-6.387350
0
LINE
8
Image
10
15.798900
20
-6.387350
11
15.347401
21
-6.429542
0
LINE
8
Image
10
15.347401
20
-6.429542
11
15.338821
21
-6.691754
0
LINE
8
Image
10
15.338821
20
-6.691754
11
15.686914
21
-8.677384
0
LINE
8
Image
10
15.686914
20
-8.677384
11
15.580968
21
-9.102608
0
LINE
8
Image
10
15.580968
20
-9.102608
11
15.286667
21
-9.230765
0
LINE
8
Image
10
15.286667
20
-9.230765
11
14.774801
21
-8.743678
0
LINE
8
Image
10
14.774801
20
-8.743678
11
14.334506
21
-7.068578
0
LINE
8
Image
10
14.334506
20
-7.068578
11
14.205023
21
-6.387351
0
LINE
8
Image
10
14.205023
20
-6.387351
11
13.667400
21
-6.387350
0
LINE
8
Image
10
13.667400
20
-6.387350
11
13.221771
21
-6.428272
0
LINE
8
Image
10
13.221771
20
-6.428272
11
13.191122
21
-6.653908
0
LINE
8
Image
10
13.191122
20
-6.653908
11
13.460559
21
-7.909568
0
LINE
8
Image
10
13.460559
20
-7.909568
11
13.875820
21
-9.168308
0
LINE
8
Image
10
13.875820
20
-9.168308
11
14.567941
21
-9.909197
0
LINE
8
Image
10
14.567941
20
-9.909197
11
15.474241
21
-10.176715
0
LINE
8
Image
10
15.474241
20
-10.176715
11
16.318960
21
-10.000496
0
LINE
8
Image
10
16.318960
20
-10.000496
11
16.319000
21
-10.000500
0
LINE
8
Image
10
14.629280
20
-9.700216
11
14.013613
21
-8.969882
0
LINE
8
Image
10
14.013613
20
-8.969882
11
13.622877
21
-7.742072
0
LINE
8
Image
10
13.622877
20
-7.742072
11
13.437147
21
-6.831624
0
LINE
8
Image
10
13.437147
20
-6.831624
11
13.714571
21
-6.624304
0
LINE
8
Image
10
13.714571
20
-6.624304
11
14.036756
21
-6.767870
0
LINE
8
Image
10
14.036756
20
-6.767870
11
14.271282
21
-7.706145
0
LINE
8
Image
10
14.271282
20
-7.706145
11
14.756676
21
-9.100775
0
LINE
8
Image
10
14.756676
20
-9.100775
11
15.073527
21
-9.394342
0
LINE
8
Image
10
15.073527
20
-9.394342
11
15.443859
21
-9.424596
0
LINE
8
Image
10
15.443859
20
-9.424596
11
15.843514
21
-9.021639
0
LINE
8
Image
10
15.843514
20
-9.021639
11
15.704548
21
-7.424009
0
LINE
8
Image
10
15.704548
20
-7.424009
11
15.552600
21
-6.624305
0
LINE
8
Image
10
15.552600
20
-6.624305
11
15.878100
21
-6.624300
0
LINE
8
Image
10
15.878100
20
-6.624300
11
16.185242
21
-6.760529
0
LINE
8
Image
10
16.185242
20
-6.760529
11
16.397586
21
-7.601720
0
LINE
8
Image
10
16.397586
20
-7.601720
11
16.578152
21
-8.954380
0
LINE
8
Image
10
16.578152
20
-8.954380
11
16.345855
21
-9.629455
0
LINE
8
Image
10
16.345855
20
-9.629455
11
15.560121
21
-9.941621
0
LINE
8
Image
10
15.560121
20
-9.941621
11
14.629325
21
-9.700208
0
LINE
8
Image
10
14.629325
20
-9.700208
11
14.629300
21
-9.700210
0
LINE
8
Image
10
13.348830
20
-9.912018
11
12.949966
21
-8.016698
0
LINE
8
Image
10
12.949966
20
-8.016698
11
12.622419
21
-6.387938
0
LINE
8
Image
10
12.622419
20
-6.387938
11
11.665658
21
-6.387656
0
LINE
8
Image
10
11.665658
20
-6.387656
11
10.829829
21
-6.432952
0
LINE
8
Image
10
10.829829
20
-6.432952
11
10.460034
21
-6.653932
0
LINE
8
Image
10
10.460034
20
-6.653932
11
10.129721
21
-7.298866
0
LINE
8
Image
10
10.129721
20
-7.298866
11
10.291547
21
-8.086322
0
LINE
8
Image
10
10.291547
20
-8.086322
11
10.834062
21
-8.766251
0
LINE
8
Image
10
10.834062
20
-8.766251
11
11.656908
21
-8.993835
0
LINE
8
Image
10
11.656908
20
-8.993835
11
12.028340
21
-9.076668
0
LINE
8
Image
10
12.028340
20
-9.076668
11
12.207749
21
-9.586220
0
LINE
8
Image
10
12.207749
20
-9.586220
11
12.349876
21
-10.178604
0
LINE
8
Image
10
12.349876
20
-10.178604
11
12.885000
21
-10.178600
0
LINE
8
Image
10
12.885000
20
-10.178600
11
13.328173
21
-10.138186
0
LINE
8
Image
10
13.328173
20
-10.138186
11
13.348803
21
-9.912013
0
LINE
8
Image
10
13.348803
20
-9.912013
11
13.348800
21
-9.912020
0
LINE
8
Image
10
12.367881
20
-9.378874
11
12.265463
21
-8.816095
0
LINE
8
Image
10
12.265463
20
-8.816095
11
11.660294
21
-8.755107
0
LINE
8
Image
10
11.660294
20
-8.755107
11
10.919433
21
-8.555124
0
LINE
8
Image
10
10.919433
20
-8.555124
11
10.482017
21
-8.030897
0
LINE
8
Image
10
10.482017
20
-8.030897
11
10.320417
21
-7.422567
0
LINE
8
Image
10
10.320417
20
-7.422567
11
10.496524
21
-6.887615
0
LINE
8
Image
10
10.496524
20
-6.887615
11
10.798248
21
-6.669091
0
LINE
8
Image
10
10.798248
20
-6.669091
11
11.554857
21
-6.624302
0
LINE
8
Image
10
11.554857
20
-6.624302
11
12.419021
21
-6.770183
0
LINE
8
Image
10
12.419021
20
-6.770183
11
12.797198
21
-8.282973
0
LINE
8
Image
10
12.797198
20
-8.282973
11
13.106711
21
-9.734303
0
LINE
8
Image
10
13.106711
20
-9.734303
11
12.820905
21
-9.941623
0
LINE
8
Image
10
12.820905
20
-9.941623
11
12.508175
21
-9.855828
0
LINE
8
Image
10
12.508175
20
-9.855828
11
12.367882
21
-9.378873
0
LINE
8
Image
10
12.367882
20
-9.378873
11
12.367900
21
-9.378870
0
LINE
8
Image
10
12.039111
20
-7.779430
11
11.855921
21
-7.198307
0
LINE
8
Image
10
11.855921
20
-7.198307
11
11.422456
21
-7.118551
0
LINE
8
Image
10
11.422456
20
-7.118551
11
11.045295
21
-7.477368
0
LINE
8
Image
10
11.045295
20
-7.477368
11
11.164844
21
-8.077824
0
LINE
8
Image
10
11.164844
20
-8.077824
11
11.693926
21
-8.282971
0
LINE
8
Image
10
11.693926
20
-8.282971
11
12.119500
21
-8.282980
0
LINE
8
Image
10
12.119500
20
-8.282980
11
12.039067
21
-7.779440
0
LINE
8
Image
10
11.281640
20
-7.660963
11
11.476289
21
-7.335166
0
LINE
8
Image
10
11.476289
20
-7.335166
11
11.750722
21
-7.483982
0
LINE
8
Image
10
11.750722
20
-7.483982
11
11.852265
21
-7.886233
0
LINE
8
Image
10
11.852265
20
-7.886233
11
11.585706
21
-8.024635
0
LINE
8
Image
10
11.585706
20
-8.024635
11
11.281640
21
-7.660964
0
LINE
8
Image
10
11.281640
20
-7.660964
11
11.281700
21
-7.660960
0
LINE
8
Image
10
10.193680
20
-9.954130
11
9.895484
21
-8.298620
0
LINE
8
Image
10
9.895484
20
-8.298620
11
9.540167
21
-6.653910
0
LINE
8
Image
10
9.540167
20
-6.653910
11
9.349385
21
-6.427624
0
LINE
8
Image
10
9.349385
20
-6.427624
11
8.562268
21
-6.387774
0
LINE
8
Image
10
8.562268
20
-6.387774
11
7.323598
21
-6.586882
0
LINE
8
Image
10
7.323598
20
-6.586882
11
6.758025
21
-7.275617
0
LINE
8
Image
10
6.758025
20
-7.275617
11
6.805438
21
-8.661407
0
LINE
8
Image
10
6.805438
20
-8.661407
11
7.648435
21
-9.773527
0
LINE
8
Image
10
7.648435
20
-9.773527
11
8.189455
21
-10.059079
0
LINE
8
Image
10
8.189455
20
-10.059079
11
9.139414
21
-10.157180
0
LINE
8
Image
10
9.139414
20
-10.157180
11
10.046758
21
-10.165167
0
LINE
8
Image
10
10.046758
20
-10.165167
11
10.193683
21
-9.954121
0
LINE
8
Image
10
10.193683
20
-9.954121
11
10.193700
21
-9.954130
0
LINE
8
Image
10
7.892290
20
-9.673122
11
7.164722
21
-8.902995
0
LINE
8
Image
10
7.164722
20
-8.902995
11
6.876291
21
-7.840545
0
LINE
8
Image
10
6.876291
20
-7.840545
11
7.222577
21
-6.970624
0
LINE
8
Image
10
7.222577
20
-6.970624
11
7.650143
21
-6.677311
0
LINE
8
Image
10
7.650143
20
-6.677311
11
8.446009
21
-6.624310
0
LINE
8
Image
10
8.446009
20
-6.624310
11
9.322830
21
-6.624300
0
LINE
8
Image
10
9.322830
20
-6.624300
11
9.678712
21
-8.282980
0
LINE
8
Image
10
9.678712
20
-8.282980
11
10.034312
21
-9.941630
0
LINE
8
Image
10
10.034312
20
-9.941630
11
9.195830
21
-9.939683
0
LINE
8
Image
10
9.195830
20
-9.939683
11
7.892250
21
-9.673124
0
LINE
8
Image
10
7.892250
20
-9.673124
11
7.892250
21
-9.673120
0
LINE
8
Image
10
9.245790
20
-9.357003
11
8.820199
21
-7.305533
0
LINE
8
Image
10
8.820199
20
-7.305533
11
8.401099
21
-7.100470
0
LINE
8
Image
10
8.401099
20
-7.100470
11
7.824237
21
-7.335166
0
LINE
8
Image
10
7.824237
20
-7.335166
11
7.587171
21
-8.117090
0
LINE
8
Image
10
7.587171
20
-8.117090
11
7.660549
21
-8.636181
0
LINE
8
Image
10
7.660549
20
-8.636181
11
7.989902
21
-9.064904
0
LINE
8
Image
10
7.989902
20
-9.064904
11
8.819352
21
-9.467719
0
LINE
8
Image
10
8.819352
20
-9.467719
11
9.245789
21
-9.357003
0
LINE
8
Image
10
9.245789
20
-9.357003
11
9.245780
21
-9.357000
0
LINE
8
Image
10
8.372303
20
-9.117958
11
7.947841
21
-8.747090
0
LINE
8
Image
10
7.947841
20
-8.747090
11
7.800521
21
-8.087707
0
LINE
8
Image
10
7.800521
20
-8.087707
11
7.944736
21
-7.527920
0
LINE
8
Image
10
7.944736
20
-7.527920
11
8.363271
21
-7.335162
0
LINE
8
Image
10
8.363271
20
-7.335162
11
8.612755
21
-7.453441
0
LINE
8
Image
10
8.612755
20
-7.453441
11
8.773339
21
-8.016389
0
LINE
8
Image
10
8.773339
20
-8.016389
11
8.972306
21
-8.964203
0
LINE
8
Image
10
8.972306
20
-8.964203
11
8.884817
21
-9.223791
0
LINE
8
Image
10
8.884817
20
-9.223791
11
8.372302
21
-9.117958
0
LINE
8
Image
10
8.372302
20
-9.117958
11
8.372310
21
-9.117960
0
LINE
8
Image
10
6.639470
20
-10.011814
11
6.283870
21
-8.164504
0
LINE
8
Image
10
6.283870
20
-8.164504
11
5.928553
21
-6.442444
0
LINE
8
Image
10
5.928553
20
-6.442444
11
5.390073
21
-6.387354
0
LINE
8
Image
10
5.390073
20
-6.387354
11
4.851590
21
-6.387350
0
LINE
8
Image
10
4.851590
20
-6.387350
11
4.924403
21
-6.772385
0
LINE
8
Image
10
4.924403
20
-6.772385
11
5.316409
21
-8.638385
0
LINE
8
Image
10
5.316409
20
-8.638385
11
5.635320
21
-10.119345
0
LINE
8
Image
10
5.635320
20
-10.119345
11
6.137393
21
-10.155780
0
LINE
8
Image
10
6.137393
20
-10.155780
11
6.639466
21
-10.011819
0
LINE
8
Image
10
6.639466
20
-10.011819
11
6.639460
21
-10.011800
0
LINE
8
Image
10
5.496460
20
-8.519890
11
5.157794
21
-6.890850
0
LINE
8
Image
10
5.157794
20
-6.890850
11
5.165414
21
-6.672156
0
LINE
8
Image
10
5.165414
20
-6.672156
11
5.425058
21
-6.624291
0
LINE
8
Image
10
5.425058
20
-6.624291
11
5.754693
21
-6.823766
0
LINE
8
Image
10
5.754693
20
-6.823766
11
6.079813
21
-8.194096
0
LINE
8
Image
10
6.079813
20
-8.194096
11
6.403239
21
-9.860646
0
LINE
8
Image
10
6.403239
20
-9.860646
11
6.087433
21
-9.919884
0
LINE
8
Image
10
6.087433
20
-9.919884
11
5.777835
21
-9.695884
0
LINE
8
Image
10
5.777835
20
-9.695884
11
5.496460
21
-8.519894
0
LINE
8
Image
10
5.496460
20
-8.519894
11
5.496460
21
-8.519900
0
LINE
8
Image
10
23.450660
20
-9.119932
11
23.479023
21
-8.637078
0
LINE
8
Image
10
23.479023
20
-8.637078
11
23.394893
21
-8.223736
0
LINE
8
Image
10
23.394893
20
-8.223736
11
22.585367
21
-8.188374
0
LINE
8
Image
10
22.585367
20
-8.188374
11
21.775841
21
-8.153011
0
LINE
8
Image
10
21.775841
20
-8.153011
11
21.859915
21
-8.603042
0
LINE
8
Image
10
21.859915
20
-8.603042
11
22.002494
21
-9.112283
0
LINE
8
Image
10
22.002494
20
-9.112283
11
23.450664
21
-9.119931
0
LINE
8
Image
10
23.450664
20
-9.119931
11
23.450600
21
-9.119940
0
LINE
8
Image
10
22.113180
20
-8.806420
11
22.100819
21
-8.471140
0
LINE
8
Image
10
22.100819
20
-8.471140
11
22.633626
21
-8.401431
0
LINE
8
Image
10
22.633626
20
-8.401431
11
23.226010
21
-8.510228
0
LINE
8
Image
10
23.226010
20
-8.510228
11
23.297948
21
-8.806420
0
LINE
8
Image
10
23.297948
20
-8.806420
11
22.777474
21
-8.993815
0
LINE
8
Image
10
22.777474
20
-8.993815
11
22.113180
21
-8.806420
0
LINE
8
Image
10
22.113180
20
-8.806420
11
22.113200
21
-8.806420
 0 
ENDSEC
 0 
EOF