<?xml version="1.0" encoding="UTF-8" standalone="no"?>
<!-- Created with Inkscape (http://www.inkscape.org/) -->

<svg
   xmlns:dc="http://purl.org/dc/elements/1.1/"
   xmlns:cc="http://creativecommons.org/ns#"
   xmlns:rdf="http://www.w3.org/1999/02/22-rdf-syntax-ns#"
   xmlns:svg="http://www.w3.org/2000/svg"
   xmlns="http://www.w3.org/2000/svg"
   xmlns:sodipodi="http://sodipodi.sourceforge.net/DTD/sodipodi-0.dtd"
   xmlns:inkscape="http://www.inkscape.org/namespaces/inkscape"
   width="50mm"
   height="28.339422mm"
   viewBox="0 0 50 28.339422"
   version="1.1"
   id="svg8"
   inkscape:version="0.92.4 (5da689c313, 2019-01-14)"
   sodipodi:docname="TW.svg">
  <defs
     id="defs2" />
  <sodipodi:namedview
     id="base"
     pagecolor="#ffffff"
     bordercolor="#666666"
     borderopacity="1.0"
     inkscape:pageopacity="0.0"
     inkscape:pageshadow="2"
     inkscape:zoom="0.98994949"
     inkscape:cx="198.20372"
     inkscape:cy="-5.6537456"
     inkscape:document-units="mm"
     inkscape:current-layer="layer1"
     showgrid="false"
     inkscape:window-width="1804"
     inkscape:window-height="931"
     inkscape:window-x="95"
     inkscape:window-y="24"
     inkscape:window-maximized="0"
     fit-margin-top="0"
     fit-margin-left="0"
     fit-margin-right="0"
     fit-margin-bottom="0" />
  <metadata
     id="metadata5">
    <rdf:RDF>
      <cc:Work
         rdf:about="">
        <dc:format>image/svg+xml</dc:format>
        <dc:type
           rdf:resource="http://purl.org/dc/dcmitype/StillImage" />
        <dc:title></dc:title>
      </cc:Work>
    </rdf:RDF>
  </metadata>
  <g
     inkscape:label="Layer 1"
     inkscape:groupmode="layer"
     id="layer1"
     transform="translate(-5.92955,-15.273747)">
    <path
       style="fill:none;stroke:#000000;stroke-width:0.09997646;stroke-miterlimit:4;stroke-dasharray:none;stroke-opacity:1"
       d="m 18.117196,28.603501 h -3.361622 c -2.565403,4.78695 -4.9013574,8.785987 -5.1706357,8.785987 -0.1045021,0 -0.2089532,-0.18288 -0.2089532,-0.391883 0,-0.627013 -0.4180083,-0.470082 -1.175649,0.444313 -1.1495236,1.358527 -2.0639426,3.422367 -1.8549385,4.23226 0.2351298,0.966644 1.2540511,1.54156 2.2468215,1.332555 1.8549129,-0.418008 3.3963189,-2.482029 6.6620109,-8.987286 0.718818,-1.44762 1.816468,-3.47996 2.862966,-5.415946 z"
       id="path4549"
       inkscape:connector-curvature="0" />
    <path
       style="fill:none;stroke:#000000;stroke-width:0.09997646;stroke-miterlimit:4;stroke-dasharray:none;stroke-opacity:1"
       d="m 26.703031,15.342241 c -0.369839,-0.0024 -0.763484,0.06258 -1.155367,0.206275 -1.201774,0.418008 -2.612629,1.280151 -3.213517,1.959415 -0.836016,0.914393 -6.322149,2.194698 -10.737364,2.508204 -2.5341772,0.156753 -3.344349,-0.05207 -2.7695871,-0.731336 0.4702598,-0.600888 -0.078402,-0.783868 -1.0711725,-0.36586 -1.2801512,0.522511 -1.7764852,1.149574 -1.7764852,2.142345 0,1.018896 0.5227147,1.645934 1.5154851,1.854938 0.391883,0.07838 0.940315,0.182726 1.227696,0.234977 0.9927699,0.209005 5.2773317,-0.39201 7.5502537,-1.045149 1.280151,-0.365757 2.351476,-0.627063 2.403728,-0.574813 0.05225,0.05225 -0.182752,0.496717 -0.522384,0.993102 -0.365757,0.522511 -1.672085,2.847556 -2.92611,5.224979 -0.174447,0.329145 -0.300166,0.532367 -0.472633,0.854183 h 3.361622 c 1.69203,-3.130199 3.393713,-6.188932 4.216951,-7.464147 0.496387,-0.809891 0.914496,-1.044715 2.717158,-1.645602 2.351298,-0.783766 3.657448,-1.698389 3.657448,-2.586657 0,-0.94052 -0.896203,-1.557506 -2.005722,-1.564854 z"
       id="path4520"
       inkscape:connector-curvature="0" />
    <path
       style="fill:none;stroke:#000000;stroke-width:0.09997646;stroke-miterlimit:4;stroke-dasharray:none;stroke-opacity:1"
       d="m 34.668512,28.603501 h 5.940625 c 1.091169,-2.260174 2.271434,-4.425049 3.252553,-5.870208 0.888267,-1.306277 1.541432,-2.508154 1.463056,-2.717158 -0.182879,-0.522511 -1.541611,-0.731413 -2.691135,-0.417906 -0.888268,0.235129 -1.332148,0.679238 -3.004181,2.847657 -1.123014,1.461008 -3.070619,3.852545 -4.960918,6.157615 z"
       id="path4558"
       inkscape:connector-curvature="0" />
    <path
       style="fill:none;stroke:#000000;stroke-width:0.09997646;stroke-miterlimit:4;stroke-dasharray:none;stroke-opacity:1"
       d="m 26.453894,28.603501 h 3.636782 c 1.390748,-2.250503 3.014035,-4.848954 4.627203,-7.385693 1.567534,-2.455801 1.567278,-2.79528 -0.130881,-3.370041 -1.149524,-0.365758 -1.044818,-0.418188 -5.53841,2.690751 -1.541407,1.071146 -2.272819,1.463209 -2.377321,1.228079 -0.156753,-0.47026 -1.619962,0.914495 -1.619962,1.541508 0,0.679264 1.018973,1.802509 1.645985,1.802509 0.627013,0 2.037817,-0.78374 3.030588,-1.672009 0.836016,-0.731515 0.574787,-0.261281 -1.67201,2.847658 -0.56562,0.783693 -1.097756,1.556267 -1.601974,2.317238 z"
       id="path4556"
       inkscape:connector-curvature="0" />
    <path
       style="fill:none;stroke:#000000;stroke-width:0.09997646;stroke-miterlimit:4;stroke-dasharray:none;stroke-opacity:1"
       d="M 50.250072,28.603501 H 46.16362 c -3.210737,4.366873 -7.977927,9.831135 -8.728965,9.831135 -0.548636,0 -0.44388,-0.57466 0.522766,-3.55297 0.617626,-1.801406 1.592738,-4.084671 2.651716,-6.278165 h -5.940625 c -2.639177,3.218268 -5.305849,6.412702 -6.691097,7.950173 -1.933288,2.16842 -3.082761,3.134936 -3.344016,2.873682 -0.209005,-0.209005 1.097222,-3.448596 2.168367,-5.381886 0.469584,-0.842488 1.729094,-2.917883 3.28891,-5.441969 h -3.636782 c -3.361814,5.073685 -5.321419,9.554118 -5.321419,12.234863 0,1.175649 0.99272,2.403369 2.168369,2.690751 1.619782,0.418008 5.930673,-3.109065 9.849503,-8.099042 1.201776,-1.515281 2.220596,-2.690853 2.272845,-2.664728 0.05225,0.05225 -0.209155,0.757641 -0.548789,1.567532 -1.489155,3.344069 -1.880809,6.688265 -0.94029,7.707159 0.679265,0.731516 2.272616,0.757717 3.605018,0.07845 1.515281,-0.783766 4.807176,-3.7098 7.132348,-6.374604 2.061465,-2.35961 3.942198,-4.797724 5.578593,-7.140384 z"
       id="path4554"
       inkscape:connector-curvature="0" />
    <path
       style="fill:none;stroke:#000000;stroke-width:0.09997646;stroke-miterlimit:4;stroke-dasharray:none;stroke-opacity:1"
       d="m 53.917468,15.323872 c -0.379636,-0.0037 -0.794327,0.06789 -1.225398,0.224644 -1.254026,0.444134 -2.29887,1.123704 -2.29887,1.489461 0,0.182879 0.261103,0.235002 0.62686,0.1305 0.809893,-0.209004 1.228053,0.418136 0.940672,1.437032 -0.339632,1.149524 -2.481874,5.146577 -4.127782,7.680754 -0.439944,0.678078 -1.082663,1.519321 -1.66933,2.317238 h 4.086452 c 3.382323,-4.842129 5.62949,-9.242554 5.62949,-11.461047 0,-1.116867 -0.823184,-1.807561 -1.962094,-1.818582 z"
       id="path4522"
       inkscape:connector-curvature="0" />
  </g>
</svg>
