  0
SECTION
  2
HEADER
  9
$ACADVER
  1
AC1014
  9
$HANDSEED
  5
FFFF
  9
$MEASUREMENT
 70
     1
  0
ENDSEC
  0
SECTION
  2
TABLES
  0
TABLE
  2
VPORT
  5
8
330
0
100
AcDbSymbolTable
 70
     4
  0
VPORT
  5
2E
330
8
100
AcDbSymbolTableRecord
100
AcDbViewportTableRecord
  2
*ACTIVE
 70
     0
 10
0.0
 20
0.0
 11
1.0
 21
1.0
 12
210.0
 22
148.5
 13
0.0
 23
0.0
 14
10.0
 24
10.0
 15
10.0
 25
10.0
 16
0.0
 26
0.0
 36
1.0
 17
0.0
 27
0.0
 37
0.0
 40
341.0
 41
1.24
 42
50.0
 43
0.0
 44
0.0
 50
0.0
 51
0.0
 71
     0
 72
   100
 73
     1
 74
     3
 75
     0
 76
     0
 77
     0
 78
     0
  0
ENDTAB
  0
TABLE
  2
LTYPE
  5
5
330
0
100
AcDbSymbolTable
 70
     1
  0
LTYPE
  5
14
330
5
100
AcDbSymbolTableRecord
100
AcDbLinetypeTableRecord
  2
BYBLOCK
 70
     0
  3

 72
    65
 73
     0
 40
0.0
  0
LTYPE
  5
15
330
5
100
AcDbSymbolTableRecord
100
AcDbLinetypeTableRecord
  2
BYLAYER
 70
     0
  3

 72
    65
 73
     0
 40
0.0
  0
LTYPE
  5
16
330
5
100
AcDbSymbolTableRecord
100
AcDbLinetypeTableRecord
  2
CONTINUOUS
 70
     0
  3
Solid line
 72
    65
 73
     0
 40
0.0
  0
ENDTAB
  0
TABLE
  2
LAYER
  5
2
100
AcDbSymbolTable
 70
2
  0
LAYER
  5
50
100
AcDbSymbolTableRecord
100
AcDbLayerTableRecord
  2
0
 70
0
  6
CONTINUOUS
  0
LAYER
  5
51
100
AcDbSymbolTableRecord
100
AcDbLayerTableRecord
  2
Layer_1
 70
0
  6
CONTINUOUS
  0
ENDTAB
  0
TABLE
  2
STYLE
  5
3
330
0
100
AcDbSymbolTable
 70
     1
  0
STYLE
  5
11
330
3
100
AcDbSymbolTableRecord
100
AcDbTextStyleTableRecord
  2
STANDARD
 70
     0
 40
0.0
 41
1.0
 50
0.0
 71
     0
 42
2.5
  3
txt
  4

  0
ENDTAB
  0
TABLE
  2
VIEW
  5
6
330
0
100
AcDbSymbolTable
 70
     0
  0
ENDTAB
  0
TABLE
  2
UCS
  5
7
330
0
100
AcDbSymbolTable
 70
     0
  0
ENDTAB
  0
TABLE
  2
APPID
  5
9
330
0
100
AcDbSymbolTable
 70
     2
  0
APPID
  5
12
330
9
100
AcDbSymbolTableRecord
100
AcDbRegAppTableRecord
  2
ACAD
 70
     0
  0
ENDTAB
  0
TABLE
  2
DIMSTYLE
  5
A
330
0
100
AcDbSymbolTable
 70
     1
  0
DIMSTYLE
105
27
330
A
100
AcDbSymbolTableRecord
100
AcDbDimStyleTableRecord
  2
ISO-25
 70
     0
  3

  4

  5

  6

  7

 40
1.0
 41
2.5
 42
0.625
 43
3.75
 44
1.25
 45
0.0
 46
0.0
 47
0.0
 48
0.0
140
2.5
141
2.5
142
0.0
143
0.03937007874016
144
1.0
145
0.0
146
1.0
147
0.625
 71
     0
 72
     0
 73
     0
 74
     0
 75
     0
 76
     0
 77
     1
 78
     8
170
     0
171
     3
172
     1
173
     0
174
     0
175
     0
176
     0
177
     0
178
     0
270
     2
271
     2
272
     2
273
     2
274
     3
340
11
275
     0
280
     0
281
     0
282
     0
283
     0
284
     8
285
     0
286
     0
287
     3
288
     0
  0
ENDTAB
  0
TABLE
  2
BLOCK_RECORD
  5
1
330
0
100
AcDbSymbolTable
 70
     1
  0
BLOCK_RECORD
  5
1F
330
1
100
AcDbSymbolTableRecord
100
AcDbBlockTableRecord
  2
*MODEL_SPACE
  0
BLOCK_RECORD
  5
1B
330
1
100
AcDbSymbolTableRecord
100
AcDbBlockTableRecord
  2
*PAPER_SPACE
  0
ENDTAB
  0
ENDSEC
  0
SECTION
  2
BLOCKS
  0
BLOCK
  5
20
330
1F
100
AcDbEntity
  8
0
100
AcDbBlockBegin
  2
*MODEL_SPACE
 70
     0
 10
0.0
 20
0.0
 30
0.0
  3
*MODEL_SPACE
  1

  0
ENDBLK
  5
21
330
1F
100
AcDbEntity
  8
0
100
AcDbBlockEnd
  0
BLOCK
  5
1C
330
1B
100
AcDbEntity
 67
     1
  8
0
100
AcDbBlockBegin
  2
*PAPER_SPACE
  1

  0
ENDBLK
  5
1D
330
1B
100
AcDbEntity
 67
     1
  8
0
100
AcDbBlockEnd
  0
ENDSEC
  0
SECTION
  2
ENTITIES
  0
LWPOLYLINE
  5
100
100
AcDbEntity
  8
Layer_1
 62
7
100
AcDbPolyline
 90
14
 70
1
 10
0.046807
 20
0.056243
 30
0.0
 10
0.034674
 20
0.056243
 30
0.0
 10
0.032572
 20
0.052074
 30
0.0
 10
0.024826
 20
0.037043
 30
0.0
 10
0.016587
 20
0.022287
 30
0.0
 10
0.014811
 20
0.022366
 30
0.0
 10
0.009661
 20
0.018964
 30
0.0
 10
0.005898
 20
0.002156
 30
0.0
 10
0.008268
 20
0.000530
 30
0.0
 10
0.008268
 20
0.000530
 30
0.0
 10
0.018862
 20
0.005347
 30
0.0
 10
0.027649
 20
0.018704
 30
0.0
 10
0.035101
 20
0.032898
 30
0.0
 10
0.042308
 20
0.047216
 30
0.0
  0
LWPOLYLINE
  5
101
100
AcDbEntity
  8
Layer_1
 62
7
100
AcDbPolyline
 90
22
 70
1
 10
0.072101
 20
0.103815
 30
0.0
 10
0.063736
 20
0.098976
 30
0.0
 10
0.054171
 20
0.093478
 30
0.0
 10
0.043797
 20
0.089715
 30
0.0
 10
0.031218
 20
0.087045
 30
0.0
 10
0.018431
 20
0.085632
 30
0.0
 10
0.010271
 20
0.087896
 30
0.0
 10
0.005526
 20
0.088467
 30
0.0
 10
0.000343
 20
0.081470
 30
0.0
 10
0.004774
 20
0.075058
 30
0.0
 10
0.013418
 20
0.074042
 30
0.0
 10
0.026280
 20
0.075389
 30
0.0
 10
0.038792
 20
0.078719
 30
0.0
 10
0.046141
 20
0.080648
 30
0.0
 10
0.039706
 20
0.066234
 30
0.0
 10
0.034674
 20
0.056251
 30
0.0
 10
0.046807
 20
0.056251
 30
0.0
 10
0.049756
 20
0.062149
 30
0.0
 10
0.057427
 20
0.076931
 30
0.0
 10
0.068743
 20
0.088503
 30
0.0
 10
0.081754
 20
0.095877
 30
0.0
 10
0.081833
 20
0.102733
 30
0.0
  0
LWPOLYLINE
  5
102
100
AcDbEntity
  8
Layer_1
 62
7
100
AcDbPolyline
 90
10
 70
1
 10
0.105463
 20
0.056243
 30
0.0
 10
0.130700
 20
0.056243
 30
0.0
 10
0.133637
 20
0.063695
 30
0.0
 10
0.140421
 20
0.078288
 30
0.0
 10
0.147821
 20
0.092579
 30
0.0
 10
0.150152
 20
0.099936
 30
0.0
 10
0.145387
 20
0.101342
 30
0.0
 10
0.132506
 20
0.091164
 30
0.0
 10
0.122142
 20
0.077915
 30
0.0
 10
0.112688
 20
0.065562
 30
0.0
  0
LWPOLYLINE
  5
103
100
AcDbEntity
  8
Layer_1
 62
7
100
AcDbPolyline
 90
15
 70
1
 10
0.078203
 20
0.056243
 30
0.0
 10
0.090822
 20
0.056243
 30
0.0
 10
0.092672
 20
0.059771
 30
0.0
 10
0.101430
 20
0.075087
 30
0.0
 10
0.109007
 20
0.088156
 30
0.0
 10
0.116109
 20
0.101474
 30
0.0
 10
0.113830
 20
0.105266
 30
0.0
 10
0.096416
 20
0.098937
 30
0.0
 10
0.089758
 20
0.094022
 30
0.0
 10
0.082030
 20
0.090463
 30
0.0
 10
0.079042
 20
0.081363
 30
0.0
 10
0.091396
 20
0.082383
 30
0.0
 10
0.094365
 20
0.084159
 30
0.0
 10
0.089088
 20
0.074797
 30
0.0
 10
0.083387
 20
0.065645
 30
0.0
  0
LWPOLYLINE
  5
104
100
AcDbEntity
  8
Layer_1
 62
7
100
AcDbPolyline
 90
32
 70
1
 10
0.162141
 20
0.056243
 30
0.0
 10
0.147446
 20
0.056243
 30
0.0
 10
0.143337
 20
0.050772
 30
0.0
 10
0.132402
 20
0.038041
 30
0.0
 10
0.124117
 20
0.033105
 30
0.0
 10
0.127739
 20
0.048726
 30
0.0
 10
0.130704
 20
0.056243
 30
0.0
 10
0.105467
 20
0.056243
 30
0.0
 10
0.103490
 20
0.053688
 30
0.0
 10
0.094129
 20
0.041942
 30
0.0
 10
0.088810
 20
0.035529
 30
0.0
 10
0.078749
 20
0.025942
 30
0.0
 10
0.084492
 20
0.044143
 30
0.0
 10
0.090827
 20
0.056240
 30
0.0
 10
0.078208
 20
0.056240
 30
0.0
 10
0.075421
 20
0.051176
 30
0.0
 10
0.068629
 20
0.036128
 30
0.0
 10
0.065778
 20
0.024402
 30
0.0
 10
0.068696
 20
0.013128
 30
0.0
 10
0.071841
 20
0.011089
 30
0.0
 10
0.088578
 20
0.019007
 30
0.0
 10
0.101707
 20
0.032868
 30
0.0
 10
0.113452
 20
0.047937
 30
0.0
 10
0.117165
 20
0.051004
 30
0.0
 10
0.112713
 20
0.037222
 30
0.0
 10
0.110828
 20
0.022900
 30
0.0
 10
0.112568
 20
0.016995
 30
0.0
 10
0.117583
 20
0.015483
 30
0.0
 10
0.129053
 20
0.020070
 30
0.0
 10
0.138556
 20
0.028255
 30
0.0
 10
0.150452
 20
0.041132
 30
0.0
 10
0.161255
 20
0.054939
 30
0.0
  0
LWPOLYLINE
  5
105
100
AcDbEntity
  8
Layer_1
 62
7
100
AcDbPolyline
 90
14
 70
1
 10
0.182771
 20
0.117789
 30
0.0
 10
0.171864
 20
0.112863
 30
0.0
 10
0.172140
 20
0.111178
 30
0.0
 10
0.174585
 20
0.110465
 30
0.0
 10
0.175872
 20
0.108139
 30
0.0
 10
0.170632
 20
0.092974
 30
0.0
 10
0.162581
 20
0.078250
 30
0.0
 10
0.153411
 20
0.064196
 30
0.0
 10
0.147441
 20
0.056245
 30
0.0
 10
0.162136
 20
0.056245
 30
0.0
 10
0.171160
 20
0.069405
 30
0.0
 10
0.180071
 20
0.084505
 30
0.0
 10
0.187206
 20
0.100501
 30
0.0
 10
0.189277
 20
0.111024
 30
0.0
  0
ENDSEC
  0
SECTION
  2
OBJECTS
  0
DICTIONARY
  5
C
330
0
100
AcDbDictionary
  3
ACAD_GROUP
350
D
  3
ACAD_MLINESTYLE
350
17
  0
DICTIONARY
  5
D
330
C
100
AcDbDictionary
  0
DICTIONARY
  5
1A
330
C
100
AcDbDictionary
  0
DICTIONARY
  5
17
330
C
100
AcDbDictionary
  3
STANDARD
350
18
  0
DICTIONARY
  5
19
330
C
100
AcDbDictionary
  0
ENDSEC
  0
EOF
