  0
SECTION
  2
HEADER
  9
$ACADVER
  1
AC1014
  9
$HANDSEED
  5
FFFF
  9
$MEASUREMENT
 70
     1
  0
ENDSEC
  0
SECTION
  2
TABLES
  0
TABLE
  2
VPORT
  5
8
330
0
100
AcDbSymbolTable
 70
     4
  0
VPORT
  5
2E
330
8
100
AcDbSymbolTableRecord
100
AcDbViewportTableRecord
  2
*ACTIVE
 70
     0
 10
0.0
 20
0.0
 11
1.0
 21
1.0
 12
210.0
 22
148.5
 13
0.0
 23
0.0
 14
10.0
 24
10.0
 15
10.0
 25
10.0
 16
0.0
 26
0.0
 36
1.0
 17
0.0
 27
0.0
 37
0.0
 40
341.0
 41
1.24
 42
50.0
 43
0.0
 44
0.0
 50
0.0
 51
0.0
 71
     0
 72
   100
 73
     1
 74
     3
 75
     0
 76
     0
 77
     0
 78
     0
  0
ENDTAB
  0
TABLE
  2
LTYPE
  5
5
330
0
100
AcDbSymbolTable
 70
     1
  0
LTYPE
  5
14
330
5
100
AcDbSymbolTableRecord
100
AcDbLinetypeTableRecord
  2
BYBLOCK
 70
     0
  3

 72
    65
 73
     0
 40
0.0
  0
LTYPE
  5
15
330
5
100
AcDbSymbolTableRecord
100
AcDbLinetypeTableRecord
  2
BYLAYER
 70
     0
  3

 72
    65
 73
     0
 40
0.0
  0
LTYPE
  5
16
330
5
100
AcDbSymbolTableRecord
100
AcDbLinetypeTableRecord
  2
CONTINUOUS
 70
     0
  3
Solid line
 72
    65
 73
     0
 40
0.0
  0
ENDTAB
  0
TABLE
  2
LAYER
  5
2
100
AcDbSymbolTable
 70
2
  0
LAYER
  5
50
100
AcDbSymbolTableRecord
100
AcDbLayerTableRecord
  2
0
 70
0
  6
CONTINUOUS
  0
LAYER
  5
51
100
AcDbSymbolTableRecord
100
AcDbLayerTableRecord
  2
Layer_1
 70
0
  6
CONTINUOUS
  0
ENDTAB
  0
TABLE
  2
STYLE
  5
3
330
0
100
AcDbSymbolTable
 70
     1
  0
STYLE
  5
11
330
3
100
AcDbSymbolTableRecord
100
AcDbTextStyleTableRecord
  2
STANDARD
 70
     0
 40
0.0
 41
1.0
 50
0.0
 71
     0
 42
2.5
  3
txt
  4

  0
ENDTAB
  0
TABLE
  2
VIEW
  5
6
330
0
100
AcDbSymbolTable
 70
     0
  0
ENDTAB
  0
TABLE
  2
UCS
  5
7
330
0
100
AcDbSymbolTable
 70
     0
  0
ENDTAB
  0
TABLE
  2
APPID
  5
9
330
0
100
AcDbSymbolTable
 70
     2
  0
APPID
  5
12
330
9
100
AcDbSymbolTableRecord
100
AcDbRegAppTableRecord
  2
ACAD
 70
     0
  0
ENDTAB
  0
TABLE
  2
DIMSTYLE
  5
A
330
0
100
AcDbSymbolTable
 70
     1
  0
DIMSTYLE
105
27
330
A
100
AcDbSymbolTableRecord
100
AcDbDimStyleTableRecord
  2
ISO-25
 70
     0
  3

  4

  5

  6

  7

 40
1.0
 41
2.5
 42
0.625
 43
3.75
 44
1.25
 45
0.0
 46
0.0
 47
0.0
 48
0.0
140
2.5
141
2.5
142
0.0
143
0.03937007874016
144
1.0
145
0.0
146
1.0
147
0.625
 71
     0
 72
     0
 73
     0
 74
     0
 75
     0
 76
     0
 77
     1
 78
     8
170
     0
171
     3
172
     1
173
     0
174
     0
175
     0
176
     0
177
     0
178
     0
270
     2
271
     2
272
     2
273
     2
274
     3
340
11
275
     0
280
     0
281
     0
282
     0
283
     0
284
     8
285
     0
286
     0
287
     3
288
     0
  0
ENDTAB
  0
TABLE
  2
BLOCK_RECORD
  5
1
330
0
100
AcDbSymbolTable
 70
     1
  0
BLOCK_RECORD
  5
1F
330
1
100
AcDbSymbolTableRecord
100
AcDbBlockTableRecord
  2
*MODEL_SPACE
  0
BLOCK_RECORD
  5
1B
330
1
100
AcDbSymbolTableRecord
100
AcDbBlockTableRecord
  2
*PAPER_SPACE
  0
ENDTAB
  0
ENDSEC
  0
SECTION
  2
BLOCKS
  0
BLOCK
  5
20
330
1F
100
AcDbEntity
  8
0
100
AcDbBlockBegin
  2
*MODEL_SPACE
 70
     0
 10
0.0
 20
0.0
 30
0.0
  3
*MODEL_SPACE
  1

  0
ENDBLK
  5
21
330
1F
100
AcDbEntity
  8
0
100
AcDbBlockEnd
  0
BLOCK
  5
1C
330
1B
100
AcDbEntity
 67
     1
  8
0
100
AcDbBlockBegin
  2
*PAPER_SPACE
  1

  0
ENDBLK
  5
1D
330
1B
100
AcDbEntity
 67
     1
  8
0
100
AcDbBlockEnd
  0
ENDSEC
  0
SECTION
  2
ENTITIES
  0
LWPOLYLINE
  5
100
100
AcDbEntity
  8
Layer_1
 62
7
100
AcDbPolyline
 90
11
 70
1
 10
0.096037
 20
0.117983
 30
0.0
 10
0.069580
 20
0.117983
 30
0.0
 10
0.050214
 20
0.082757
 30
0.0
 10
0.028885
 20
0.048834
 30
0.0
 10
0.027241
 20
0.051918
 30
0.0
 10
0.017988
 20
0.048422
 30
0.0
 10
0.003389
 20
0.015112
 30
0.0
 10
0.021072
 20
0.004624
 30
0.0
 10
0.052143
 20
0.035674
 30
0.0
 10
0.073505
 20
0.075358
 30
0.0
 10
0.096037
 20
0.117983
 30
0.0
  0
LWPOLYLINE
  5
101
100
AcDbEntity
  8
Layer_1
 62
7
100
AcDbPolyline
 90
20
 70
1
 10
0.163611
 20
0.222354
 30
0.0
 10
0.154518
 20
0.220730
 30
0.0
 10
0.129226
 20
0.205309
 30
0.0
 10
0.088024
 20
0.191599
 30
0.0
 10
0.044719
 20
0.185569
 30
0.0
 10
0.022922
 20
0.191325
 30
0.0
 10
0.014491
 20
0.194204
 30
0.0
 10
0.000510
 20
0.177343
 30
0.0
 10
0.012437
 20
0.162744
 30
0.0
 10
0.022099
 20
0.160895
 30
0.0
 10
0.081523
 20
0.169120
 30
0.0
 10
0.100441
 20
0.173645
 30
0.0
 10
0.096330
 20
0.165829
 30
0.0
 10
0.073300
 20
0.124706
 30
0.0
 10
0.069580
 20
0.117983
 30
0.0
 10
0.096037
 20
0.117983
 30
0.0
 10
0.129226
 20
0.176729
 30
0.0
 10
0.150611
 20
0.189680
 30
0.0
 10
0.179397
 20
0.210038
 30
0.0
 10
0.163611
 20
0.222354
 30
0.0
  0
LWPOLYLINE
  5
102
100
AcDbEntity
  8
Layer_1
 62
7
100
AcDbPolyline
 90
7
 70
1
 10
0.226302
 20
0.117983
 30
0.0
 10
0.273057
 20
0.117983
 30
0.0
 10
0.298656
 20
0.164184
 30
0.0
 10
0.310171
 20
0.185569
 30
0.0
 10
0.288991
 20
0.188858
 30
0.0
 10
0.265347
 20
0.166446
 30
0.0
 10
0.226302
 20
0.117983
 30
0.0
  0
LWPOLYLINE
  5
103
100
AcDbEntity
  8
Layer_1
 62
7
100
AcDbPolyline
 90
11
 70
1
 10
0.161650
 20
0.117983
 30
0.0
 10
0.190273
 20
0.117983
 30
0.0
 10
0.226691
 20
0.176111
 30
0.0
 10
0.225661
 20
0.202635
 30
0.0
 10
0.182072
 20
0.181457
 30
0.0
 10
0.163361
 20
0.171792
 30
0.0
 10
0.150612
 20
0.159660
 30
0.0
 10
0.163566
 20
0.145473
 30
0.0
 10
0.187418
 20
0.158633
 30
0.0
 10
0.174259
 20
0.136221
 30
0.0
 10
0.161650
 20
0.117983
 30
0.0
  0
LWPOLYLINE
  5
104
100
AcDbEntity
  8
Layer_1
 62
7
100
AcDbPolyline
 90
24
 70
1
 10
0.348935
 20
0.117983
 30
0.0
 10
0.316773
 20
0.117983
 30
0.0
 10
0.284518
 20
0.077246
 30
0.0
 10
0.248073
 20
0.040608
 30
0.0
 10
0.252187
 20
0.068572
 30
0.0
 10
0.273057
 20
0.117983
 30
0.0
 10
0.226302
 20
0.117983
 30
0.0
 10
0.200238
 20
0.086473
 30
0.0
 10
0.173641
 20
0.055412
 30
0.0
 10
0.147322
 20
0.032795
 30
0.0
 10
0.164388
 20
0.075153
 30
0.0
 10
0.190273
 20
0.117983
 30
0.0
 10
0.161650
 20
0.117983
 30
0.0
 10
0.135076
 20
0.072087
 30
0.0
 10
0.119769
 20
0.021690
 30
0.0
 10
0.136835
 20
0.000513
 30
0.0
 10
0.179895
 20
0.026206
 30
0.0
 10
0.214354
 20
0.064255
 30
0.0
 10
0.232242
 20
0.085228
 30
0.0
 10
0.227923
 20
0.072891
 30
0.0
 10
0.220522
 20
0.012233
 30
0.0
 10
0.248895
 20
0.011615
 30
0.0
 10
0.305029
 20
0.061785
 30
0.0
 10
0.348935
 20
0.117983
 30
0.0
  0
LWPOLYLINE
  5
105
100
AcDbEntity
  8
Layer_1
 62
7
100
AcDbPolyline
 90
11
 70
1
 10
0.377799
 20
0.222499
 30
0.0
 10
0.368154
 20
0.220731
 30
0.0
 10
0.350061
 20
0.209008
 30
0.0
 10
0.354995
 20
0.207981
 30
0.0
 10
0.362399
 20
0.196671
 30
0.0
 10
0.329911
 20
0.136221
 30
0.0
 10
0.316773
 20
0.117983
 30
0.0
 10
0.348935
 20
0.117983
 30
0.0
 10
0.375899
 20
0.160929
 30
0.0
 10
0.393241
 20
0.208186
 30
0.0
 10
0.377799
 20
0.222499
 30
0.0
  0
ENDSEC
  0
SECTION
  2
OBJECTS
  0
DICTIONARY
  5
C
330
0
100
AcDbDictionary
  3
ACAD_GROUP
350
D
  3
ACAD_MLINESTYLE
350
17
  0
DICTIONARY
  5
D
330
C
100
AcDbDictionary
  0
DICTIONARY
  5
1A
330
C
100
AcDbDictionary
  0
DICTIONARY
  5
17
330
C
100
AcDbDictionary
  3
STANDARD
350
18
  0
DICTIONARY
  5
19
330
C
100
AcDbDictionary
  0
ENDSEC
  0
EOF
