0
SECTION
2
HEADER
9
$INSUNITS
70
1
9
$ACADVER
1
AC1014
9
$HANDSEED
5
FFFF
0
ENDSEC
0
SECTION
2
TABLES
0
TABLE
2
VPORT
5
8
100
AcDbSymbolTable
0
ENDTAB
0
TABLE
2
LTYPE
5
5
100
AcDbSymbolTable
0
LTYPE
5
14
100
AcDbSymbolTableRecord
100
AcDbLinetypeTableRecord
2
BYBLOCK
70
0
0
LTYPE
5
15
100
AcDbSymbolTableRecord
100
AcDbLinetypeTableRecord
2
BYLAYER
70
0
0
ENDTAB
0
TABLE
2
LAYER
5
2
100
AcDbSymbolTable
70
2
0
LAYER
5
50
100
AcDbSymbolTableRecord
100
AcDbLayerTableRecord
2
0
70
0
6
CONTINUOUS
0
ENDTAB
0
TABLE
2
STYLE
5
3
100
AcDbSymbolTable
70
1
0
STYLE
5
11
100
AcDbSymbolTableRecord
100
AcDbTextStyleTableRecord
2
STANDARD
70
0
0
ENDTAB
0
TABLE
2
VIEW
5
6
100
AcDbSymbolTable
70
0
0
ENDTAB
0
TABLE
2
UCS
5
7
100
AcDbSymbolTable
70
0
0
ENDTAB
0
TABLE
2
APPID
5
9
100
AcDbSymbolTable
70
2
0
APPID
5
12
100
AcDbSymbolTableRecord
100
AcDbRegAppTableRecord
2
ACAD
70
0
0
ENDTAB
0
TABLE
2
DIMSTYLE
5
A
100
AcDbSymbolTable
70
1
0
ENDTAB
0
TABLE
2
BLOCK_RECORD
5
1
100
AcDbSymbolTable
70
1
0
BLOCK_RECORD
5
1F
100
AcDbSymbolTableRecord
100
AcDbBlockTableRecord
2
*MODEL_SPACE
0
BLOCK_RECORD
5
1B
100
AcDbSymbolTableRecord
100
AcDbBlockTableRecord
2
*PAPER_SPACE
0
ENDTAB
0
ENDSEC
0
SECTION
2
BLOCKS
0
BLOCK
5
20
100
AcDbEntity
100
AcDbBlockBegin
2
*MODEL_SPACE
0
ENDBLK
5
21
100
AcDbEntity
100
AcDbBlockEnd
0
BLOCK
5
1C
100
AcDbEntity
100
AcDbBlockBegin
2
*PAPER_SPACE
0
ENDBLK
5
1D
100
AcDbEntity
100
AcDbBlockEnd
0
ENDSEC
0
SECTION
2
ENTITIES
0
LWPOLYLINE
5
100
100
AcDbEntity
8
0
100
AcDbPolyline
90
8
70
1
43
0.0
10
0.49476801933353493
20
-0.18925
10
-0.49476801933353493
20
-0.18924999999999997
10
-0.66249999999999987
20
-0.12891005370829764
10
-0.66249999999999998
20
0.12891005370829758
10
-0.49476801933353493
20
0.18925
10
0.49476801933353493
20
0.18924999999999997
10
0.66249999999999987
20
0.12891005370829764
10
0.66249999999999998
20
-0.12891005370829758
0
SPLINE
5
101
100
AcDbEntity
8
0
100
AcDbSpline
70
4
71
3
72
8
73
4
74
0
42
0.000000001
43
0.0000000001
44
0.0000000001
40
0
40
0
40
0
40
0
40
1
40
1
40
1
40
1
41
1
41
1
41
1
41
1
10
0.13758223947246009
20
-0.17398345691066436
30
0
10
0.14343110608836362
20
-0.17105902360271263
30
0
10
0.1516560747669779
20
-0.15698518830819488
30
0
10
0.17249266208613406
20
-0.11476368242464154
30
0
0
LINE
5
102
100
AcDbEntity
8
0
100
AcDbLine
10
0.17249266208613404
20
-0.11476368242464154
30
0
11
0.19150147858782035
21
-0.075832164012533967
31
0
0
LINE
5
103
100
AcDbEntity
8
0
100
AcDbLine
10
0.19150147858782035
20
-0.075832164012533967
30
0
11
0.19680201395848301
21
-0.077842711911750781
31
0
0
SPLINE
5
104
100
AcDbEntity
8
0
100
AcDbSpline
70
4
71
3
72
8
73
4
74
0
42
0.000000001
43
0.0000000001
44
0.0000000001
40
0
40
0
40
0
40
0
40
1
40
1
40
1
40
1
41
1
41
1
41
1
41
1
10
0.19680201395848293
20
-0.077842711911750795
30
0
10
0.20886530135378389
20
-0.082412138955425387
30
0
10
0.2329918761443858
20
-0.069069411987895513
30
0
10
0.25364568638179502
20
-0.046587830933016515
30
0
0
SPLINE
5
105
100
AcDbEntity
8
0
100
AcDbSpline
70
4
71
3
72
8
73
4
74
0
42
0.000000001
43
0.0000000001
44
0.0000000001
40
0
40
0
40
0
40
0
40
1
40
1
40
1
40
1
41
1
41
1
41
1
41
1
10
0.25364568638179502
20
-0.046587830933016515
30
0
10
0.26534341961360197
20
-0.034158989374221578
30
0
10
0.27338561121046917
20
-0.020633485324944752
30
0
10
0.27795503825414375
20
-0.0065596500304269797
30
0
0
SPLINE
5
106
100
AcDbEntity
8
0
100
AcDbSpline
70
4
71
3
72
8
73
4
74
0
42
0.000000001
43
0.0000000001
44
0.0000000001
40
0
40
0
40
0
40
0
40
1
40
1
40
1
40
1
41
1
41
1
41
1
41
1
10
0.27795503825414375
20
-0.0065596500304269797
30
0
10
0.28014836323510767
20
-0.00034522925102955387
30
0
10
0.28343835070655332
20
0.0049553061196330236
30
0
10
0.2880077777502279
20
0.0091591789998136247
30
0
0
SPLINE
5
107
100
AcDbEntity
8
0
100
AcDbSpline
70
4
71
3
72
8
73
4
74
0
42
0.000000001
43
0.0000000001
44
0.0000000001
40
0
40
0
40
0
40
0
40
1
40
1
40
1
40
1
41
1
41
1
41
1
41
1
10
0.2880077777502279
20
0.0091591789998136247
30
0
10
0.30080217347251681
20
0.020674135149873627
30
0
10
0.30756492549715525
20
0.019760249741138693
30
0
10
0.30537160051619139
20
0.0067830769371028518
30
0
0
SPLINE
5
108
100
AcDbEntity
8
0
100
AcDbSpline
70
4
71
3
72
8
73
4
74
0
42
0.000000001
43
0.0000000001
44
0.0000000001
40
0
40
0
40
0
40
0
40
1
40
1
40
1
40
1
41
1
41
1
41
1
41
1
10
0.30537160051619139
20
0.0067830769371028518
30
0
10
0.30299549845348062
20
-0.0065596500304269797
30
0
10
0.28106224864384255
20
-0.057737232919582528
30
0
10
0.25602178844450568
20
-0.10873203872699108
30
0
0
SPLINE
5
109
100
AcDbEntity
8
0
100
AcDbSpline
70
4
71
3
72
8
73
4
74
0
42
0.000000001
43
0.0000000001
44
0.0000000001
40
0
40
0
40
0
40
0
40
1
40
1
40
1
40
1
41
1
41
1
41
1
41
1
10
0.25602178844450568
20
-0.10873203872699108
30
0
10
0.24158239898649406
20
-0.13779359472476155
30
0
10
0.23025021991818101
20
-0.16265127784235137
30
0
10
0.23098132824516893
20
-0.1641134944963272
30
0
0
SPLINE
5
110
100
AcDbEntity
8
0
100
AcDbSpline
70
4
71
3
72
8
73
4
74
0
42
0.000000001
43
0.0000000001
44
0.0000000001
40
0
40
0
40
0
40
0
40
1
40
1
40
1
40
1
41
1
41
1
41
1
41
1
10
0.23098132824516893
20
-0.1641134944963272
30
0
10
0.2322607678173978
20
-0.1675862590495199
30
0
10
0.24012018233251819
20
-0.1675862590495199
30
0
10
0.24596904894842161
20
-0.16429627157807422
30
0
0
SPLINE
5
111
100
AcDbEntity
8
0
100
AcDbSpline
70
4
71
3
72
8
73
4
74
0
42
0.000000001
43
0.0000000001
44
0.0000000001
40
0
40
0
40
0
40
0
40
1
40
1
40
1
40
1
41
1
41
1
41
1
41
1
10
0.24596904894842161
20
-0.16429627157807422
30
0
10
0.25218346972781908
20
-0.16082350702488152
30
0
10
0.26168787797866233
20
-0.1447391238311469
30
0
10
0.28234168821607147
20
-0.10233484086584664
30
0
0
SPLINE
5
112
100
AcDbEntity
8
0
100
AcDbSpline
70
4
71
3
72
8
73
4
74
0
42
0.000000001
43
0.0000000001
44
0.0000000001
40
0
40
0
40
0
40
0
40
1
40
1
40
1
40
1
41
1
41
1
41
1
41
1
10
0.28234168821607147
20
-0.10233484086584664
30
0
10
0.29623274642884223
20
-0.07382161611331714
30
0
10
0.3006193963907699
20
-0.066510532843437761
30
0
10
0.30281272137173371
20
-0.067607195333919679
30
0
0
SPLINE
5
113
100
AcDbEntity
8
0
100
AcDbSpline
70
4
71
3
72
8
73
4
74
0
42
0.000000001
43
0.0000000001
44
0.0000000001
40
0
40
0
40
0
40
0
40
1
40
1
40
1
40
1
41
1
41
1
41
1
41
1
10
0.30281272137173371
20
-0.067607195333919679
30
0
10
0.30829603382414322
20
-0.070166074478377471
30
0
10
0.31889710456546827
20
-0.068521080742654589
30
0
10
0.32949817530679337
20
-0.063403322453739017
30
0
0
SPLINE
5
114
100
AcDbEntity
8
0
100
AcDbSpline
70
4
71
3
72
8
73
4
74
0
42
0.000000001
43
0.0000000001
44
0.0000000001
40
0
40
0
40
0
40
0
40
1
40
1
40
1
40
1
41
1
41
1
41
1
41
1
10
0.32949817530679337
20
-0.063403322453739017
30
0
10
0.34503422725528698
20
-0.055726685020365707
30
0
10
0.37135412702685267
20
-0.029224008167053037
30
0
10
0.38012742695070789
20
-0.012042962482836509
30
0
0
SPLINE
5
115
100
AcDbEntity
8
0
100
AcDbSpline
70
4
71
3
72
8
73
4
74
0
42
0.000000001
43
0.0000000001
44
0.0000000001
40
0
40
0
40
0
40
0
40
1
40
1
40
1
40
1
41
1
41
1
41
1
41
1
10
0.38012742695070789
20
-0.012042962482836509
30
0
10
0.39200793726426181
20
0.010986949817283454
30
0
10
0.41814505995408052
20
0.031092428809451698
30
0
10
0.435874436883538
20
0.031092428809451698
30
0
0
SPLINE
5
116
100
AcDbEntity
8
0
100
AcDbSpline
70
4
71
3
72
8
73
4
74
0
42
0.000000001
43
0.0000000001
44
0.0000000001
40
0
40
0
40
0
40
0
40
1
40
1
40
1
40
1
41
1
41
1
41
1
41
1
10
0.435874436883538
20
0.031092428809451698
30
0
10
0.44574439929787513
20
0.031092428809451698
30
0
10
0.45214159715901953
20
0.025426339275295216
30
0
10
0.44903438676932084
20
0.019577472659391738
30
0
0
SPLINE
5
117
100
AcDbEntity
8
0
100
AcDbSpline
70
4
71
3
72
8
73
4
74
0
42
0.000000001
43
0.0000000001
44
0.0000000001
40
0
40
0
40
0
40
0
40
1
40
1
40
1
40
1
41
1
41
1
41
1
41
1
10
0.44903438676932084
20
0.019577472659391738
30
0
10
0.44684106178835709
20
0.015556376860958046
30
0
10
0.42892890777715259
20
0.0012997644846933225
30
0
10
0.42070393909853832
20
-0.0029041083954873224
30
0
0
SPLINE
5
118
100
AcDbEntity
8
0
100
AcDbSpline
70
4
71
3
72
8
73
4
74
0
42
0.000000001
43
0.0000000001
44
0.0000000001
40
0
40
0
40
0
40
0
40
1
40
1
40
1
40
1
41
1
41
1
41
1
41
1
10
0.42070393909853832
20
-0.0029041083954873224
30
0
10
0.41759672870883963
20
-0.0043663250494631592
30
0
10
0.41375840999215291
20
-0.0072907583574149636
30
0
10
0.41193063917468303
20
-0.0093013062566317441
30
0
0
SPLINE
5
119
100
AcDbEntity
8
0
100
AcDbSpline
70
4
71
3
72
8
73
4
74
0
42
0.000000001
43
0.0000000001
44
0.0000000001
40
0
40
0
40
0
40
0
40
1
40
1
40
1
40
1
41
1
41
1
41
1
41
1
10
0.41193063917468303
20
-0.0093013062566317441
30
0
10
0.40882342878498434
20
-0.012591293728077452
30
0
10
0.40882342878498434
20
-0.012956847891571446
30
0
10
0.41229619333817702
20
-0.01716072077175209
30
0
0
SPLINE
5
120
100
AcDbEntity
8
0
100
AcDbSpline
70
4
71
3
72
8
73
4
74
0
42
0.000000001
43
0.0000000001
44
0.0000000001
40
0
40
0
40
0
40
0
40
1
40
1
40
1
40
1
41
1
41
1
41
1
41
1
10
0.41229619333817702
20
-0.01716072077175209
30
0
10
0.41558618080962278
20
-0.021364593651932693
30
0
10
0.41613451205486368
20
-0.021364593651932693
30
0
10
0.42362837240649009
20
-0.019171268670968914
30
0
0
SPLINE
5
121
100
AcDbEntity
8
0
100
AcDbSpline
70
4
71
3
72
8
73
4
74
0
42
0.000000001
43
0.0000000001
44
0.0000000001
40
0
40
0
40
0
40
0
40
1
40
1
40
1
40
1
41
1
41
1
41
1
41
1
10
0.42362837240649009
20
-0.019171268670968914
30
0
10
0.43751943061926091
20
-0.01496739579078827
30
0
10
0.43989553268197168
20
-0.014601841627294321
30
0
10
0.43989553268197168
20
-0.016612389526511104
30
0
0
SPLINE
5
122
100
AcDbEntity
8
0
100
AcDbSpline
70
4
71
3
72
8
73
4
74
0
42
0.000000001
43
0.0000000001
44
0.0000000001
40
0
40
0
40
0
40
0
40
1
40
1
40
1
40
1
41
1
41
1
41
1
41
1
10
0.43989553268197168
20
-0.016612389526511104
30
0
10
0.43989553268197168
20
-0.019354045752715866
30
0
10
0.42783224528667074
20
-0.030869001902775913
30
0
10
0.41942449952630945
20
-0.03671786851867935
30
0
0
LINE
5
123
100
AcDbEntity
8
0
100
AcDbLine
10
0.41942449952630945
20
-0.03671786851867935
30
0
11
0.4124789704199241
21
-0.041287295562353943
31
0
0
LINE
5
124
100
AcDbEntity
8
0
100
AcDbLine
10
0.4124789704199241
20
-0.041287295562353943
30
0
11
0.40918898294847833
21
-0.037083422682173288
31
0
0
SPLINE
5
125
100
AcDbEntity
8
0
100
AcDbSpline
70
4
71
3
72
8
73
4
74
0
42
0.000000001
43
0.0000000001
44
0.0000000001
40
0
40
0
40
0
40
0
40
1
40
1
40
1
40
1
41
1
41
1
41
1
41
1
10
0.40918898294847833
20
-0.037083422682173295
30
0
10
0.40681288088576756
20
-0.034158989374221578
30
0
10
0.40480233298655072
20
-0.03342788104723364
30
0
10
0.40114679135161108
20
-0.03434176645596853
30
0
0
SPLINE
5
126
100
AcDbEntity
8
0
100
AcDbSpline
70
4
71
3
72
8
73
4
74
0
42
0.000000001
43
0.0000000001
44
0.0000000001
40
0
40
0
40
0
40
0
40
1
40
1
40
1
40
1
41
1
41
1
41
1
41
1
10
0.40114679135161108
20
-0.03434176645596853
30
0
10
0.39145960601902091
20
-0.036900645600426343
30
0
10
0.38158964360468378
20
-0.050791703813197121
30
0
10
0.38451407691263551
20
-0.058285564164823493
30
0
0
SPLINE
5
127
100
AcDbEntity
8
0
100
AcDbSpline
70
4
71
3
72
8
73
4
74
0
42
0.000000001
43
0.0000000001
44
0.0000000001
40
0
40
0
40
0
40
0
40
1
40
1
40
1
40
1
41
1
41
1
41
1
41
1
10
0.38451407691263551
20
-0.058285564164823493
30
0
10
0.38597629356661145
20
-0.06230665996325712
30
0
10
0.39493237057221364
20
-0.064134430780726948
30
0
10
0.40388844757781583
20
-0.062489437045004072
30
0
0
SPLINE
5
128
100
AcDbEntity
8
0
100
AcDbSpline
70
4
71
3
72
8
73
4
74
0
42
0.000000001
43
0.0000000001
44
0.0000000001
40
0
40
0
40
0
40
0
40
1
40
1
40
1
40
1
41
1
41
1
41
1
41
1
10
0.40388844757781583
20
-0.062489437045004072
30
0
10
0.4230800411612492
20
-0.059016672491811369
30
0
10
0.45159326591377863
20
-0.039642301826631067
30
0
10
0.45634547003920017
20
-0.02684790610434222
30
0
0
SPLINE
5
129
100
AcDbEntity
8
0
100
AcDbSpline
70
4
71
3
72
8
73
4
74
0
42
0.000000001
43
0.0000000001
44
0.0000000001
40
0
40
0
40
0
40
0
40
1
40
1
40
1
40
1
41
1
41
1
41
1
41
1
10
0.45634547003920017
20
-0.02684790610434222
30
0
10
0.45945268042889892
20
-0.018622937425727928
30
0
10
0.45853879502016393
20
-0.0082046437661498564
30
0
10
0.45433492213998339
20
-0.004000770885969211
30
0
0
SPLINE
5
130
100
AcDbEntity
8
0
100
AcDbSpline
70
4
71
3
72
8
73
4
74
0
42
0.000000001
43
0.0000000001
44
0.0000000001
40
0
40
0
40
0
40
0
40
1
40
1
40
1
40
1
41
1
41
1
41
1
41
1
10
0.45433492213998339
20
-0.004000770885969211
30
0
10
0.45049660342329673
20
-0.00016245216928255794
30
0
10
0.45049660342329673
20
2.0324912464394326e-05
30
0
10
0.45378659089474238
20
0.0018480957299342666
30
0
0
SPLINE
5
131
100
AcDbEntity
8
0
100
AcDbSpline
70
4
71
3
72
8
73
4
74
0
42
0.000000001
43
0.0000000001
44
0.0000000001
40
0
40
0
40
0
40
0
40
1
40
1
40
1
40
1
41
1
41
1
41
1
41
1
10
0.45378659089474238
20
0.0018480957299342666
30
0
10
0.45579713879395928
20
0.0029447582204161988
30
0
10
0.46036656583763391
20
0.0069658540188498475
30
0
10
0.46420488455432057
20
0.010804172735536501
30
0
0
SPLINE
5
132
100
AcDbEntity
8
0
100
AcDbSpline
70
4
71
3
72
8
73
4
74
0
42
0.000000001
43
0.0000000001
44
0.0000000001
40
0
40
0
40
0
40
0
40
1
40
1
40
1
40
1
41
1
41
1
41
1
41
1
10
0.46420488455432057
20
0.010804172735536501
30
0
10
0.469870974088477
20
0.016835816433186976
30
0
10
0.47096763657895896
20
0.019211918495897748
30
0
10
0.47096763657895896
20
0.025974670520536161
30
0
0
SPLINE
5
133
100
AcDbEntity
8
0
100
AcDbSpline
70
4
71
3
72
8
73
4
74
0
42
0.000000001
43
0.0000000001
44
0.0000000001
40
0
40
0
40
0
40
0
40
1
40
1
40
1
40
1
41
1
41
1
41
1
41
1
10
0.47096763657895896
20
0.025974670520536161
30
0
10
0.47096763657895896
20
0.042059053714270801
30
0
10
0.45853879502016393
20
0.049918468229391062
30
0
10
0.4353261056382971
20
0.048456251575415221
30
0
0
SPLINE
5
134
100
AcDbEntity
8
0
100
AcDbSpline
70
4
71
3
72
8
73
4
74
0
42
0.000000001
43
0.0000000001
44
0.0000000001
40
0
40
0
40
0
40
0
40
1
40
1
40
1
40
1
41
1
41
1
41
1
41
1
10
0.4353261056382971
20
0.048456251575415221
30
0
10
0.42435948073347807
20
0.047725143248427242
30
0
10
0.41979005368980343
20
0.046445703676198352
30
0
10
0.40955453711197237
20
0.04077961414204187
30
0
0
SPLINE
5
135
100
AcDbEntity
8
0
100
AcDbSpline
70
4
71
3
72
8
73
4
74
0
42
0.000000001
43
0.0000000001
44
0.0000000001
40
0
40
0
40
0
40
0
40
1
40
1
40
1
40
1
41
1
41
1
41
1
41
1
10
0.40955453711197237
20
0.04077961414204187
30
0
10
0.40260900800558685
20
0.036941295425355222
30
0
10
0.39529792473570752
20
0.03237186838168063
30
0
10
0.39310459975474377
20
0.030361320482463802
30
0
0
SPLINE
5
136
100
AcDbEntity
8
0
100
AcDbSpline
70
4
71
3
72
8
73
4
74
0
42
0.000000001
43
0.0000000001
44
0.0000000001
40
0
40
0
40
0
40
0
40
1
40
1
40
1
40
1
41
1
41
1
41
1
41
1
10
0.39310459975474377
20
0.030361320482463802
30
0
10
0.3887179497928161
20
0.026340224684030109
30
0
10
0.38689017897534628
20
0.025974670520536161
30
0
10
0.38689017897534628
20
0.029264657991981871
30
0
0
SPLINE
5
137
100
AcDbEntity
8
0
100
AcDbSpline
70
4
71
3
72
8
73
4
74
0
42
0.000000001
43
0.0000000001
44
0.0000000001
40
0
40
0
40
0
40
0
40
1
40
1
40
1
40
1
41
1
41
1
41
1
41
1
10
0.38689017897534628
20
0.029264657991981871
30
0
10
0.38689017897534628
20
0.03072687464595775
30
0
10
0.38487963107612949
20
0.033651307953909464
30
0
10
0.3823207519316717
20
0.036027410016620284
30
0
0
SPLINE
5
138
100
AcDbEntity
8
0
100
AcDbSpline
70
4
71
3
72
8
73
4
74
0
42
0.000000001
43
0.0000000001
44
0.0000000001
40
0
40
0
40
0
40
0
40
1
40
1
40
1
40
1
41
1
41
1
41
1
41
1
10
0.3823207519316717
20
0.036027410016620284
30
0
10
0.37098857286335862
20
0.046811257839692304
30
0
10
0.34996920846245549
20
0.036392964180114229
30
0
10
0.3287670669798054
20
0.0095247331633076162
30
0
0
SPLINE
5
139
100
AcDbEntity
8
0
100
AcDbSpline
70
4
71
3
72
8
73
4
74
0
42
0.000000001
43
0.0000000001
44
0.0000000001
40
0
40
0
40
0
40
0
40
1
40
1
40
1
40
1
41
1
41
1
41
1
41
1
10
0.3287670669798054
20
0.0095247331633076162
30
0
10
0.32328375452739583
20
0.0023964269751752107
30
0
10
0.3192626587289622
20
-0.0016246688232583945
30
0
10
0.31999376705595012
20
0.00020310199421143401
30
0
0
SPLINE
5
140
100
AcDbEntity
8
0
100
AcDbSpline
70
4
71
3
72
8
73
4
74
0
42
0.000000001
43
0.0000000001
44
0.0000000001
40
0
40
0
40
0
40
0
40
1
40
1
40
1
40
1
41
1
41
1
41
1
41
1
10
0.31999376705595012
20
0.00020310199421143401
30
0
10
0.32675651908058856
20
0.0188463643324038
30
0
10
0.32474597118137172
20
0.031092428809451698
30
0
10
0.31414490044004667
20
0.03547907877137934
30
0
0
SPLINE
5
141
100
AcDbEntity
8
0
100
AcDbSpline
70
4
71
3
72
8
73
4
74
0
42
0.000000001
43
0.0000000001
44
0.0000000001
40
0
40
0
40
0
40
0
40
1
40
1
40
1
40
1
41
1
41
1
41
1
41
1
10
0.31414490044004667
20
0.03547907877137934
30
0
10
0.30573715467968537
20
0.038951843324572043
30
0
10
0.29787774016456509
20
0.037489626670596209
30
0
10
0.28654556109625207
20
0.029812989237222812
30
0
0
SPLINE
5
142
100
AcDbEntity
8
0
100
AcDbSpline
70
4
71
3
72
8
73
4
74
0
42
0.000000001
43
0.0000000001
44
0.0000000001
40
0
40
0
40
0
40
0
40
1
40
1
40
1
40
1
41
1
41
1
41
1
41
1
10
0.28654556109625207
20
0.029812989237222812
30
0
10
0.27758948409064982
20
0.023781345539572341
30
0
10
0.27740670700890285
20
0.023781345539572341
30
0
10
0.27429949661920411
20
0.027071333011018051
30
0
0
SPLINE
5
143
100
AcDbEntity
8
0
100
AcDbSpline
70
4
71
3
72
8
73
4
74
0
42
0.000000001
43
0.0000000001
44
0.0000000001
40
0
40
0
40
0
40
0
40
1
40
1
40
1
40
1
41
1
41
1
41
1
41
1
10
0.27429949661920411
20
0.027071333011018051
30
0
10
0.27009562373902352
20
0.031823537136439636
30
0
10
0.25894622175245757
20
0.031640760054692685
30
0
10
0.24944181350161437
20
0.026705778847524102
30
0
0
SPLINE
5
144
100
AcDbEntity
8
0
100
AcDbSpline
70
4
71
3
72
8
73
4
74
0
42
0.000000001
43
0.0000000001
44
0.0000000001
40
0
40
0
40
0
40
0
40
1
40
1
40
1
40
1
41
1
41
1
41
1
41
1
10
0.24944181350161437
20
0.026705778847524102
30
0
10
0.24103406774125308
20
0.022319128885596503
30
0
10
0.22622912411974738
20
0.0084280706728257285
30
0
10
0.21690749295065118
20
-0.0041835479677162068
30
0
0
SPLINE
5
145
100
AcDbEntity
8
0
100
AcDbSpline
70
4
71
3
72
8
73
4
74
0
42
0.000000001
43
0.0000000001
44
0.0000000001
40
0
40
0
40
0
40
0
40
1
40
1
40
1
40
1
41
1
41
1
41
1
41
1
10
0.21690749295065118
20
-0.0041835479677162068
30
0
10
0.21361750547920544
20
-0.0087529750113907994
30
0
10
0.21142418049824166
20
-0.010763522910607582
30
0
10
0.21233806590697663
20
-0.0087529750113907994
30
0
0
SPLINE
5
146
100
AcDbEntity
8
0
100
AcDbSpline
70
4
71
3
72
8
73
4
74
0
42
0.000000001
43
0.0000000001
44
0.0000000001
40
0
40
0
40
0
40
0
40
1
40
1
40
1
40
1
41
1
41
1
41
1
41
1
10
0.21233806590697663
20
-0.0087529750113907994
30
0
10
0.21306917423396454
20
-0.0067424271121739755
30
0
10
0.21398305964269942
20
0.00020310199421143401
30
0
10
0.2145313908879404
20
0.0067830769371028518
30
0
0
SPLINE
5
147
100
AcDbEntity
8
0
100
AcDbSpline
70
4
71
3
72
8
73
4
74
0
42
0.000000001
43
0.0000000001
44
0.0000000001
40
0
40
0
40
0
40
0
40
1
40
1
40
1
40
1
41
1
41
1
41
1
41
1
10
0.2145313908879404
20
0.0067830769371028518
30
0
10
0.21544527629667531
20
0.01774970184192191
30
0
10
0.21507972213318141
20
0.019029141414150751
30
0
10
0.21087584925300076
20
0.022867460130837403
30
0
0
SPLINE
5
148
100
AcDbEntity
8
0
100
AcDbSpline
70
4
71
3
72
8
73
4
74
0
42
0.000000001
43
0.0000000001
44
0.0000000001
40
0
40
0
40
0
40
0
40
1
40
1
40
1
40
1
41
1
41
1
41
1
41
1
10
0.21087584925300076
20
0.022867460130837403
30
0
10
0.20429587431010934
20
0.029081880910234875
30
0
10
0.19241536399655529
20
0.028899103828487923
30
0
10
0.18144873909173626
20
0.022501905967343454
30
0
0
LINE
5
149
100
AcDbEntity
8
0
100
AcDbLine
10
0.18144873909173626
20
0.022501905967343454
30
0
11
0.17304099333137504
21
0.017566924760174907
31
0
0
LINE
5
150
100
AcDbEntity
8
0
100
AcDbLine
10
0.17304099333137504
20
0.017566924760174907
30
0
11
0.16774045796071244
21
0.021588020558608541
31
0
0
SPLINE
5
151
100
AcDbEntity
8
0
100
AcDbSpline
70
4
71
3
72
8
73
4
74
0
42
0.000000001
43
0.0000000001
44
0.0000000001
40
0
40
0
40
0
40
0
40
1
40
1
40
1
40
1
41
1
41
1
41
1
41
1
10
0.16774045796071241
20
0.021588020558608565
30
0
10
0.15768771846462834
20
0.028899103828487923
30
0
10
0.14434499149709859
20
0.022684683049090451
30
0
10
0.12752949997637594
20
0.0027619811386691592
30
0
0
SPLINE
5
152
100
AcDbEntity
8
0
100
AcDbSpline
70
4
71
3
72
8
73
4
74
0
42
0.000000001
43
0.0000000001
44
0.0000000001
40
0
40
0
40
0
40
0
40
1
40
1
40
1
40
1
41
1
41
1
41
1
41
1
10
0.12752949997637594
20
0.0027619811386691592
30
0
10
0.12241174168746048
20
-0.0032696625589813144
30
0
10
0.11820786880727983
20
-0.0078390896026559083
30
0
10
0.11820786880727983
20
-0.0071079812756679678
30
0
0
SPLINE
5
153
100
AcDbEntity
8
0
100
AcDbSpline
70
4
71
3
72
8
73
4
74
0
42
0.000000001
43
0.0000000001
44
0.0000000001
40
0
40
0
40
0
40
0
40
1
40
1
40
1
40
1
41
1
41
1
41
1
41
1
10
0.11820786880727983
20
-0.0071079812756679678
30
0
10
0.11820786880727983
20
-0.0027213313137403705
30
0
10
0.13429225200101444
20
0.029264657991981871
30
0
10
0.13995834153517087
20
0.036027410016620284
30
0
0
SPLINE
5
154
100
AcDbEntity
8
0
100
AcDbSpline
70
4
71
3
72
8
73
4
74
0
42
0.000000001
43
0.0000000001
44
0.0000000001
40
0
40
0
40
0
40
0
40
1
40
1
40
1
40
1
41
1
41
1
41
1
41
1
10
0.13995834153517087
20
0.036027410016620284
30
0
10
0.16682657255197753
20
0.067830622240595481
30
0
10
0.17340654749486903
20
0.098171617810594844
30
0
10
0.15366662266619469
20
0.098171617810594844
30
0
0
SPLINE
5
155
100
AcDbEntity
8
0
100
AcDbSpline
70
4
71
3
72
8
73
4
74
0
42
0.000000001
43
0.0000000001
44
0.0000000001
40
0
40
0
40
0
40
0
40
1
40
1
40
1
40
1
41
1
41
1
41
1
41
1
10
0.15366662266619469
20
0.098171617810594844
30
0
10
0.1448933227423394
20
0.098171617810594844
30
0
10
0.13648557698197822
20
0.089946649131980597
30
0
10
0.12716394581288201
20
0.072034495120776129
30
0
0
SPLINE
5
156
100
AcDbEntity
8
0
100
AcDbSpline
70
4
71
3
72
8
73
4
74
0
42
0.000000001
43
0.0000000001
44
0.0000000001
40
0
40
0
40
0
40
0
40
1
40
1
40
1
40
1
41
1
41
1
41
1
41
1
10
0.12716394581288201
20
0.072034495120776129
30
0
10
0.11839064588902674
20
0.055219003600053593
30
0
10
0.10066126895956935
20
0.033102976708668477
30
0
10
0.073061929615774721
20
0.0051380832013799317
30
0
0
SPLINE
5
157
100
AcDbEntity
8
0
100
AcDbSpline
70
4
71
3
72
8
73
4
74
0
42
0.000000001
43
0.0000000001
44
0.0000000001
40
0
40
0
40
0
40
0
40
1
40
1
40
1
40
1
41
1
41
1
41
1
41
1
10
0.073061929615774721
20
0.0051380832013799317
30
0
10
0.053504781868847461
20
-0.014784618709041318
30
0
10
0.051128679806136598
20
-0.019354045752715911
30
0
10
0.056611992258546129
20
-0.026847906104342265
30
0
0
SPLINE
5
158
100
AcDbEntity
8
0
100
AcDbSpline
70
4
71
3
72
8
73
4
74
0
42
0.000000001
43
0.0000000001
44
0.0000000001
40
0
40
0
40
0
40
0
40
1
40
1
40
1
40
1
41
1
41
1
41
1
41
1
10
0.056611992258546129
20
-0.026847906104342265
30
0
10
0.059170871403003984
20
-0.03050344773928192
30
0
10
0.060084756811738874
20
-0.029772339412293982
30
0
10
0.099016275223846484
20
0.011900835226018345
30
0
0
SPLINE
5
159
100
AcDbEntity
8
0
100
AcDbSpline
70
4
71
3
72
8
73
4
74
0
42
0.000000001
43
0.0000000001
44
0.0000000001
40
0
40
0
40
0
40
0
40
1
40
1
40
1
40
1
41
1
41
1
41
1
41
1
10
0.099016275223846484
20
0.011900835226018345
30
0
10
0.10486514183975
20
0.018115256005415813
30
0
10
0.10998290012866554
20
0.023050237212584399
30
0
10
0.11034845429215953
20
0.022684683049090409
30
0
0
SPLINE
5
160
100
AcDbEntity
8
0
100
AcDbSpline
70
4
71
3
72
8
73
4
74
0
42
0.000000001
43
0.0000000001
44
0.0000000001
40
0
40
0
40
0
40
0
40
1
40
1
40
1
40
1
41
1
41
1
41
1
41
1
10
0.11034845429215953
20
0.022684683049090409
30
0
10
0.11126233970089443
20
0.02158802055860852
30
0
10
0.10230626269529224
20
0.00075143323945233451
30
0
10
0.085125217011075657
20
-0.035803983109944496
30
0
0
SPLINE
5
161
100
AcDbEntity
8
0
100
AcDbSpline
70
4
71
3
72
8
73
4
74
0
42
0.000000001
43
0.0000000001
44
0.0000000001
40
0
40
0
40
0
40
0
40
1
40
1
40
1
40
1
41
1
41
1
41
1
41
1
10
0.085125217011075657
20
-0.035803983109944496
30
0
10
0.06081586513872677
20
-0.087529897244340973
30
0
10
0.062643635956196639
20
-0.082229361873678408
30
0
10
0.06794417132685926
20
-0.085702126426871125
30
0
0
SPLINE
5
162
100
AcDbEntity
8
0
100
AcDbSpline
70
4
71
3
72
8
73
4
74
0
42
0.000000001
43
0.0000000001
44
0.0000000001
40
0
40
0
40
0
40
0
40
1
40
1
40
1
40
1
41
1
41
1
41
1
41
1
10
0.06794417132685926
20
-0.085702126426871125
30
0
10
0.076169140005473562
20
-0.091002661797533607
30
0
10
0.080555789967401106
20
-0.088078228489581897
30
0
10
0.091522414872220167
20
-0.069252189069642547
30
0
0
SPLINE
5
163
100
AcDbEntity
8
0
100
AcDbSpline
70
4
71
3
72
8
73
4
74
0
42
0.000000001
43
0.0000000001
44
0.0000000001
40
0
40
0
40
0
40
0
40
1
40
1
40
1
40
1
41
1
41
1
41
1
41
1
10
0.091522414872220167
20
-0.069252189069642547
30
0
10
0.10322014810402722
20
-0.04932948715922128
30
0
10
0.11948730837950872
20
-0.028127345676571193
30
0
10
0.13575446865499022
20
-0.012042962482836509
30
0
0
SPLINE
5
164
100
AcDbEntity
8
0
100
AcDbSpline
70
4
71
3
72
8
73
4
74
0
42
0.000000001
43
0.0000000001
44
0.0000000001
40
0
40
0
40
0
40
0
40
1
40
1
40
1
40
1
41
1
41
1
41
1
41
1
10
0.13575446865499022
20
-0.012042962482836509
30
0
10
0.15512883932017058
20
0.0075141852640907923
30
0
10
0.15549439348366456
20
0.0045897519561390312
30
0
10
0.13849612488119498
20
-0.035803983109944454
30
0
0
SPLINE
5
165
100
AcDbEntity
8
0
100
AcDbSpline
70
4
71
3
72
8
73
4
74
0
42
0.000000001
43
0.0000000001
44
0.0000000001
40
0
40
0
40
0
40
0
40
1
40
1
40
1
40
1
41
1
41
1
41
1
41
1
10
0.13849612488119498
20
-0.035803983109944454
30
0
10
0.12222896460571349
20
-0.074187170276811112
30
0
10
0.12222896460571349
20
-0.074004393195064147
30
0
10
0.128260608303364
20
-0.078756597320485705
30
0
0
SPLINE
5
166
100
AcDbEntity
8
0
100
AcDbSpline
70
4
71
3
72
8
73
4
74
0
42
0.000000001
43
0.0000000001
44
0.0000000001
40
0
40
0
40
0
40
0
40
1
40
1
40
1
40
1
41
1
41
1
41
1
41
1
10
0.128260608303364
20
-0.078756597320485705
30
0
10
0.13081948744782168
20
-0.080949922301449484
30
0
10
0.13410947491926745
20
-0.082229361873678408
30
0
10
0.13520613740974941
20
-0.081681030628437443
30
0
0
SPLINE
5
167
100
AcDbEntity
8
0
100
AcDbSpline
70
4
71
3
72
8
73
4
74
0
42
0.000000001
43
0.0000000001
44
0.0000000001
40
0
40
0
40
0
40
0
40
1
40
1
40
1
40
1
41
1
41
1
41
1
41
1
10
0.13520613740974941
20
-0.081681030628437443
30
0
10
0.13648557698197822
20
-0.081315476464943498
30
0
10
0.1448933227423394
20
-0.065048316189461913
30
0
10
0.15384939974794168
20
-0.045673945524281605
30
0
0
SPLINE
5
168
100
AcDbEntity
8
0
100
AcDbSpline
70
4
71
3
72
8
73
4
74
0
42
0.000000001
43
0.0000000001
44
0.0000000001
40
0
40
0
40
0
40
0
40
1
40
1
40
1
40
1
41
1
41
1
41
1
41
1
10
0.15384939974794168
20
-0.045673945524281605
30
0
10
0.16353658508053187
20
-0.024837358205125396
30
0
10
0.17285821624962805
20
-0.0076563125209089117
30
0
10
0.17651375788456769
20
-0.0036352167224752629
30
0
0
SPLINE
5
169
100
AcDbEntity
8
0
100
AcDbSpline
70
4
71
3
72
8
73
4
74
0
42
0.000000001
43
0.0000000001
44
0.0000000001
40
0
40
0
40
0
40
0
40
1
40
1
40
1
40
1
41
1
41
1
41
1
41
1
10
0.17651375788456769
20
-0.0036352167224752629
30
0
10
0.18345928699095312
20
0.0040414207108980874
30
0
10
0.19223258691480841
20
0.0093419560815606196
30
0
10
0.19497424314101316
20
0.007696962345837788
30
0
0
SPLINE
5
170
100
AcDbEntity
8
0
100
AcDbSpline
70
4
71
3
72
8
73
4
74
0
42
0.000000001
43
0.0000000001
44
0.0000000001
40
0
40
0
40
0
40
0
40
1
40
1
40
1
40
1
41
1
41
1
41
1
41
1
10
0.19497424314101316
20
0.007696962345837788
30
0
10
0.20283365765613337
20
0.0027619811386691592
30
0
10
0.18382484115444703
20
-0.046587830933016543
30
0
10
0.14105500402565285
20
-0.13212750519060501
30
0
0
SPLINE
5
171
100
AcDbEntity
8
0
100
AcDbSpline
70
4
71
3
72
8
73
4
74
0
42
0.000000001
43
0.0000000001
44
0.0000000001
40
0
40
0
40
0
40
0
40
1
40
1
40
1
40
1
41
1
41
1
41
1
41
1
10
0.14105500402565285
20
-0.13212750519060501
30
0
10
0.13045393328432778
20
-0.15351242375500215
30
0
10
0.1220461875239664
20
-0.17215568609319454
30
0
10
0.12259451876920739
20
-0.17343512566542346
30
0
0
SPLINE
5
172
100
AcDbEntity
8
0
100
AcDbSpline
70
4
71
3
72
8
73
4
74
0
42
0.000000001
43
0.0000000001
44
0.0000000001
40
0
40
0
40
0
40
0
40
1
40
1
40
1
40
1
41
1
41
1
41
1
41
1
10
0.12259451876920739
20
-0.17343512566542346
30
0
10
0.12369118125968936
20
-0.17635955897337519
30
0
10
0.13191614993830367
20
-0.17654233605512218
30
0
10
0.13758223947246009
20
-0.17398345691066436
30
0
0
SPLINE
5
173
100
AcDbEntity
8
0
100
AcDbSpline
70
4
71
3
72
8
73
4
74
0
42
0.000000001
43
0.0000000001
44
0.0000000001
40
0
40
0
40
0
40
0
40
1
40
1
40
1
40
1
41
1
41
1
41
1
41
1
10
0.20045755559342268
20
-0.059930557900546327
30
0
10
0.20045755559342268
20
-0.055543907938618749
30
0
10
0.23061577408167502
20
-0.014236287463800287
30
0
10
0.24395850104920483
20
-0.00016245216928255794
30
0
0
SPLINE
5
174
100
AcDbEntity
8
0
100
AcDbSpline
70
4
71
3
72
8
73
4
74
0
42
0.000000001
43
0.0000000001
44
0.0000000001
40
0
40
0
40
0
40
0
40
1
40
1
40
1
40
1
41
1
41
1
41
1
41
1
10
0.24395850104920483
20
-0.00016245216928255794
30
0
10
0.25583901136275877
20
0.012266389389512381
30
0
10
0.25986010716119246
20
0.013545828961741222
30
0
10
0.25839789050721657
20
0.0040414207108980874
30
0
0
SPLINE
5
175
100
AcDbEntity
8
0
100
AcDbSpline
70
4
71
3
72
8
73
4
74
0
42
0.000000001
43
0.0000000001
44
0.0000000001
40
0
40
0
40
0
40
0
40
1
40
1
40
1
40
1
41
1
41
1
41
1
41
1
10
0.25839789050721657
20
0.0040414207108980874
30
0
10
0.25638734260799978
20
-0.0083874208478968513
30
0
10
0.24615182603016861
20
-0.026116797777354282
30
0
10
0.23354020738962677
20
-0.038911193499643143
30
0
0
SPLINE
5
176
100
AcDbEntity
8
0
100
AcDbSpline
70
4
71
3
72
8
73
4
74
0
42
0.000000001
43
0.0000000001
44
0.0000000001
40
0
40
0
40
0
40
0
40
1
40
1
40
1
40
1
41
1
41
1
41
1
41
1
10
0.23354020738962677
20
-0.038911193499643143
30
0
10
0.22129414291257873
20
-0.051522812140185059
30
0
10
0.20045755559342268
20
-0.064682762025967955
30
0
10
0.20045755559342268
20
-0.059930557900546327
30
0
0
SPLINE
5
177
100
AcDbEntity
8
0
100
AcDbSpline
70
4
71
3
72
8
73
4
74
0
42
0.000000001
43
0.0000000001
44
0.0000000001
40
0
40
0
40
0
40
0
40
1
40
1
40
1
40
1
41
1
41
1
41
1
41
1
10
0.30829603382414317
20
-0.050608926731450142
30
0
10
0.30829603382414317
20
-0.049146710077474287
30
0
10
0.32584263367185362
20
-0.02319236446940252
30
0
10
0.33552981900444373
20
-0.010580745828860628
30
0
0
SPLINE
5
178
100
AcDbEntity
8
0
100
AcDbSpline
70
4
71
3
72
8
73
4
74
0
42
0.000000001
43
0.0000000001
44
0.0000000001
40
0
40
0
40
0
40
0
40
1
40
1
40
1
40
1
41
1
41
1
41
1
41
1
10
0.33552981900444373
20
-0.010580745828860628
30
0
10
0.34704477515450377
20
0.0045897519561390312
30
0
10
0.36130138753076851
20
0.019577472659391738
30
0
10
0.36422582083872029
20
0.019577472659391738
30
0
0
SPLINE
5
179
100
AcDbEntity
8
0
100
AcDbSpline
70
4
71
3
72
8
73
4
74
0
42
0.000000001
43
0.0000000001
44
0.0000000001
40
0
40
0
40
0
40
0
40
1
40
1
40
1
40
1
41
1
41
1
41
1
41
1
10
0.36422582083872029
20
0.019577472659391738
30
0
10
0.37336467492606945
20
0.019577472659391738
30
0
10
0.35874250838631072
20
-0.012225739564583504
30
0
10
0.3415614627020942
20
-0.029772339412293937
30
0
0
SPLINE
5
180
100
AcDbEntity
8
0
100
AcDbSpline
70
4
71
3
72
8
73
4
74
0
42
0.000000001
43
0.0000000001
44
0.0000000001
40
0
40
0
40
0
40
0
40
1
40
1
40
1
40
1
41
1
41
1
41
1
41
1
10
0.3415614627020942
20
-0.029772339412293937
30
0
10
0.32894984406155231
20
-0.042383958052835853
30
0
10
0.30829603382414317
20
-0.055543907938618728
30
0
10
0.30829603382414317
20
-0.050608926731450142
30
0
0
SPLINE
5
181
100
AcDbEntity
8
0
100
AcDbSpline
70
4
71
3
72
8
73
4
74
0
42
0.000000001
43
0.0000000001
44
0.0000000001
40
0
40
0
40
0
40
0
40
1
40
1
40
1
40
1
41
1
41
1
41
1
41
1
10
0.436422768128779
20
-0.14601856340337582
30
0
10
0.4437338513986584
20
-0.14345968425891803
30
0
10
0.45268992840426059
20
-0.1376108176430145
30
0
10
0.46018378875588689
20
-0.13084806561837611
30
0
0
SPLINE
5
182
100
AcDbEntity
8
0
100
AcDbSpline
70
4
71
3
72
8
73
4
74
0
42
0.000000001
43
0.0000000001
44
0.0000000001
40
0
40
0
40
0
40
0
40
1
40
1
40
1
40
1
41
1
41
1
41
1
41
1
10
0.46018378875588689
20
-0.13084806561837611
30
0
10
0.46913986576148908
20
-0.12262309693976184
30
0
10
0.52726297775703002
20
-0.11092536370795483
30
0
10
0.551389552547632
20
-0.11238758036193074
30
0
0
SPLINE
5
183
100
AcDbEntity
8
0
100
AcDbSpline
70
4
71
3
72
8
73
4
74
0
42
0.000000001
43
0.0000000001
44
0.0000000001
40
0
40
0
40
0
40
0
40
1
40
1
40
1
40
1
41
1
41
1
41
1
41
1
10
0.551389552547632
20
-0.11238758036193074
30
0
10
0.56144229204371598
20
-0.11293591160717166
30
0
10
0.56199062328895699
20
-0.11348424285241263
30
0
10
0.55943174414449925
20
-0.12006421779530405
30
0
0
SPLINE
5
184
100
AcDbEntity
8
0
100
AcDbSpline
70
4
71
3
72
8
73
4
74
0
42
0.000000001
43
0.0000000001
44
0.0000000001
40
0
40
0
40
0
40
0
40
1
40
1
40
1
40
1
41
1
41
1
41
1
41
1
10
0.55943174414449925
20
-0.12006421779530405
30
0
10
0.55815230457227039
20
-0.1231714281850028
30
0
10
0.55870063581751128
20
-0.12335420526674977
30
0
10
0.56400117118817394
20
-0.12244031985801486
30
0
0
SPLINE
5
185
100
AcDbEntity
8
0
100
AcDbSpline
70
4
71
3
72
8
73
4
74
0
42
0.000000001
43
0.0000000001
44
0.0000000001
40
0
40
0
40
0
40
0
40
1
40
1
40
1
40
1
41
1
41
1
41
1
41
1
10
0.56400117118817394
20
-0.12244031985801486
30
0
10
0.58173054811763125
20
-0.11878477822307516
30
0
10
0.58867607722401671
20
-0.1008726242118707
30
0
10
0.57569890441998073
20
-0.092464878451509441
30
0
0
SPLINE
5
186
100
AcDbEntity
8
0
100
AcDbSpline
70
4
71
3
72
8
73
4
74
0
42
0.000000001
43
0.0000000001
44
0.0000000001
40
0
40
0
40
0
40
0
40
1
40
1
40
1
40
1
41
1
41
1
41
1
41
1
10
0.57569890441998073
20
-0.092464878451509441
30
0
10
0.57167780862154716
20
-0.089723222225304697
30
0
10
0.56692560449612561
20
-0.089174890980063731
30
0
10
0.55047566713889706
20
-0.089357668061810752
30
0
0
SPLINE
5
187
100
AcDbEntity
8
0
100
AcDbSpline
70
4
71
3
72
8
73
4
74
0
42
0.000000001
43
0.0000000001
44
0.0000000001
40
0
40
0
40
0
40
0
40
1
40
1
40
1
40
1
41
1
41
1
41
1
41
1
10
0.55047566713889706
20
-0.089357668061810752
30
0
10
0.53073574231022269
20
-0.089540445143557731
30
0
10
0.51465135911648807
20
-0.092464878451509469
30
0
10
0.49326644055209101
20
-0.099958738803135799
30
0
0
SPLINE
5
188
100
AcDbEntity
8
0
100
AcDbSpline
70
4
71
3
72
8
73
4
74
0
42
0.000000001
43
0.0000000001
44
0.0000000001
40
0
40
0
40
0
40
0
40
1
40
1
40
1
40
1
41
1
41
1
41
1
41
1
10
0.49326644055209101
20
-0.099958738803135799
30
0
10
0.48467591770998281
20
-0.10306594919283456
30
0
10
0.4841275864647418
20
-0.10270039502934056
30
0
10
0.48906256767191036
20
-0.095937643004702172
30
0
0
SPLINE
5
189
100
AcDbEntity
8
0
100
AcDbSpline
70
4
71
3
72
8
73
4
74
0
42
0.000000001
43
0.0000000001
44
0.0000000001
40
0
40
0
40
0
40
0
40
1
40
1
40
1
40
1
41
1
41
1
41
1
41
1
10
0.48906256767191036
20
-0.095937643004702172
30
0
10
0.49089033848938024
20
-0.093195986778497414
30
0
10
0.50167418631245231
20
-0.073821616113317126
30
0
10
0.51282358829901831
20
-0.052985028794160921
30
0
0
SPLINE
5
190
100
AcDbEntity
8
0
100
AcDbSpline
70
4
71
3
72
8
73
4
74
0
42
0.000000001
43
0.0000000001
44
0.0000000001
40
0
40
0
40
0
40
0
40
1
40
1
40
1
40
1
41
1
41
1
41
1
41
1
10
0.51282358829901831
20
-0.052985028794160921
30
0
10
0.54444402344124654
20
0.0060519686101149555
30
0
10
0.55687286500004152
20
0.025243562193548265
30
0
10
0.55687286500004152
20
0.015190822697464142
30
0
0
SPLINE
5
191
100
AcDbEntity
8
0
100
AcDbSpline
70
4
71
3
72
8
73
4
74
0
42
0.000000001
43
0.0000000001
44
0.0000000001
40
0
40
0
40
0
40
0
40
1
40
1
40
1
40
1
41
1
41
1
41
1
41
1
10
0.55687286500004152
20
0.015190822697464142
30
0
10
0.55687286500004152
20
0.010255841490295601
30
0
10
0.56034562955323419
20
0.011900835226018433
30
0
10
0.56619449616913764
20
0.019943026822885731
30
0
0
SPLINE
5
192
100
AcDbEntity
8
0
100
AcDbSpline
70
4
71
3
72
8
73
4
74
0
42
0.000000001
43
0.0000000001
44
0.0000000001
40
0
40
0
40
0
40
0
40
1
40
1
40
1
40
1
41
1
41
1
41
1
41
1
10
0.56619449616913764
20
0.019943026822885731
30
0
10
0.57917166897317351
20
0.037855180834090202
30
0
10
0.58227887936287226
20
0.050832353638126042
30
0
10
0.57515057317473983
20
0.0579606598262584
30
0
0
SPLINE
5
193
100
AcDbEntity
8
0
100
AcDbSpline
70
4
71
3
72
8
73
4
74
0
42
0.000000001
43
0.0000000001
44
0.0000000001
40
0
40
0
40
0
40
0
40
1
40
1
40
1
40
1
41
1
41
1
41
1
41
1
10
0.57515057317473983
20
0.0579606598262584
30
0
10
0.56674282741437854
20
0.066368405586619689
30
0
10
0.55266899211986087
20
0.060519538970716172
30
0
10
0.54024015056106589
20
0.043521270368246684
30
0
0
SPLINE
5
194
100
AcDbEntity
8
0
100
AcDbSpline
70
4
71
3
72
8
73
4
74
0
42
0.000000001
43
0.0000000001
44
0.0000000001
40
0
40
0
40
0
40
0
40
1
40
1
40
1
40
1
41
1
41
1
41
1
41
1
10
0.54024015056106589
20
0.043521270368246684
30
0
10
0.53530516935389738
20
0.036941295425355264
30
0
10
0.52196244238636746
20
0.012997497716500364
30
0
10
0.51026470915456057
20
-0.0096668604201256489
30
0
0
SPLINE
5
195
100
AcDbEntity
8
0
100
AcDbSpline
70
4
71
3
72
8
73
4
74
0
42
0.000000001
43
0.0000000001
44
0.0000000001
40
0
40
0
40
0
40
0
40
1
40
1
40
1
40
1
41
1
41
1
41
1
41
1
10
0.51026470915456057
20
-0.0096668604201256489
30
0
10
0.49874975300450053
20
-0.032331218556751709
30
0
10
0.48175148440203103
20
-0.064317207862473927
30
0
10
0.47242985323293485
20
-0.080767145219702463
30
0
0
LINE
5
196
100
AcDbEntity
8
0
100
AcDbLine
10
0.47242985323293485
20
-0.080767145219702463
30
0
11
0.45543158463046535
21
-0.11055980954446089
31
0
0
LINE
5
197
100
AcDbEntity
8
0
100
AcDbLine
10
0.45543158463046535
20
-0.11055980954446089
30
0
11
0.43825053894624888
21
-0.11677423032385836
31
0
0
SPLINE
5
198
100
AcDbEntity
8
0
100
AcDbSpline
70
4
71
3
72
8
73
4
74
0
42
0.000000001
43
0.0000000001
44
0.0000000001
40
0
40
0
40
0
40
0
40
1
40
1
40
1
40
1
41
1
41
1
41
1
41
1
10
0.43825053894624888
20
-0.11677423032385836
30
0
10
0.41266174750167101
20
-0.12591308441120758
30
0
10
0.40443677882305679
20
-0.13614860098903867
30
0
10
0.41540340372787588
20
-0.14473912383114687
30
0
0
SPLINE
5
199
100
AcDbEntity
8
0
100
AcDbSpline
70
4
71
3
72
8
73
4
74
0
42
0.000000001
43
0.0000000001
44
0.0000000001
40
0
40
0
40
0
40
0
40
1
40
1
40
1
40
1
41
1
41
1
41
1
41
1
10
0.41540340372787588
20
-0.14473912383114687
30
0
10
0.42088671618028539
20
-0.14912577379307451
30
0
10
0.4269183598779358
20
-0.14949132795656847
30
0
10
0.436422768128779
20
-0.14601856340337582
30
0
0
SPLINE
5
200
100
AcDbEntity
8
0
100
AcDbSpline
70
4
71
3
72
8
73
4
74
0
42
0.000000001
43
0.0000000001
44
0.0000000001
40
0
40
0
40
0
40
0
40
1
40
1
40
1
40
1
41
1
41
1
41
1
41
1
10
-0.15412998299572633
20
-0.044942837197293709
30
0
10
-0.14846389346156988
20
-0.04274951221632993
30
0
10
-0.13768004563849773
20
-0.035072874782956558
30
0
10
-0.13768004563849773
20
-0.033427881047233682
30
0
0
SPLINE
5
201
100
AcDbEntity
8
0
100
AcDbSpline
70
4
71
3
72
8
73
4
74
0
42
0.000000001
43
0.0000000001
44
0.0000000001
40
0
40
0
40
0
40
0
40
1
40
1
40
1
40
1
41
1
41
1
41
1
41
1
10
-0.13768004563849773
20
-0.033427881047233682
30
0
10
-0.13768004563849773
20
-0.032331218556751792
30
0
10
-0.1404217018647026
20
-0.031782887311510848
30
0
10
-0.14371168933614833
20
-0.031965664393257848
30
0
0
SPLINE
5
202
100
AcDbEntity
8
0
100
AcDbSpline
70
4
71
3
72
8
73
4
74
0
42
0.000000001
43
0.0000000001
44
0.0000000001
40
0
40
0
40
0
40
0
40
1
40
1
40
1
40
1
41
1
41
1
41
1
41
1
10
-0.14371168933614833
20
-0.031965664393257848
30
0
10
-0.14901222470681097
20
-0.032513995638498744
30
0
10
-0.1495605559520517
20
-0.031965664393257848
30
0
10
-0.15010888719729276
20
-0.026847906104342265
30
0
0
SPLINE
5
203
100
AcDbEntity
8
0
100
AcDbSpline
70
4
71
3
72
8
73
4
74
0
42
0.000000001
43
0.0000000001
44
0.0000000001
40
0
40
0
40
0
40
0
40
1
40
1
40
1
40
1
41
1
41
1
41
1
41
1
10
-0.15010888719729276
20
-0.026847906104342265
30
0
10
-0.15120554968777475
20
-0.014967395790788313
30
0
10
-0.11958511454554645
20
0.038586289161078008
30
0
10
-0.088330233566812064
20
0.077700584654932611
30
0
0
SPLINE
5
204
100
AcDbEntity
8
0
100
AcDbSpline
70
4
71
3
72
8
73
4
74
0
42
0.000000001
43
0.0000000001
44
0.0000000001
40
0
40
0
40
0
40
0
40
1
40
1
40
1
40
1
41
1
41
1
41
1
41
1
10
-0.088330233566812064
20
0.077700584654932611
30
0
10
-0.069138639983378797
20
0.1018271594455345
30
0
10
-0.044829288111030076
20
0.12741595089011229
30
0
10
-0.041356523557837331
20
0.12741595089011229
30
0
0
SPLINE
5
205
100
AcDbEntity
8
0
100
AcDbSpline
70
4
71
3
72
8
73
4
74
0
42
0.000000001
43
0.0000000001
44
0.0000000001
40
0
40
0
40
0
40
0
40
1
40
1
40
1
40
1
41
1
41
1
41
1
41
1
10
-0.041356523557837331
20
0.12741595089011229
30
0
10
-0.030572675734765267
20
0.12741595089011229
30
0
10
-0.061462002550005487
20
0.051197907801619945
30
0
10
-0.088878564812053043
20
0.0097075102450545243
30
0
0
SPLINE
5
206
100
AcDbEntity
8
0
100
AcDbSpline
70
4
71
3
72
8
73
4
74
0
42
0.000000001
43
0.0000000001
44
0.0000000001
40
0
40
0
40
0
40
0
40
1
40
1
40
1
40
1
41
1
41
1
41
1
41
1
10
-0.088878564812053043
20
0.0097075102450545243
30
0
10
-0.095458539754944546
20
-0.00034522925102959762
30
0
10
-0.1003935209621131
20
-0.0094840833383787841
30
0
10
-0.099845189716872104
20
-0.010946299992354665
30
0
0
SPLINE
5
207
100
AcDbEntity
8
0
100
AcDbSpline
70
4
71
3
72
8
73
4
74
0
42
0.000000001
43
0.0000000001
44
0.0000000001
40
0
40
0
40
0
40
0
40
1
40
1
40
1
40
1
41
1
41
1
41
1
41
1
10
-0.099845189716872104
20
-0.010946299992354665
30
0
10
-0.098565750144643222
20
-0.01423628746380033
30
0
10
-0.091437443956510905
20
-0.015881281199523208
30
0
10
-0.08229858986916172
20
-0.014601841627294365
30
0
0
SPLINE
5
208
100
AcDbEntity
8
0
100
AcDbSpline
70
4
71
3
72
8
73
4
74
0
42
0.000000001
43
0.0000000001
44
0.0000000001
40
0
40
0
40
0
40
0
40
1
40
1
40
1
40
1
41
1
41
1
41
1
41
1
10
-0.08229858986916172
20
-0.014601841627294365
30
0
10
-0.073525289945306438
20
-0.013505179136812389
30
0
10
-0.074804729517535321
20
-0.014967395790788313
30
0
10
-0.034410994451451835
20
0.035844632934873243
30
0
0
SPLINE
5
209
100
AcDbEntity
8
0
100
AcDbSpline
70
4
71
3
72
8
73
4
74
0
42
0.000000001
43
0.0000000001
44
0.0000000001
40
0
40
0
40
0
40
0
40
1
40
1
40
1
40
1
41
1
41
1
41
1
41
1
10
-0.034410994451451835
20
0.035844632934873243
30
0
10
0.013842155129751956
20
0.096161069911377933
30
0
10
0.049300908988666722
20
0.13655480497746147
30
0
10
0.054053113114088357
20
0.13655480497746147
30
0
0
SPLINE
5
210
100
AcDbEntity
8
0
100
AcDbSpline
70
4
71
3
72
8
73
4
74
0
42
0.000000001
43
0.0000000001
44
0.0000000001
40
0
40
0
40
0
40
0
40
1
40
1
40
1
40
1
41
1
41
1
41
1
41
1
10
0.054053113114088357
20
0.13655480497746147
30
0
10
0.057160323503787025
20
0.13655480497746147
30
0
10
0.056611992258546039
20
0.13381314875125669
30
0
10
0.050580348560895785
20
0.11882542804800404
30
0
0
SPLINE
5
211
100
AcDbEntity
8
0
100
AcDbSpline
70
4
71
3
72
8
73
4
74
0
42
0.000000001
43
0.0000000001
44
0.0000000001
40
0
40
0
40
0
40
0
40
1
40
1
40
1
40
1
41
1
41
1
41
1
41
1
10
0.050580348560895785
20
0.11882542804800404
30
0
10
0.043634819454510372
20
0.10164438236378746
30
0
10
0.029195429996498566
20
0.076421145082703729
30
0
10
-0.0005972343282597643
20
0.029630212155475819
30
0
0
SPLINE
5
212
100
AcDbEntity
8
0
100
AcDbSpline
70
4
71
3
72
8
73
4
74
0
42
0.000000001
43
0.0000000001
44
0.0000000001
40
0
40
0
40
0
40
0
40
1
40
1
40
1
40
1
41
1
41
1
41
1
41
1
10
-0.0005972343282597643
20
0.029630212155475819
30
0
10
-0.024358254955367666
20
-0.0076563125209089559
30
0
10
-0.029841567407777197
20
-0.017160720771752135
30
0
10
-0.029841567407777197
20
-0.0204507082431978
30
0
0
SPLINE
5
213
100
AcDbEntity
8
0
100
AcDbSpline
70
4
71
3
72
8
73
4
74
0
42
0.000000001
43
0.0000000001
44
0.0000000001
40
0
40
0
40
0
40
0
40
1
40
1
40
1
40
1
41
1
41
1
41
1
41
1
10
-0.029841567407777197
20
-0.0204507082431978
30
0
10
-0.029841567407777197
20
-0.023375141551149559
30
0
10
-0.019606050829946209
20
-0.027944568594824151
30
0
10
-0.013026075887054704
20
-0.027944568594824151
30
0
0
SPLINE
5
214
100
AcDbEntity
8
0
100
AcDbSpline
70
4
71
3
72
8
73
4
74
0
42
0.000000001
43
0.0000000001
44
0.0000000001
40
0
40
0
40
0
40
0
40
1
40
1
40
1
40
1
41
1
41
1
41
1
41
1
10
-0.013026075887054704
20
-0.027944568594824151
30
0
10
-0.0084566488433800661
20
-0.027944568594824151
30
0
10
-0.0016938968187417401
20
-0.0241062498781375
30
0
10
0.015852703028968823
20
-0.011494631237595608
30
0
0
SPLINE
5
215
100
AcDbEntity
8
0
100
AcDbSpline
70
4
71
3
72
8
73
4
74
0
42
0.000000001
43
0.0000000001
44
0.0000000001
40
0
40
0
40
0
40
0
40
1
40
1
40
1
40
1
41
1
41
1
41
1
41
1
10
0.015852703028968823
20
-0.011494631237595608
30
0
10
0.037420398675112862
20
0.0040414207108980431
30
0
10
0.043269265291016386
20
0.007514185264090748
30
0
10
0.040527609064811621
20
0.0031275353021631511
30
0
0
SPLINE
5
216
100
AcDbEntity
8
0
100
AcDbSpline
70
4
71
3
72
8
73
4
74
0
42
0.000000001
43
0.0000000001
44
0.0000000001
40
0
40
0
40
0
40
0
40
1
40
1
40
1
40
1
41
1
41
1
41
1
41
1
10
0.040527609064811621
20
0.0031275353021631511
30
0
10
0.037785952838606855
20
-0.0014418917415114859
30
0
10
0.045279813190233165
20
0.0018480957299342228
30
0
10
0.048569800661678916
20
0.006600299855355856
30
0
0
SPLINE
5
217
100
AcDbEntity
8
0
100
AcDbSpline
70
4
71
3
72
8
73
4
74
0
42
0.000000001
43
0.0000000001
44
0.0000000001
40
0
40
0
40
0
40
0
40
1
40
1
40
1
40
1
41
1
41
1
41
1
41
1
10
0.048569800661678916
20
0.006600299855355856
30
0
10
0.053322004787100551
20
0.013363051879994226
30
0
10
0.053322004787100551
20
0.016104708106198989
30
0
10
0.048569800661678916
20
0.022136351803849465
30
0
0
SPLINE
5
218
100
AcDbEntity
8
0
100
AcDbSpline
70
4
71
3
72
8
73
4
74
0
42
0.000000001
43
0.0000000001
44
0.0000000001
40
0
40
0
40
0
40
0
40
1
40
1
40
1
40
1
41
1
41
1
41
1
41
1
10
0.048569800661678916
20
0.022136351803849465
30
0
10
0.043452042372763289
20
0.028716326746740881
30
0
10
0.03504429661240209
20
0.02853354966499393
30
0
10
0.025357111279811915
20
0.02158802055860852
30
0
0
SPLINE
5
219
100
AcDbEntity
8
0
100
AcDbSpline
70
4
71
3
72
8
73
4
74
0
42
0.000000001
43
0.0000000001
44
0.0000000001
40
0
40
0
40
0
40
0
40
1
40
1
40
1
40
1
41
1
41
1
41
1
41
1
10
0.025357111279811915
20
0.02158802055860852
30
0
10
0.021336015481378354
20
0.018663587250656758
30
0
10
0.017497696764691612
20
0.01537359977921105
30
0
10
0.016766588437703716
20
0.014276937288729162
30
0
0
SPLINE
5
220
100
AcDbEntity
8
0
100
AcDbSpline
70
4
71
3
72
8
73
4
74
0
42
0.000000001
43
0.0000000001
44
0.0000000001
40
0
40
0
40
0
40
0
40
1
40
1
40
1
40
1
41
1
41
1
41
1
41
1
10
0.016766588437703716
20
0.014276937288729162
30
0
10
0.01621825719246273
20
0.013180274798247229
30
0
10
0.014938817620233844
20
0.012266389389512338
30
0
10
0.014024932211498951
20
0.012266389389512338
30
0
0
SPLINE
5
221
100
AcDbEntity
8
0
100
AcDbSpline
70
4
71
3
72
8
73
4
74
0
42
0.000000001
43
0.0000000001
44
0.0000000001
40
0
40
0
40
0
40
0
40
1
40
1
40
1
40
1
41
1
41
1
41
1
41
1
10
0.014024932211498951
20
0.012266389389512338
30
0
10
0.01311104680276406
20
0.012266389389512338
30
0
10
0.016401034274209636
20
0.017749701841921865
30
0
10
0.02151879256312526
20
0.024512453866560237
30
0
0
SPLINE
5
222
100
AcDbEntity
8
0
100
AcDbSpline
70
4
71
3
72
8
73
4
74
0
42
0.000000001
43
0.0000000001
44
0.0000000001
40
0
40
0
40
0
40
0
40
1
40
1
40
1
40
1
41
1
41
1
41
1
41
1
10
0.02151879256312526
20
0.024512453866560237
30
0
10
0.057891431830775102
20
0.072948380529511025
30
0
10
0.081652452457882996
20
0.12083597594722077
30
0
10
0.081652452457882913
20
0.14569365906481066
30
0
0
SPLINE
5
223
100
AcDbEntity
8
0
100
AcDbSpline
70
4
71
3
72
8
73
4
74
0
42
0.000000001
43
0.0000000001
44
0.0000000001
40
0
40
0
40
0
40
0
40
1
40
1
40
1
40
1
41
1
41
1
41
1
41
1
10
0.081652452457882913
20
0.14569365906481066
30
0
10
0.081652452457882913
20
0.153553073579931
30
0
10
0.080921344130894926
20
0.15592917564264178
30
0
10
0.076351917087220375
20
0.16031582560456942
30
0
0
SPLINE
5
224
100
AcDbEntity
8
0
100
AcDbSpline
70
4
71
3
72
8
73
4
74
0
42
0.000000001
43
0.0000000001
44
0.0000000001
40
0
40
0
40
0
40
0
40
1
40
1
40
1
40
1
41
1
41
1
41
1
41
1
10
0.076351917087220375
20
0.16031582560456942
30
0
10
0.068309725490353079
20
0.16854079428318369
30
0
10
0.062643635956196556
20
0.16908912552842462
30
0
10
0.050763125642642605
20
0.16287470474902718
30
0
0
SPLINE
5
225
100
AcDbEntity
8
0
100
AcDbSpline
70
4
71
3
72
8
73
4
74
0
42
0.000000001
43
0.0000000001
44
0.0000000001
40
0
40
0
40
0
40
0
40
1
40
1
40
1
40
1
41
1
41
1
41
1
41
1
10
0.050763125642642605
20
0.16287470474902718
30
0
10
0.037785952838606765
20
0.15629472980613576
30
0
10
0.0052516322876435817
20
0.12394318633691957
30
0
10
-0.013208852968801699
20
0.099451057382823685
30
0
0
SPLINE
5
226
100
AcDbEntity
8
0
100
AcDbSpline
70
4
71
3
72
8
73
4
74
0
42
0.000000001
43
0.0000000001
44
0.0000000001
40
0
40
0
40
0
40
0
40
1
40
1
40
1
40
1
41
1
41
1
41
1
41
1
10
-0.013208852968801699
20
0.099451057382823685
30
0
10
-0.020702713320428008
20
0.08976387205023352
30
0
10
-0.026917134099825522
20
0.081721680453366266
30
0
10
-0.027099911181572432
20
0.081721680453366266
30
0
0
SPLINE
5
227
100
AcDbEntity
8
0
100
AcDbSpline
70
4
71
3
72
8
73
4
74
0
42
0.000000001
43
0.0000000001
44
0.0000000001
40
0
40
0
40
0
40
0
40
1
40
1
40
1
40
1
41
1
41
1
41
1
41
1
10
-0.027099911181572432
20
0.081721680453366266
30
0
10
-0.027282688263319515
20
0.081721680453366266
30
0
10
-0.024723809118861746
20
0.088484432478004624
30
0
10
-0.021433821647415995
20
0.096709401156618927
30
0
0
SPLINE
5
228
100
AcDbEntity
8
0
100
AcDbSpline
70
4
71
3
72
8
73
4
74
0
42
0.000000001
43
0.0000000001
44
0.0000000001
40
0
40
0
40
0
40
0
40
1
40
1
40
1
40
1
41
1
41
1
41
1
41
1
10
-0.021433821647415995
20
0.096709401156618927
30
0
10
-0.010101642579103117
20
0.12522262590914846
30
0
10
-0.0075427634346452617
20
0.14057590077589507
30
0
10
-0.012294967560066894
20
0.15209085692595511
30
0
0
SPLINE
5
229
100
AcDbEntity
8
0
100
AcDbSpline
70
4
71
3
72
8
73
4
74
0
42
0.000000001
43
0.0000000001
44
0.0000000001
40
0
40
0
40
0
40
0
40
1
40
1
40
1
40
1
41
1
41
1
41
1
41
1
10
-0.012294967560066894
20
0.15209085692595511
30
0
10
-0.015402177949765564
20
0.15921916311408751
30
0
10
-0.020702713320428098
20
0.16141248809505129
30
0
10
-0.031121006980006256
20
0.15976749435932841
30
0
0
SPLINE
5
230
100
AcDbEntity
8
0
100
AcDbSpline
70
4
71
3
72
8
73
4
74
0
42
0.000000001
43
0.0000000001
44
0.0000000001
40
0
40
0
40
0
40
0
40
1
40
1
40
1
40
1
41
1
41
1
41
1
41
1
10
-0.031121006980006256
20
0.15976749435932841
30
0
10
-0.066031429593680122
20
0.1541014048251719
30
0
10
-0.16345161416482251
20
0.032737422545174533
30
0
10
-0.17697711821409934
20
-0.021730147815426728
30
0
0
SPLINE
5
231
100
AcDbEntity
8
0
100
AcDbSpline
70
4
71
3
72
8
73
4
74
0
42
0.000000001
43
0.0000000001
44
0.0000000001
40
0
40
0
40
0
40
0
40
1
40
1
40
1
40
1
41
1
41
1
41
1
41
1
10
-0.17697711821409934
20
-0.021730147815426728
30
0
10
-0.18008432860379817
20
-0.03415898937422162
30
0
10
-0.17880488903156913
20
-0.040921741398860081
30
0
10
-0.17259046825217178
20
-0.044211728870305764
30
0
0
SPLINE
5
232
100
AcDbEntity
8
0
100
AcDbSpline
70
4
71
3
72
8
73
4
74
0
42
0.000000001
43
0.0000000001
44
0.0000000001
40
0
40
0
40
0
40
0
40
1
40
1
40
1
40
1
41
1
41
1
41
1
41
1
10
-0.17259046825217178
20
-0.044211728870305764
30
0
10
-0.16875214953548512
20
-0.046405053851269612
30
0
10
-0.15869941003940097
20
-0.046587830933016584
30
0
10
-0.15412998299572633
20
-0.044942837197293709
30
0
0
SPLINE
5
233
100
AcDbEntity
8
0
100
AcDbSpline
70
4
71
3
72
8
73
4
74
0
42
0.000000001
43
0.0000000001
44
0.0000000001
40
0
40
0
40
0
40
0
40
1
40
1
40
1
40
1
41
1
41
1
41
1
41
1
10
-0.59900939996788571
20
0.0067830769371027208
30
0
10
-0.59389164167896991
20
0.0097075102450544376
30
0
10
-0.58493556467336771
20
0.017201370596680834
30
0
10
-0.57926947513921112
20
0.023598568457825257
30
0
0
LINE
5
234
100
AcDbEntity
8
0
100
AcDbLine
10
-0.57926947513921112
20
0.023598568457825254
30
0
11
-0.56885118147963321
21
0.03511352460788527
31
0
0
LINE
5
235
100
AcDbEntity
8
0
100
AcDbLine
10
-0.56885118147963321
20
0.03511352460788527
30
0
11
-0.57451727101378947
21
0.022684683049090371
31
0
0
SPLINE
5
236
100
AcDbEntity
8
0
100
AcDbSpline
70
4
71
3
72
8
73
4
74
0
42
0.000000001
43
0.0000000001
44
0.0000000001
40
0
40
0
40
0
40
0
40
1
40
1
40
1
40
1
41
1
41
1
41
1
41
1
10
-0.57451727101378958
20
0.022684683049090364
30
0
10
-0.58109724595668111
20
0.0089764019180665414
30
0
10
-0.58073169179318729
20
0.004955306119632936
30
0
10
-0.57323783144156093
20
0.004955306119632936
30
0
0
SPLINE
5
237
100
AcDbEntity
8
0
100
AcDbSpline
70
4
71
3
72
8
73
4
74
0
42
0.000000001
43
0.0000000001
44
0.0000000001
40
0
40
0
40
0
40
0
40
1
40
1
40
1
40
1
41
1
41
1
41
1
41
1
10
-0.57323783144156093
20
0.004955306119632936
30
0
10
-0.56208842945499471
20
0.004955306119632936
30
0
10
-0.55788455657481428
20
0.010073064408548429
30
0
10
-0.54271405878981438
20
0.041693499550776718
30
0
0
SPLINE
5
238
100
AcDbEntity
8
0
100
AcDbSpline
70
4
71
3
72
8
73
4
74
0
42
0.000000001
43
0.0000000001
44
0.0000000001
40
0
40
0
40
0
40
0
40
1
40
1
40
1
40
1
41
1
41
1
41
1
41
1
10
-0.54271405878981438
20
0.041693499550776718
30
0
10
-0.52882300057704357
20
0.070755055548547163
30
0
10
-0.52790911516830874
20
0.072034495120776046
30
0
10
-0.5147491652825259
20
0.083549451270836045
30
0
0
SPLINE
5
239
100
AcDbEntity
8
0
100
AcDbSpline
70
4
71
3
72
8
73
4
74
0
42
0.000000001
43
0.0000000001
44
0.0000000001
40
0
40
0
40
0
40
0
40
1
40
1
40
1
40
1
41
1
41
1
41
1
41
1
10
-0.5147491652825259
20
0.083549451270836045
30
0
10
-0.49756811959830943
20
0.098719949055835754
30
0
10
-0.48532205512126153
20
0.10548270108047411
30
0
10
-0.47472098437993643
20
0.10548270108047411
30
0
0
SPLINE
5
240
100
AcDbEntity
8
0
100
AcDbSpline
70
4
71
3
72
8
73
4
74
0
42
0.000000001
43
0.0000000001
44
0.0000000001
40
0
40
0
40
0
40
0
40
1
40
1
40
1
40
1
41
1
41
1
41
1
41
1
10
-0.47472098437993643
20
0.10548270108047411
30
0
10
-0.46485102196559919
20
0.10548270108047411
30
0
10
-0.45808826994096097
20
0.10018216570981159
30
0
10
-0.46119548033065944
20
0.094698853257402058
30
0
0
SPLINE
5
241
100
AcDbEntity
8
0
100
AcDbSpline
70
4
71
3
72
8
73
4
74
0
42
0.000000001
43
0.0000000001
44
0.0000000001
40
0
40
0
40
0
40
0
40
1
40
1
40
1
40
1
41
1
41
1
41
1
41
1
10
-0.46119548033065944
20
0.094698853257402058
30
0
10
-0.4639371365568643
20
0.089581094968486555
30
0
10
-0.47727986352439422
20
0.078431692981920459
30
0
10
-0.48824648842921325
20
0.072217272202523081
30
0
0
SPLINE
5
242
100
AcDbEntity
8
0
100
AcDbSpline
70
4
71
3
72
8
73
4
74
0
42
0.000000001
43
0.0000000001
44
0.0000000001
40
0
40
0
40
0
40
0
40
1
40
1
40
1
40
1
41
1
41
1
41
1
41
1
10
-0.48824648842921325
20
0.072217272202523081
30
0
10
-0.5003097758245143
20
0.065271743096137674
30
0
10
-0.50250310080547789
20
0.061616201461197971
30
0
10
-0.49811645084355033
20
0.055950111927041447
30
0
0
LINE
5
243
100
AcDbEntity
8
0
100
AcDbLine
10
-0.49811645084355044
20
0.055950111927041447
30
0
11
-0.49464368629035771
21
0.05192901612860782
31
0
0
LINE
5
244
100
AcDbEntity
8
0
100
AcDbLine
10
-0.49464368629035771
20
0.05192901612860782
30
0
11
-0.48349428430379165
21
0.055767334845294503
31
0
0
SPLINE
5
245
100
AcDbEntity
8
0
100
AcDbSpline
70
4
71
3
72
8
73
4
74
0
42
0.000000001
43
0.0000000001
44
0.0000000001
40
0
40
0
40
0
40
0
40
1
40
1
40
1
40
1
41
1
41
1
41
1
41
1
10
-0.48349428430379154
20
0.055767334845294496
30
0
10
-0.47727986352439422
20
0.057777882744511275
30
0
10
-0.4717965510719847
20
0.058874545234993206
30
0
10
-0.47143099690849072
20
0.058143436908005268
30
0
0
SPLINE
5
246
100
AcDbEntity
8
0
100
AcDbSpline
70
4
71
3
72
8
73
4
74
0
42
0.000000001
43
0.0000000001
44
0.0000000001
40
0
40
0
40
0
40
0
40
1
40
1
40
1
40
1
41
1
41
1
41
1
41
1
10
-0.47143099690849072
20
0.058143436908005268
30
0
10
-0.46978600317276781
20
0.055584557763547496
30
0
10
-0.47600042395216513
20
0.048639028657162041
30
0
10
-0.48733260302047837
20
0.040231282896800842
30
0
0
SPLINE
5
247
100
AcDbEntity
8
0
100
AcDbSpline
70
4
71
3
72
8
73
4
74
0
42
0.000000001
43
0.0000000001
44
0.0000000001
40
0
40
0
40
0
40
0
40
1
40
1
40
1
40
1
41
1
41
1
41
1
41
1
10
-0.48733260302047837
20
0.040231282896800842
30
0
10
-0.49811645084355033
20
0.032371868381680539
30
0
10
-0.49866478208879128
20
0.032189091299933546
30
0
10
-0.5003097758245143
20
0.035844632934873201
30
0
0
SPLINE
5
248
100
AcDbEntity
8
0
100
AcDbSpline
70
4
71
3
72
8
73
4
74
0
42
0.000000001
43
0.0000000001
44
0.0000000001
40
0
40
0
40
0
40
0
40
1
40
1
40
1
40
1
41
1
41
1
41
1
41
1
10
-0.5003097758245143
20
0.035844632934873201
30
0
10
-0.50433087162294765
20
0.044983487022222386
30
0
10
-0.52096358606192339
20
0.03675851834360809
30
0
10
-0.52535023602385089
20
0.023781345539572254
30
0
0
SPLINE
5
249
100
AcDbEntity
8
0
100
AcDbSpline
70
4
71
3
72
8
73
4
74
0
42
0.000000001
43
0.0000000001
44
0.0000000001
40
0
40
0
40
0
40
0
40
1
40
1
40
1
40
1
41
1
41
1
41
1
41
1
10
-0.52535023602385089
20
0.023781345539572254
30
0
10
-0.52736078392306773
20
0.017566924760174827
30
0
10
-0.52717800684132066
20
0.016835816433186886
30
0
10
-0.52315691104288731
20
0.013545828961741134
30
0
0
SPLINE
5
250
100
AcDbEntity
8
0
100
AcDbSpline
70
4
71
3
72
8
73
4
74
0
42
0.000000001
43
0.0000000001
44
0.0000000001
40
0
40
0
40
0
40
0
40
1
40
1
40
1
40
1
41
1
41
1
41
1
41
1
10
-0.52315691104288731
20
0.013545828961741134
30
0
10
-0.5196841464896943
20
0.010804172735536414
30
0
10
-0.5169424902634896
20
0.010255841490295469
30
0
10
-0.50981418407535717
20
0.011169726899030405
30
0
0
SPLINE
5
251
100
AcDbEntity
8
0
100
AcDbSpline
70
4
71
3
72
8
73
4
74
0
42
0.000000001
43
0.0000000001
44
0.0000000001
40
0
40
0
40
0
40
0
40
1
40
1
40
1
40
1
41
1
41
1
41
1
41
1
10
-0.50981418407535717
20
0.011169726899030405
30
0
10
-0.49117092173716503
20
0.013363051879994182
30
0
10
-0.4617438115759005
20
0.031640760054692602
30
0
10
-0.45461550538776796
20
0.045349041185716379
30
0
0
SPLINE
5
252
100
AcDbEntity
8
0
100
AcDbSpline
70
4
71
3
72
8
73
4
74
0
42
0.000000001
43
0.0000000001
44
0.0000000001
40
0
40
0
40
0
40
0
40
1
40
1
40
1
40
1
41
1
41
1
41
1
41
1
10
-0.45461550538776796
20
0.045349041185716379
30
0
10
-0.45095996375282837
20
0.05284290153734273
30
0
10
-0.45132551791632236
20
0.063992303523908792
30
0
10
-0.45571216787824992
20
0.069475615976318322
30
0
0
LINE
5
253
100
AcDbEntity
8
0
100
AcDbLine
10
-0.45571216787824992
20
0.069475615976318322
30
0
11
-0.45936770951318956
21
0.074227820101739839
31
0
0
LINE
5
254
100
AcDbEntity
8
0
100
AcDbLine
10
-0.45936770951318956
20
0.074227820101739839
30
0
11
-0.4553466137147561
21
0.076969476327944583
31
0
0
SPLINE
5
255
100
AcDbEntity
8
0
100
AcDbSpline
70
4
71
3
72
8
73
4
74
0
42
0.000000001
43
0.0000000001
44
0.0000000001
40
0
40
0
40
0
40
0
40
1
40
1
40
1
40
1
41
1
41
1
41
1
41
1
10
-0.4553466137147561
20
0.076969476327944583
30
0
10
-0.45297051165204522
20
0.078614470063667508
30
0
10
-0.44492832005517796
20
0.086108330415293768
30
0
10
-0.43725168262180447
20
0.093419413685173175
30
0
0
SPLINE
5
256
100
AcDbEntity
8
0
100
AcDbSpline
70
4
71
3
72
8
73
4
74
0
42
0.000000001
43
0.0000000001
44
0.0000000001
40
0
40
0
40
0
40
0
40
1
40
1
40
1
40
1
41
1
41
1
41
1
41
1
10
-0.43725168262180447
20
0.093419413685173175
30
0
10
-0.42336062440903399
20
0.10731047189794399
30
0
10
-0.4156839869756605
20
0.1113315676963776
30
0
10
-0.41111455993198587
20
0.10749324897969094
30
0
0
SPLINE
5
257
100
AcDbEntity
8
0
100
AcDbSpline
70
4
71
3
72
8
73
4
74
0
42
0.000000001
43
0.0000000001
44
0.0000000001
40
0
40
0
40
0
40
0
40
1
40
1
40
1
40
1
41
1
41
1
41
1
41
1
10
-0.41111455993198587
20
0.10749324897969094
30
0
10
-0.40691068705180539
20
0.10402048442649824
30
0
10
-0.41093178285023896
20
0.092322751194691327
30
0
10
-0.42665061188047959
20
0.061981755624691916
30
0
0
SPLINE
5
258
100
AcDbEntity
8
0
100
AcDbSpline
70
4
71
3
72
8
73
4
74
0
42
0.000000001
43
0.0000000001
44
0.0000000001
40
0
40
0
40
0
40
0
40
1
40
1
40
1
40
1
41
1
41
1
41
1
41
1
10
-0.42665061188047959
20
0.061981755624691916
30
0
10
-0.44163833258373236
20
0.033102976708668436
30
0
10
-0.44346610340120213
20
0.025974670520536074
30
0
10
-0.43780001386704553
20
0.020856912231620537
30
0
0
SPLINE
5
259
100
AcDbEntity
8
0
100
AcDbSpline
70
4
71
3
72
8
73
4
74
0
42
0.000000001
43
0.0000000001
44
0.0000000001
40
0
40
0
40
0
40
0
40
1
40
1
40
1
40
1
41
1
41
1
41
1
41
1
10
-0.43780001386704553
20
0.020856912231620537
30
0
10
-0.42920949102493733
20
0.012997497716500234
30
0
10
-0.41312510783120276
20
0.019577472659391651
30
0
10
-0.39503017673825147
20
0.038220734997584015
30
0
0
LINE
5
260
100
AcDbEntity
8
0
100
AcDbLine
10
-0.39503017673825147
20
0.038220734997584008
30
0
11
-0.3827841122612034
21
0.050832353638125931
31
0
0
LINE
5
261
100
AcDbEntity
8
0
100
AcDbLine
10
-0.3827841122612034
20
0.050832353638125931
30
0
11
-0.38826742471361286
21
0.038951843324571946
31
0
0
SPLINE
5
262
100
AcDbEntity
8
0
100
AcDbSpline
70
4
71
3
72
8
73
4
74
0
42
0.000000001
43
0.0000000001
44
0.0000000001
40
0
40
0
40
0
40
0
40
1
40
1
40
1
40
1
41
1
41
1
41
1
41
1
10
-0.38826742471361286
20
0.038951843324571959
30
0
10
-0.39503017673825147
20
0.024512453866560192
30
0
10
-0.39484739965650434
20
0.020308580986379592
30
0
10
-0.3871707622231309
20
0.021222466395114527
30
0
0
SPLINE
5
263
100
AcDbEntity
8
0
100
AcDbSpline
70
4
71
3
72
8
73
4
74
0
42
0.000000001
43
0.0000000001
44
0.0000000001
40
0
40
0
40
0
40
0
40
1
40
1
40
1
40
1
41
1
41
1
41
1
41
1
10
-0.3871707622231309
20
0.021222466395114527
30
0
10
-0.37565580607307109
20
0.022501905967343368
30
0
10
-0.37218304151987847
20
0.026157447602283071
30
0
10
-0.36231307910554117
20
0.046628480757945304
30
0
0
SPLINE
5
264
100
AcDbEntity
8
0
100
AcDbSpline
70
4
71
3
72
8
73
4
74
0
42
0.000000001
43
0.0000000001
44
0.0000000001
40
0
40
0
40
0
40
0
40
1
40
1
40
1
40
1
41
1
41
1
41
1
41
1
10
-0.36231307910554117
20
0.046628480757945304
30
0
10
-0.33690706474271043
20
0.09926828030107665
30
0
10
-0.32795098773710823
20
0.11827709680276301
30
0
10
-0.32685432524662622
20
0.12174986135595567
30
0
0
SPLINE
5
265
100
AcDbEntity
8
0
100
AcDbSpline
70
4
71
3
72
8
73
4
74
0
42
0.000000001
43
0.0000000001
44
0.0000000001
40
0
40
0
40
0
40
0
40
1
40
1
40
1
40
1
41
1
41
1
41
1
41
1
10
-0.32685432524662622
20
0.12174986135595567
30
0
10
-0.32594043983789134
20
0.12503984882740141
30
0
10
-0.32685432524662622
20
0.12613651131788334
30
0
10
-0.33215486061728866
20
0.12832983629884712
30
0
0
SPLINE
5
266
100
AcDbEntity
8
0
100
AcDbSpline
70
4
71
3
72
8
73
4
74
0
42
0.000000001
43
0.0000000001
44
0.0000000001
40
0
40
0
40
0
40
0
40
1
40
1
40
1
40
1
41
1
41
1
41
1
41
1
10
-0.33215486061728866
20
0.12832983629884712
30
0
10
-0.3356276251704815
20
0.12979205295282306
30
0
10
-0.33983149805066215
20
0.1305231612798109
30
0
10
-0.34147649178638506
20
0.12997483003456997
30
0
0
SPLINE
5
267
100
AcDbEntity
8
0
100
AcDbSpline
70
4
71
3
72
8
73
4
74
0
42
0.000000001
43
0.0000000001
44
0.0000000001
40
0
40
0
40
0
40
0
40
1
40
1
40
1
40
1
41
1
41
1
41
1
41
1
10
-0.34147649178638506
20
0.12997483003456997
30
0
10
-0.34312148552210775
20
0.12924372170758205
30
0
10
-0.34970146046499923
20
0.12083597594722073
30
0
10
-0.3559158812443966
20
0.11114879061463065
30
0
0
SPLINE
5
268
100
AcDbEntity
8
0
100
AcDbSpline
70
4
71
3
72
8
73
4
74
0
42
0.000000001
43
0.0000000001
44
0.0000000001
40
0
40
0
40
0
40
0
40
1
40
1
40
1
40
1
41
1
41
1
41
1
41
1
10
-0.3559158812443966
20
0.11114879061463065
30
0
10
-0.37327970401036009
20
0.084463336679570983
30
0
10
-0.40910401203276903
20
0.041510722469029725
30
0
10
-0.41385621615819074
20
0.041510722469029725
30
0
0
SPLINE
5
269
100
AcDbEntity
8
0
100
AcDbSpline
70
4
71
3
72
8
73
4
74
0
42
0.000000001
43
0.0000000001
44
0.0000000001
40
0
40
0
40
0
40
0
40
1
40
1
40
1
40
1
41
1
41
1
41
1
41
1
10
-0.41385621615819074
20
0.041510722469029725
30
0
10
-0.41477010156692562
20
0.041510722469029725
30
0
10
-0.41111455993198587
20
0.050284022392884965
30
0
10
-0.40563124747957635
20
0.06125064729770402
30
0
0
SPLINE
5
270
100
AcDbEntity
8
0
100
AcDbSpline
70
4
71
3
72
8
73
4
74
0
42
0.000000001
43
0.0000000001
44
0.0000000001
40
0
40
0
40
0
40
0
40
1
40
1
40
1
40
1
41
1
41
1
41
1
41
1
10
-0.40563124747957635
20
0.06125064729770402
30
0
10
-0.39466462257475726
20
0.0831838971073421
30
0
10
-0.38991241844933572
20
0.09707495532011283
30
0
10
-0.38991241844933572
20
0.10785880314318494
30
0
0
SPLINE
5
271
100
AcDbEntity
8
0
100
AcDbSpline
70
4
71
3
72
8
73
4
74
0
42
0.000000001
43
0.0000000001
44
0.0000000001
40
0
40
0
40
0
40
0
40
1
40
1
40
1
40
1
41
1
41
1
41
1
41
1
10
-0.38991241844933572
20
0.10785880314318494
30
0
10
-0.38991241844933572
20
0.11352489267734137
30
0
10
-0.39119185802156464
20
0.11626654890354614
30
0
10
-0.3961268392287331
20
0.12120153011071477
30
0
0
SPLINE
5
272
100
AcDbEntity
8
0
100
AcDbSpline
70
4
71
3
72
8
73
4
74
0
42
0.000000001
43
0.0000000001
44
0.0000000001
40
0
40
0
40
0
40
0
40
1
40
1
40
1
40
1
41
1
41
1
41
1
41
1
10
-0.3961268392287331
20
0.12120153011071477
30
0
10
-0.40142737459939587
20
0.1265020654813773
30
0
10
-0.40362069958035945
20
0.12741595089011223
30
0
10
-0.41074900576849188
20
0.12741595089011223
30
0
0
SPLINE
5
273
100
AcDbEntity
8
0
100
AcDbSpline
70
4
71
3
72
8
73
4
74
0
42
0.000000001
43
0.0000000001
44
0.0000000001
40
0
40
0
40
0
40
0
40
1
40
1
40
1
40
1
41
1
41
1
41
1
41
1
10
-0.41074900576849188
20
0.12741595089011223
30
0
10
-0.42025341401933514
20
0.12741595089011223
30
0
10
-0.42847838269794936
20
0.12394318633691953
30
0
10
-0.43597224304957577
20
0.11699765723053417
30
0
0
LINE
5
274
100
AcDbEntity
8
0
100
AcDbLine
10
-0.43597224304957577
20
0.11699765723053417
30
0
11
-0.44090722425674422
21
0.11242823018685957
31
0
0
LINE
5
275
100
AcDbEntity
8
0
100
AcDbLine
10
-0.44090722425674422
20
0.11242823018685957
30
0
11
-0.44584220546391284
21
0.11626654890354614
31
0
0
SPLINE
5
276
100
AcDbEntity
8
0
100
AcDbSpline
70
4
71
3
72
8
73
4
74
0
42
0.000000001
43
0.0000000001
44
0.0000000001
40
0
40
0
40
0
40
0
40
1
40
1
40
1
40
1
41
1
41
1
41
1
41
1
10
-0.44584220546391284
20
0.11626654890354614
30
0
10
-0.45900215534969585
20
0.12668484256312426
30
0
10
-0.48733260302047837
20
0.12503984882740141
30
0
10
-0.50524475703168281
20
0.11261100726860648
30
0
0
SPLINE
5
277
100
AcDbEntity
8
0
100
AcDbSpline
70
4
71
3
72
8
73
4
74
0
42
0.000000001
43
0.0000000001
44
0.0000000001
40
0
40
0
40
0
40
0
40
1
40
1
40
1
40
1
41
1
41
1
41
1
41
1
10
-0.50524475703168281
20
0.11261100726860648
30
0
10
-0.50944862991186346
20
0.1096865739606548
30
0
10
-0.51054529240234525
20
0.10950379687890777
30
0
10
-0.51749082150873071
20
0.11187989894161858
30
0
0
SPLINE
5
278
100
AcDbEntity
8
0
100
AcDbSpline
70
4
71
3
72
8
73
4
74
0
42
0.000000001
43
0.0000000001
44
0.0000000001
40
0
40
0
40
0
40
0
40
1
40
1
40
1
40
1
41
1
41
1
41
1
41
1
10
-0.51749082150873071
20
0.11187989894161858
30
0
10
-0.52169469438891114
20
0.11334211559559447
30
0
10
-0.52626412143258583
20
0.11407322392258236
30
0
10
-0.52772633808656177
20
0.11352489267734137
30
0
0
SPLINE
5
279
100
AcDbEntity
8
0
100
AcDbSpline
70
4
71
3
72
8
73
4
74
0
42
0.000000001
43
0.0000000001
44
0.0000000001
40
0
40
0
40
0
40
0
40
1
40
1
40
1
40
1
41
1
41
1
41
1
41
1
10
-0.52772633808656177
20
0.11352489267734137
30
0
10
-0.52918855474053761
20
0.11297656143210047
30
0
10
-0.53522019843818802
20
0.10475159275348618
30
0
10
-0.54143461921758573
20
0.095429961584389988
30
0
0
SPLINE
5
280
100
AcDbEntity
8
0
100
AcDbSpline
70
4
71
3
72
8
73
4
74
0
42
0.000000001
43
0.0000000001
44
0.0000000001
40
0
40
0
40
0
40
0
40
1
40
1
40
1
40
1
41
1
41
1
41
1
41
1
10
-0.54143461921758573
20
0.095429961584389988
30
0
10
-0.55349790661288634
20
0.076786699246197673
30
0
10
-0.58054891471144021
20
0.043155716204752559
30
0
10
-0.59261220210674126
20
0.03145798297294556
30
0
0
SPLINE
5
281
100
AcDbEntity
8
0
100
AcDbSpline
70
4
71
3
72
8
73
4
74
0
42
0.000000001
43
0.0000000001
44
0.0000000001
40
0
40
0
40
0
40
0
40
1
40
1
40
1
40
1
41
1
41
1
41
1
41
1
10
-0.59261220210674126
20
0.03145798297294556
30
0
10
-0.60083717078535548
20
0.023781345539572209
30
0
10
-0.60156827911234323
20
0.023781345539572209
30
0
10
-0.59736440623216258
20
0.031640760054692553
30
0
0
SPLINE
5
282
100
AcDbEntity
8
0
100
AcDbSpline
70
4
71
3
72
8
73
4
74
0
42
0.000000001
43
0.0000000001
44
0.0000000001
40
0
40
0
40
0
40
0
40
1
40
1
40
1
40
1
41
1
41
1
41
1
41
1
10
-0.59736440623216258
20
0.031640760054692553
30
0
10
-0.59389164167896991
20
0.038403512079330966
30
0
10
-0.59389164167896991
20
0.049552914065896937
30
0
10
-0.59736440623216258
20
0.052477347373848737
30
0
0
SPLINE
5
283
100
AcDbEntity
8
0
100
AcDbSpline
70
4
71
3
72
8
73
4
74
0
42
0.000000001
43
0.0000000001
44
0.0000000001
40
0
40
0
40
0
40
0
40
1
40
1
40
1
40
1
41
1
41
1
41
1
41
1
10
-0.59736440623216258
20
0.052477347373848737
30
0
10
-0.60248216452107828
20
0.056863997335776295
30
0
10
-0.60814825405523476
20
0.053025678619089682
30
0
10
-0.61527656024336719
20
0.040596837060294745
30
0
0
SPLINE
5
284
100
AcDbEntity
8
0
100
AcDbSpline
70
4
71
3
72
8
73
4
74
0
42
0.000000001
43
0.0000000001
44
0.0000000001
40
0
40
0
40
0
40
0
40
1
40
1
40
1
40
1
41
1
41
1
41
1
41
1
10
-0.61527656024336719
20
0.040596837060294745
30
0
10
-0.62240486643149939
20
0.028350772583246801
30
0
10
-0.62752262472041498
20
0.015921931024451906
30
0
10
-0.62752262472041498
20
0.011169726899030362
30
0
0
SPLINE
5
285
100
AcDbEntity
8
0
100
AcDbSpline
70
4
71
3
72
8
73
4
74
0
42
0.000000001
43
0.0000000001
44
0.0000000001
40
0
40
0
40
0
40
0
40
1
40
1
40
1
40
1
41
1
41
1
41
1
41
1
10
-0.62752262472041498
20
0.011169726899030362
30
0
10
-0.62752262472041498
20
0.0066002998553557684
30
0
10
-0.62039431853228255
20
0.0012997644846931913
30
0
10
-0.61436267483463225
20
0.0012997644846931913
30
0
0
SPLINE
5
286
100
AcDbEntity
8
0
100
AcDbSpline
70
4
71
3
72
8
73
4
74
0
42
0.000000001
43
0.0000000001
44
0.0000000001
40
0
40
0
40
0
40
0
40
1
40
1
40
1
40
1
41
1
41
1
41
1
41
1
10
-0.61436267483463225
20
0.0012997644846931913
30
0
10
-0.61107268736318632
20
0.0012997644846931913
30
0
10
-0.60412715825680108
20
0.003675866547403964
30
0
10
-0.59900939996788571
20
0.0067830769371027208
30
0
0
SPLINE
5
287
100
AcDbEntity
8
0
100
AcDbSpline
70
4
71
3
72
8
73
4
74
0
42
0.000000001
43
0.0000000001
44
0.0000000001
40
0
40
0
40
0
40
0
40
1
40
1
40
1
40
1
41
1
41
1
41
1
41
1
10
-0.3292304273093371
20
0.026888555929271009
30
0
10
-0.32155378987596378
20
0.029264657991981781
30
0
10
-0.30875939415367493
20
0.038769066242824959
30
0
10
-0.29962054006632566
20
0.049187359902403034
30
0
0
LINE
5
288
100
AcDbEntity
8
0
100
AcDbLine
10
-0.29962054006632566
20
0.049187359902403034
30
0
11
-0.29121279430596436
21
0.058874545234993206
31
0
0
LINE
5
289
100
AcDbEntity
8
0
100
AcDbLine
10
-0.29121279430596436
20
0.058874545234993206
30
0
11
-0.2968788838401209
21
0.046445703676198269
31
0
0
SPLINE
5
290
100
AcDbEntity
8
0
100
AcDbSpline
70
4
71
3
72
8
73
4
74
0
42
0.000000001
43
0.0000000001
44
0.0000000001
40
0
40
0
40
0
40
0
40
1
40
1
40
1
40
1
41
1
41
1
41
1
41
1
10
-0.29687888384012084
20
0.046445703676198269
30
0
10
-0.29998609422981964
20
0.039682951651559897
30
0
10
-0.30199664212903637
20
0.032920199626921484
30
0
10
-0.30144831088379548
20
0.031457982972945601
30
0
0
SPLINE
5
291
100
AcDbEntity
8
0
100
AcDbSpline
70
4
71
3
72
8
73
4
74
0
42
0.000000001
43
0.0000000001
44
0.0000000001
40
0
40
0
40
0
40
0
40
1
40
1
40
1
40
1
41
1
41
1
41
1
41
1
10
-0.30144831088379548
20
0.031457982972945601
30
0
10
-0.30016887131156655
20
0.027802441338005947
30
0
10
-0.29413722761391614
20
0.027985218419752898
30
0
10
-0.28627781309879591
20
0.031823537136439553
30
0
0
SPLINE
5
292
100
AcDbEntity
8
0
100
AcDbSpline
70
4
71
3
72
8
73
4
74
0
42
0.000000001
43
0.0000000001
44
0.0000000001
40
0
40
0
40
0
40
0
40
1
40
1
40
1
40
1
41
1
41
1
41
1
41
1
10
-0.28627781309879591
20
0.031823537136439553
30
0
10
-0.28061172356463931
20
0.03438241628089736
30
0
10
-0.27805284442018152
20
0.038586289161077966
30
0
10
-0.26068902165421809
20
0.074227820101739825
30
0
0
SPLINE
5
293
100
AcDbEntity
8
0
100
AcDbSpline
70
4
71
3
72
8
73
4
74
0
42
0.000000001
43
0.0000000001
44
0.0000000001
40
0
40
0
40
0
40
0
40
1
40
1
40
1
40
1
41
1
41
1
41
1
41
1
10
-0.26068902165421809
20
0.074227820101739825
30
0
10
-0.2502707279946399
20
0.095978292829630982
30
0
10
-0.24021798849855591
20
0.11516988641306429
30
0
10
-0.23857299476283303
20
0.11718043431228108
30
0
0
SPLINE
5
294
100
AcDbEntity
8
0
100
AcDbSpline
70
4
71
3
72
8
73
4
74
0
42
0.000000001
43
0.0000000001
44
0.0000000001
40
0
40
0
40
0
40
0
40
1
40
1
40
1
40
1
41
1
41
1
41
1
41
1
10
-0.23857299476283303
20
0.11718043431228108
30
0
10
-0.2334552364739175
20
0.12266374676469061
30
0
10
-0.22523026779530311
20
0.12613651131788339
30
0
10
-0.22303694281433933
20
0.12394318633691957
30
0
0
SPLINE
5
295
100
AcDbEntity
8
0
100
AcDbSpline
70
4
71
3
72
8
73
4
74
0
42
0.000000001
43
0.0000000001
44
0.0000000001
40
0
40
0
40
0
40
0
40
1
40
1
40
1
40
1
41
1
41
1
41
1
41
1
10
-0.22303694281433933
20
0.12394318633691957
30
0
10
-0.2179191845254238
20
0.11882542804800404
30
0
10
-0.22395082822307424
20
0.092871082439932265
30
0
10
-0.23747633227235107
20
0.063443972278667798
30
0
0
SPLINE
5
296
100
AcDbEntity
8
0
100
AcDbSpline
70
4
71
3
72
8
73
4
74
0
42
0.000000001
43
0.0000000001
44
0.0000000001
40
0
40
0
40
0
40
0
40
1
40
1
40
1
40
1
41
1
41
1
41
1
41
1
10
-0.23747633227235107
20
0.063443972278667798
30
0
10
-0.24113187390729082
20
0.055584557763547496
30
0
10
-0.24369075305174859
20
0.047725143248427151
30
0
10
-0.24332519888825457
20
0.045897372430957324
30
0
0
SPLINE
5
297
100
AcDbEntity
8
0
100
AcDbSpline
70
4
71
3
72
8
73
4
74
0
42
0.000000001
43
0.0000000001
44
0.0000000001
40
0
40
0
40
0
40
0
40
1
40
1
40
1
40
1
41
1
41
1
41
1
41
1
10
-0.24332519888825457
20
0.045897372430957324
30
0
10
-0.24241131347951969
20
0.040596837060294787
30
0
10
-0.23162746565644754
20
0.040231282896800842
30
0
10
-0.2263269302857851
20
0.04516626410396947
30
0
0
SPLINE
5
298
100
AcDbEntity
8
0
100
AcDbSpline
70
4
71
3
72
8
73
4
74
0
42
0.000000001
43
0.0000000001
44
0.0000000001
40
0
40
0
40
0
40
0
40
1
40
1
40
1
40
1
41
1
41
1
41
1
41
1
10
-0.2263269302857851
20
0.04516626410396947
30
0
10
-0.22285416573259242
20
0.04845625157541518
30
0
10
-0.22212305740560445
20
0.048639028657162089
30
0
10
-0.21992973242464067
20
0.046080149512704359
30
0
0
SPLINE
5
299
100
AcDbEntity
8
0
100
AcDbSpline
70
4
71
3
72
8
73
4
74
0
42
0.000000001
43
0.0000000001
44
0.0000000001
40
0
40
0
40
0
40
0
40
1
40
1
40
1
40
1
41
1
41
1
41
1
41
1
10
-0.21992973242464067
20
0.046080149512704359
30
0
10
-0.21846751577066489
20
0.044252378695234532
30
0
10
-0.21444641997223116
20
0.043338493286499601
30
0
10
-0.20804922211108656
20
0.043338493286499601
30
0
0
SPLINE
5
300
100
AcDbEntity
8
0
100
AcDbSpline
70
4
71
3
72
8
73
4
74
0
42
0.000000001
43
0.0000000001
44
0.0000000001
40
0
40
0
40
0
40
0
40
1
40
1
40
1
40
1
41
1
41
1
41
1
41
1
10
-0.20804922211108656
20
0.043338493286499601
30
0
10
-0.18940595977289437
20
0.043338493286499601
30
0
10
-0.16491383081879848
20
0.060885093134210075
30
0
10
-0.1482811163798228
20
0.08610833041529381
30
0
0
SPLINE
5
301
100
AcDbEntity
8
0
100
AcDbSpline
70
4
71
3
72
8
73
4
74
0
42
0.000000001
43
0.0000000001
44
0.0000000001
40
0
40
0
40
0
40
0
40
1
40
1
40
1
40
1
41
1
41
1
41
1
41
1
10
-0.1482811163798228
20
0.08610833041529381
30
0
10
-0.12835841446940172
20
0.11681488014878717
30
0
10
-0.13274506443132927
20
0.14934920069975036
30
0
10
-0.15687163922193118
20
0.14934920069975036
30
0
0
SPLINE
5
302
100
AcDbEntity
8
0
100
AcDbSpline
70
4
71
3
72
8
73
4
74
0
42
0.000000001
43
0.0000000001
44
0.0000000001
40
0
40
0
40
0
40
0
40
1
40
1
40
1
40
1
41
1
41
1
41
1
41
1
10
-0.15687163922193118
20
0.14934920069975036
30
0
10
-0.16674160163626825
20
0.14934920069975036
30
0
10
-0.17770822654108731
20
0.14240367159336495
30
0
10
-0.19123373059036414
20
0.12741595089011229
30
0
0
LINE
5
303
100
AcDbEntity
8
0
100
AcDbLine
10
-0.19123373059036414
20
0.12741595089011229
30
0
11
-0.20165202424994222
21
0.11590099474005225
31
0
0
LINE
5
304
100
AcDbEntity
8
0
100
AcDbLine
10
-0.20165202424994222
20
0.11590099474005225
30
0
11
-0.20165202424994214
21
0.12174986135595571
31
0
0
SPLINE
5
305
100
AcDbEntity
8
0
100
AcDbSpline
70
4
71
3
72
8
73
4
74
0
42
0.000000001
43
0.0000000001
44
0.0000000001
40
0
40
0
40
0
40
0
40
1
40
1
40
1
40
1
41
1
41
1
41
1
41
1
10
-0.20165202424994214
20
0.12174986135595571
30
0
10
-0.20165202424994214
20
0.12997483003457
30
0
10
-0.20603867421186986
20
0.13947923828541317
30
0
10
-0.21097365541903848
20
0.14222089451161796
30
0
0
SPLINE
5
306
100
AcDbEntity
8
0
100
AcDbSpline
70
4
71
3
72
8
73
4
74
0
42
0.000000001
43
0.0000000001
44
0.0000000001
40
0
40
0
40
0
40
0
40
1
40
1
40
1
40
1
41
1
41
1
41
1
41
1
10
-0.21097365541903848
20
0.14222089451161796
30
0
10
-0.21663974495319493
20
0.14514532781956971
30
0
10
-0.22797192402150798
20
0.14459699657432873
30
0
10
-0.23510023020964022
20
0.14075867785764207
30
0
0
SPLINE
5
307
100
AcDbEntity
8
0
100
AcDbSpline
70
4
71
3
72
8
73
4
74
0
42
0.000000001
43
0.0000000001
44
0.0000000001
40
0
40
0
40
0
40
0
40
1
40
1
40
1
40
1
41
1
41
1
41
1
41
1
10
-0.23510023020964022
20
0.14075867785764207
30
0
10
-0.23839021768108595
20
0.13911368412191916
30
0
10
-0.24314242180650769
20
0.13783424454969032
30
0
10
-0.24588407803271237
20
0.13819979871318425
30
0
0
SPLINE
5
308
100
AcDbEntity
8
0
100
AcDbSpline
70
4
71
3
72
8
73
4
74
0
42
0.000000001
43
0.0000000001
44
0.0000000001
40
0
40
0
40
0
40
0
40
1
40
1
40
1
40
1
41
1
41
1
41
1
41
1
10
-0.24588407803271237
20
0.13819979871318425
30
0
10
-0.2502707279946399
20
0.13856535287667823
30
0
10
-0.25209849881210988
20
0.13655480497746142
30
0
10
-0.26343067788042274
20
0.11973931345673892
30
0
0
SPLINE
5
309
100
AcDbEntity
8
0
100
AcDbSpline
70
4
71
3
72
8
73
4
74
0
42
0.000000001
43
0.0000000001
44
0.0000000001
40
0
40
0
40
0
40
0
40
1
40
1
40
1
40
1
41
1
41
1
41
1
41
1
10
-0.26343067788042274
20
0.11973931345673892
30
0
10
-0.27037620698680825
20
0.10932101979716077
30
0
10
-0.28097727772813313
20
0.094698853257402058
30
0
10
-0.28700892142578371
20
0.087022215824028706
30
0
0
SPLINE
5
310
100
AcDbEntity
8
0
100
AcDbSpline
70
4
71
3
72
8
73
4
74
0
42
0.000000001
43
0.0000000001
44
0.0000000001
40
0
40
0
40
0
40
0
40
1
40
1
40
1
40
1
41
1
41
1
41
1
41
1
10
-0.28700892142578371
20
0.087022215824028706
30
0
10
-0.29962054006632566
20
0.071303386793788143
30
0
10
-0.3206399044672289
20
0.048456251575415138
30
0
10
-0.32155378987596378
20
0.049370136984150069
30
0
0
SPLINE
5
311
100
AcDbEntity
8
0
100
AcDbSpline
70
4
71
3
72
8
73
4
74
0
42
0.000000001
43
0.0000000001
44
0.0000000001
40
0
40
0
40
0
40
0
40
1
40
1
40
1
40
1
41
1
41
1
41
1
41
1
10
-0.32155378987596378
20
0.049370136984150069
30
0
10
-0.32191934403945777
20
0.049735691147644021
30
0
10
-0.32100545863072288
20
0.05284290153734273
30
0
10
-0.31917768781325312
20
0.056132889008788441
30
0
0
SPLINE
5
312
100
AcDbEntity
8
0
100
AcDbSpline
70
4
71
3
72
8
73
4
74
0
42
0.000000001
43
0.0000000001
44
0.0000000001
40
0
40
0
40
0
40
0
40
1
40
1
40
1
40
1
41
1
41
1
41
1
41
1
10
-0.31917768781325312
20
0.056132889008788441
30
0
10
-0.31332882119734939
20
0.068013399322342391
30
0
10
-0.31661880866879516
20
0.078797247145414417
30
0
10
-0.32575766275614426
20
0.07770058465493257
30
0
0
SPLINE
5
313
100
AcDbEntity
8
0
100
AcDbSpline
70
4
71
3
72
8
73
4
74
0
42
0.000000001
43
0.0000000001
44
0.0000000001
40
0
40
0
40
0
40
0
40
1
40
1
40
1
40
1
41
1
41
1
41
1
41
1
10
-0.32575766275614426
20
0.07770058465493257
30
0
10
-0.32904765022759019
20
0.077335030491438569
30
0
10
-0.33178930645379484
20
0.074593374265233811
30
0
10
-0.3356276251704815
20
0.068013399322342391
30
0
0
SPLINE
5
314
100
AcDbEntity
8
0
100
AcDbSpline
70
4
71
3
72
8
73
4
74
0
42
0.000000001
43
0.0000000001
44
0.0000000001
40
0
40
0
40
0
40
0
40
1
40
1
40
1
40
1
41
1
41
1
41
1
41
1
10
-0.3356276251704815
20
0.068013399322342391
30
0
10
-0.34366981676734881
20
0.054487895273065565
30
0
10
-0.35006701462849321
20
0.038037957915837022
30
0
10
-0.34878757505626434
20
0.034016862117403325
30
0
0
SPLINE
5
315
100
AcDbEntity
8
0
100
AcDbSpline
70
4
71
3
72
8
73
4
74
0
42
0.000000001
43
0.0000000001
44
0.0000000001
40
0
40
0
40
0
40
0
40
1
40
1
40
1
40
1
41
1
41
1
41
1
41
1
10
-0.34878757505626434
20
0.034016862117403325
30
0
10
-0.34604591883005953
20
0.025791893438789119
30
0
10
-0.34019705221415614
20
0.023598568457825257
30
0
10
-0.3292304273093371
20
0.026888555929271009
30
0
0
SPLINE
5
316
100
AcDbEntity
8
0
100
AcDbSpline
70
4
71
3
72
8
73
4
74
0
42
0.000000001
43
0.0000000001
44
0.0000000001
40
0
40
0
40
0
40
0
40
1
40
1
40
1
40
1
41
1
41
1
41
1
41
1
10
-0.21627419078970092
20
0.058874545234993247
30
0
10
-0.21627419078970092
20
0.059422876480234241
30
0
10
-0.21115643250078539
20
0.068196176404089426
30
0
10
-0.20494201172138787
20
0.078248915900173549
30
0
0
SPLINE
5
317
100
AcDbEntity
8
0
100
AcDbSpline
70
4
71
3
72
8
73
4
74
0
42
0.000000001
43
0.0000000001
44
0.0000000001
40
0
40
0
40
0
40
0
40
1
40
1
40
1
40
1
41
1
41
1
41
1
41
1
10
-0.20494201172138787
20
0.078248915900173549
30
0
10
-0.19287872432608702
20
0.097440509483606857
30
0
10
-0.16162384334735272
20
0.130705938361558
30
0
10
-0.15778552463066606
20
0.12832983629884717
30
0
0
SPLINE
5
318
100
AcDbEntity
8
0
100
AcDbSpline
70
4
71
3
72
8
73
4
74
0
42
0.000000001
43
0.0000000001
44
0.0000000001
40
0
40
0
40
0
40
0
40
1
40
1
40
1
40
1
41
1
41
1
41
1
41
1
10
-0.15778552463066606
20
0.12832983629884717
30
0
10
-0.1495605559520517
20
0.12321207800993159
30
0
10
-0.17368713074265377
20
0.080807795044631328
30
0
10
-0.19196483891735214
20
0.068561730567583426
30
0
0
SPLINE
5
319
100
AcDbEntity
8
0
100
AcDbSpline
70
4
71
3
72
8
73
4
74
0
42
0.000000001
43
0.0000000001
44
0.0000000001
40
0
40
0
40
0
40
0
40
1
40
1
40
1
40
1
41
1
41
1
41
1
41
1
10
-0.19196483891735214
20
0.068561730567583426
30
0
10
-0.20494201172138787
20
0.059788430643728185
30
0
10
-0.21627419078970092
20
0.055219003600053593
30
0
10
-0.21627419078970092
20
0.058874545234993247
30
0
0
ENDSEC
0
SECTION
2
OBJECTS
0
DICTIONARY
5
C
100
AcDbDictionary
3
ACAD_GROUP
350
D
3
ACAD_MLINESTYLE
350
17
0
DICTIONARY
5
D
100
AcDbDictionary
0
DICTIONARY
5
1A
330
C
100
AcDbDictionary
0
DICTIONARY
5
17
100
AcDbDictionary
0
ENDSEC
0
EOF
